<mxfile host="app.diagrams.net" modified="2024-03-22T10:08:40.461Z" agent="Mozilla/5.0 (Windows NT 10.0; Win64; x64) AppleWebKit/537.36 (KHTML, like Gecko) Chrome/122.0.0.0 Safari/537.36 Edg/122.0.0.0" etag="RuFsWFk-LjV-IDMYwly0" version="24.0.7" type="github">
  <diagram name="第 1 页" id="NN5cSpGS_q6DUBtNpYJR">
    <mxGraphModel dx="1386" dy="751" grid="1" gridSize="10" guides="1" tooltips="1" connect="1" arrows="1" fold="1" page="1" pageScale="1" pageWidth="827" pageHeight="1169" math="0" shadow="0">
      <root>
        <mxCell id="0" />
        <mxCell id="1" parent="0" />
        <mxCell id="KUXXl5ssxniQ1RarXrmG-1" value="" style="rounded=1;whiteSpace=wrap;html=1;fillColor=#E6D0DE;" vertex="1" parent="1">
          <mxGeometry x="50" y="180" width="120" height="320" as="geometry" />
        </mxCell>
        <mxCell id="KUXXl5ssxniQ1RarXrmG-2" value="DataSource" style="text;html=1;align=center;verticalAlign=middle;whiteSpace=wrap;rounded=0;fontSize=20;" vertex="1" parent="1">
          <mxGeometry x="80" y="140" width="60" height="30" as="geometry" />
        </mxCell>
        <mxCell id="KUXXl5ssxniQ1RarXrmG-3" value="埋点" style="rounded=0;whiteSpace=wrap;html=1;" vertex="1" parent="1">
          <mxGeometry x="60" y="210" width="100" height="50" as="geometry" />
        </mxCell>
        <mxCell id="KUXXl5ssxniQ1RarXrmG-5" value="FTP" style="rounded=0;whiteSpace=wrap;html=1;" vertex="1" parent="1">
          <mxGeometry x="60" y="290" width="100" height="50" as="geometry" />
        </mxCell>
        <mxCell id="KUXXl5ssxniQ1RarXrmG-6" value="LOG FILE" style="rounded=0;whiteSpace=wrap;html=1;" vertex="1" parent="1">
          <mxGeometry x="60" y="370" width="100" height="50" as="geometry" />
        </mxCell>
        <mxCell id="KUXXl5ssxniQ1RarXrmG-7" value="..." style="text;html=1;align=center;verticalAlign=middle;whiteSpace=wrap;rounded=0;rotation=90;fontSize=50;" vertex="1" parent="1">
          <mxGeometry x="94" y="444" width="60" height="30" as="geometry" />
        </mxCell>
        <mxCell id="KUXXl5ssxniQ1RarXrmG-8" value="" style="rounded=1;whiteSpace=wrap;html=1;fillColor=#E6D0DE;" vertex="1" parent="1">
          <mxGeometry x="272" y="180" width="348" height="320" as="geometry" />
        </mxCell>
        <mxCell id="KUXXl5ssxniQ1RarXrmG-9" value="Data Ingestion &amp;amp; Data Process" style="text;html=1;align=center;verticalAlign=middle;whiteSpace=wrap;rounded=0;fontSize=20;" vertex="1" parent="1">
          <mxGeometry x="270" y="140" width="364" height="30" as="geometry" />
        </mxCell>
        <mxCell id="KUXXl5ssxniQ1RarXrmG-10" value="Data Ingestion Assembly" style="rounded=0;whiteSpace=wrap;html=1;" vertex="1" parent="1">
          <mxGeometry x="322" y="420" width="260" height="60" as="geometry" />
        </mxCell>
        <mxCell id="KUXXl5ssxniQ1RarXrmG-12" value="" style="endArrow=none;dashed=1;html=1;rounded=0;entryX=0.972;entryY=0.67;entryDx=0;entryDy=0;entryPerimeter=0;" edge="1" parent="1" target="KUXXl5ssxniQ1RarXrmG-8">
          <mxGeometry width="50" height="50" relative="1" as="geometry">
            <mxPoint x="282" y="394.5" as="sourcePoint" />
            <mxPoint x="412" y="394.5" as="targetPoint" />
          </mxGeometry>
        </mxCell>
        <mxCell id="KUXXl5ssxniQ1RarXrmG-13" value="" style="rounded=0;whiteSpace=wrap;html=1;" vertex="1" parent="1">
          <mxGeometry x="322" y="200" width="260" height="170" as="geometry" />
        </mxCell>
        <mxCell id="KUXXl5ssxniQ1RarXrmG-14" value="ODEON" style="text;html=1;align=center;verticalAlign=middle;whiteSpace=wrap;rounded=0;" vertex="1" parent="1">
          <mxGeometry x="322" y="200" width="60" height="30" as="geometry" />
        </mxCell>
        <mxCell id="KUXXl5ssxniQ1RarXrmG-16" value="ETL" style="rounded=0;whiteSpace=wrap;html=1;" vertex="1" parent="1">
          <mxGeometry x="332" y="230" width="40" height="120" as="geometry" />
        </mxCell>
        <mxCell id="KUXXl5ssxniQ1RarXrmG-18" value="Batch ETL(Spark)" style="rounded=0;whiteSpace=wrap;html=1;" vertex="1" parent="1">
          <mxGeometry x="392" y="277" width="170" height="30" as="geometry" />
        </mxCell>
        <mxCell id="KUXXl5ssxniQ1RarXrmG-19" value="Process ETL(Scala/Java)" style="rounded=0;whiteSpace=wrap;html=1;" vertex="1" parent="1">
          <mxGeometry x="392" y="320" width="170" height="30" as="geometry" />
        </mxCell>
        <mxCell id="KUXXl5ssxniQ1RarXrmG-20" value="Streaming ETL(Flink&lt;span style=&quot;background-color: initial;&quot;&gt;)&lt;/span&gt;" style="rounded=0;whiteSpace=wrap;html=1;" vertex="1" parent="1">
          <mxGeometry x="392" y="230" width="170" height="30" as="geometry" />
        </mxCell>
        <mxCell id="KUXXl5ssxniQ1RarXrmG-24" value="" style="html=1;shadow=0;dashed=0;align=center;verticalAlign=middle;shape=mxgraph.arrows2.arrow;dy=0.6;dx=40;notch=0;" vertex="1" parent="1">
          <mxGeometry x="180" y="315" width="80" height="30" as="geometry" />
        </mxCell>
        <mxCell id="KUXXl5ssxniQ1RarXrmG-25" value="" style="rounded=1;whiteSpace=wrap;html=1;fillColor=#E6D0DE;" vertex="1" parent="1">
          <mxGeometry x="720" y="180" width="210" height="320" as="geometry" />
        </mxCell>
        <mxCell id="KUXXl5ssxniQ1RarXrmG-26" value="Data Warehouse" style="text;html=1;align=center;verticalAlign=middle;whiteSpace=wrap;rounded=0;fontSize=20;" vertex="1" parent="1">
          <mxGeometry x="730" y="140" width="190" height="30" as="geometry" />
        </mxCell>
        <mxCell id="KUXXl5ssxniQ1RarXrmG-28" value="" style="rounded=0;whiteSpace=wrap;html=1;" vertex="1" parent="1">
          <mxGeometry x="740" y="300" width="170" height="60" as="geometry" />
        </mxCell>
        <mxCell id="KUXXl5ssxniQ1RarXrmG-29" value="" style="rounded=0;whiteSpace=wrap;html=1;" vertex="1" parent="1">
          <mxGeometry x="740" y="420" width="170" height="60" as="geometry" />
        </mxCell>
        <mxCell id="KUXXl5ssxniQ1RarXrmG-30" value="" style="rounded=0;whiteSpace=wrap;html=1;" vertex="1" parent="1">
          <mxGeometry x="740" y="215" width="170" height="60" as="geometry" />
        </mxCell>
        <mxCell id="KUXXl5ssxniQ1RarXrmG-31" value="" style="html=1;shadow=0;dashed=0;align=center;verticalAlign=middle;shape=mxgraph.arrows2.arrow;dy=0.6;dx=40;notch=0;" vertex="1" parent="1">
          <mxGeometry x="634" y="315" width="80" height="30" as="geometry" />
        </mxCell>
        <mxCell id="KUXXl5ssxniQ1RarXrmG-32" value="" style="rounded=1;whiteSpace=wrap;html=1;fillColor=#E6D0DE;" vertex="1" parent="1">
          <mxGeometry x="1030" y="180" width="220" height="320" as="geometry" />
        </mxCell>
        <mxCell id="KUXXl5ssxniQ1RarXrmG-33" value="Data Application" style="text;html=1;align=center;verticalAlign=middle;whiteSpace=wrap;rounded=0;fontSize=20;" vertex="1" parent="1">
          <mxGeometry x="1060" y="140" width="170" height="30" as="geometry" />
        </mxCell>
        <mxCell id="KUXXl5ssxniQ1RarXrmG-35" value="用户画像" style="rounded=0;whiteSpace=wrap;html=1;" vertex="1" parent="1">
          <mxGeometry x="1062.5" y="205" width="165" height="60" as="geometry" />
        </mxCell>
        <mxCell id="KUXXl5ssxniQ1RarXrmG-36" value="Data Service API" style="rounded=0;whiteSpace=wrap;html=1;" vertex="1" parent="1">
          <mxGeometry x="1062.5" y="285" width="165" height="60" as="geometry" />
        </mxCell>
        <mxCell id="KUXXl5ssxniQ1RarXrmG-37" value="" style="endArrow=none;dashed=1;html=1;rounded=0;" edge="1" parent="1">
          <mxGeometry width="50" height="50" relative="1" as="geometry">
            <mxPoint x="740" y="395" as="sourcePoint" />
            <mxPoint x="900" y="395" as="targetPoint" />
          </mxGeometry>
        </mxCell>
        <mxCell id="KUXXl5ssxniQ1RarXrmG-38" value="自助BI" style="rounded=0;whiteSpace=wrap;html=1;" vertex="1" parent="1">
          <mxGeometry x="1062.5" y="360" width="165" height="60" as="geometry" />
        </mxCell>
        <mxCell id="KUXXl5ssxniQ1RarXrmG-39" value="..." style="text;html=1;align=center;verticalAlign=middle;whiteSpace=wrap;rounded=0;rotation=90;fontSize=50;" vertex="1" parent="1">
          <mxGeometry x="1130" y="444" width="60" height="30" as="geometry" />
        </mxCell>
        <mxCell id="KUXXl5ssxniQ1RarXrmG-40" value="" style="html=1;shadow=0;dashed=0;align=center;verticalAlign=middle;shape=mxgraph.arrows2.arrow;dy=0.6;dx=40;notch=0;" vertex="1" parent="1">
          <mxGeometry x="941" y="315" width="80" height="30" as="geometry" />
        </mxCell>
        <mxCell id="KUXXl5ssxniQ1RarXrmG-41" value="" style="shape=image;verticalLabelPosition=bottom;labelBackgroundColor=default;verticalAlign=top;aspect=fixed;imageAspect=0;image=data:image/png,iVBORw0KGgoAAAANSUhEUgAAAJYAAACWCAIAAACzY+a1AAAACXBIWXMAABJ0AAASdAHeZh94AAAAEXRFWHRTb2Z0d2FyZQBTbmlwYXN0ZV0Xzt0AABcFSURBVHic7Z1neFtVmsdf9eIq23LvPbaT2LFxmhMcE6cYcApsGCbwhFCSAR6YMAUWHmYIuwu7ZICZZWYYEkwSEpgwIQFMcxIP6c3dce8ltuVuuapfaT/IkW+TdC3JsbVzfp90zz331bH/es899T0sg8EACGeGPd8FQNgLktDpQRI6PUhCpwdJ6PQgCZ0eJKHTgyR0epCETg+S0OlBEjo9SEKnB0no9CAJnR4kodODJHR6kIROD5LQ6UESOj1IQqcHSej0IAmdHiSh04MkdHqQhE4Pd74LsLB4s/Dml1XNnfLxJQE+OYsitiREJfl7z3ehrMBCC/JNPPvV+Y9uVpEScxMiX8xIuS86ZF6KxAQk4Qysl/+U6Of9l23rAKCiZ+Dzioay7gHjrafTk17JTIv28ZzXAtKDJJyB9fKfMiODL/ziYVPKoaLqQ0XVRiH93Vxey7onIyIowE3s7+Yyf8UkgyScIem9453y8cqXHovy9sCnHyqq/v25G/0TCnzifdEhWdEh2TFh94T43d1ikuHs379/fkuwcGgZHrvc3tM1NvnI0lh8emqw34bYsCvtPYNTSlNi+8j4+Zauj4trSrr6tZg+OVB618s7DfLCGWTjUxs+/qq2f3h/9oo3slfQ5pEr1XKlSq5QNw/JD5fUFjbfNqZvTYx6I3vFvAiJJCTwfX3bg0e+BYD8J3JzEyKt5r/R2Xu4pDavuAYAPEWCN7JX7MtImfNSEkEVKYFYqYQFcLGtWzY2ufueRKv5QzzdchMiM6OCJ1SaCtng2cbOW7LBJH8fX1fxXSitESQhmcyo4Eut3ZfaeyQiwYrQANLdi63dniKBkEcYEgmXuD+yNDbAzeVqu6yyd/BMY2eSv0+klwfcFdAAGw1vbFgBAO9dLh9WqPDplbLBdQdPrTt4alSppj61d8Xic89sXxcV0j4ytv7Q6ROVjXentMgLaQiXuLMAvq1ri/f1SsG1UPzdXDyFgk/L6vzdXFaEkR0UAII8XB9btmhKo7vR2Xu6umVEodocHz7XpUVeSM/WpCgA+K6ujZS+b01KmMTdwoMcNuvdB9a8nJkGAH++Vrkx7+u5K+T0NyIvpMXfzaWkq6+goWNnSryXWIi/lRwo/VlynOXHs2NCByYVpd39rcNjjYPyhxfHzF1RkYRmUWl139S2Rnh5kOrMcC9LXmji/kURCo3ueqespm9Yi+nnbqAcVaRm2ZYU7ecq/q6eXJcy58D9GS+sTgaAt88Xf1Jc47iiEUASmsVLLNy+OPp8S1d5z4DNRj7Ykrk5LhwAXvructHtPocVDgeS0BLbkqKBrlEzK44/uinax3NCrXm14Bo2B2NhSEJLZMeEpof4H7hYWmGHI3qLhX/blgUAF1q7Xv3xquNKNw2S0AovrUlRaHUHLpXZY2R9TOi+NSkA8IdLZSermhxUtGmQhFb4WXLcz5LjvqhsfLPwpj129mWkBLi5AMCrP14jTT3aCZLQOr+9N1XA5ewvvHm8vN5mI2ESd6Mjto2M2WOHCpLQOsuCfN/atBoA2obH7LGzb03KsiBfAEASzgOd8nEAWBLgY48RPoezd8ViAKjqHXKgikhCRpxv6fISC++NDLbTzp7li1ODfQHgs/IGR5QLAEnIhNr+4dr+4c1x4aTBUtt4Oj0JAM41dZ5p7LDfGiAJmVApGwSAVXSzSzawKzUhTioBgKOldQ4xiCS0TsvQKACkBPk6xJqIx92VlgAA/7jVdKOz136DSELrNA+NAsBKB3khAOxKTfB1FYGDHBFJaJ0O+bjUReRAg4HuLrtSEwDgaGltbf+wndaQhNYZUahoV6QV2NEe2ZWWwGWzNZjefkdEElpnRKGieuHe0z8VNHTYbDPRz9v4RjxaWtc9NmlP8ZCE1hlRqPonCaOa39S2Hiqq/rqmBb9Ef7bsSl0EAENTyk/L7HJEJKF1Ev29+4gD0wculgJA99ikPdXgmoigrYlRAPDHy+VKrc5mO0hC69wbGSxXqkwqdo9NmjoDR0pq1TrMZstPpScCwLBC9f6VcpuNIAmtkxIkBYDP7oxqXmnvMX54OTOtfmDEHkd8YFHkg4siAeD1M9d3njjzQ327DUaQhNbJjAx2E/B/aukyXhqX0rjwee/kZADAe5fL7Jn/+3Z3rnHU9O8VDQ8cyc898u33s1xwhRYhWsdTJGiXj5281bQ+JjTU0+1EZWOlbDA1yPfp9CRXPu+LW01avX5TXLjN9vcsXxzp5aHWYS3Do01D8hOVjeXdA25CXqxUwuRxJCEjXPi8Y2X1PWOTSwOkZxo7GgblG2LDtiRGRXl7nqpuPtvUuSosIMrb9p34SwOlO5fFP5YSH+HlrtZh55o7T1Q2ctnstZFBVp9FEjIiwstjXKX+vKLh84oGD6Hg9ujE0+lJ94T4uwp4niJBfm1r9+jkE2kJdn6Ll1i4MizgibSEnPjw/knFRzermgblq8ID3QR8C08hCZmyMS68YWCkvGfg9uhEop/3gfvXuPB5AJAcKO2fUJyqbnbhcVeHBzrku4I8XB9NjhPxuB9erzpwsXRNRKCFrW5ol+/sOFpap9PrV4YFJPoRQgptzPu6pKvv8rM7HBtq6FqH7Hdnb1xo7frNval/uH8NbR4kocP49feX+yYUnz+6yeGW3yy8ub/wpp+buO93e6h3kYSO5M3Cm8Eerk+lJznc8pdVzTs++yHRz7vm14+TbiEJHcwH1yq3J0UHe7jaaUep1f3Ucrv4dv+kRjup0U5pNGNKzQ8N7U+lJ+U9vB6fE4XRczAvrk7+vr7dZgkregYutnVfaOn+Z8tt0sBpsIdrbkJkLCWIGPLCOaGufzjBz5Z2TdoHfzfGC/NxEcVJJXFSySJfr+RAaXKg1MfMtDPywjkhwc9bpdWRAmMwYc/yxXu7fwKA7UnRBx+6j8kjaIx0rrBBPwDYs3zx7rREADhUVL375Dkmj6CKdCGy7qNTF9u6ASA3IfLlzDTLIwZIwgXKqwXX/udCifHzy5lp/7VxFY9DX2UiCRcuR0rrnrxTl+bEh+f9W3YAXRxUJOGC5lbv4LGy+uNl9cZFOlee25FBqVSRhE6AbHzqWFnd8fL6uv6RzteeCvV0w9/9F5AQ02DDdSyRlO1mfe7NMgb1mEE5ZFAOsbhiltiHJfIBNs8hZWSCFtP/8Ur5Kz9eNRzYh0+nl/C1M9dudJCX+/8mM/X++AjmX7nuo1OklJXhAW9vWs3cgj1oa49hvcX6oTpsoNKYwhJ5s32S2F6x3KAMbvSDzE3pmr/W9VzXNecblEOkW5ygDG54NidkLcd3qWUjitO5hAeDVwuWv8K8DCZOVTW/9N2l73dvWXonOBx930U2NmVs1OKRiIXMJTxaWke1EOF9N+I76przNVUfYz3XSekG5TDWdQnruqS99THHL4Ub/wgvYSeLZylQuq7lW03lQUx2w1wGrOcq1nMV2Dx+8i/4yXtZrpZa/1jPTLgLTrCNP+WHl8TESD3fPl/yj505xhQzEk7QrC/+uqaF+Tfl0QU76puYYm7BNlRn92gbyd5PBeuvwPortHWfuzx6yVweddE7mqJ3GH2rXqsp/7Ouo1CUc5jtFc+8tLaxNEBq0g/Mjc7Ixun/15fvrL+zyrUOGTWxz6GRHqhoq49Q9WPxXdmSaE5QBtsrniUi7LTmRuaAGczpxxJLOb7JtI/oRxqUPz6pH3HY9l2G0HihwQC9ZiT8pLhmbYT1RsHp6mba9Dn1Qqy3WHXp3/EpLNdAfspz/JTnSDl1zfnalm90zfnm3kba2uMk/dhe8fyUZzkB90w7mU6F9VdgA+XqK7/DZ9OPNKiL3xVtyrP/z2EOjRf2jE+OEKPhmjhWxmiTf15xLW163/iUXElv2X609V+AXmu6ZAk8xA+eoOoHANyYLaLNR9xeHKG1ox9pUN94C5/C9ooX5RzmJT4+U0lyhZyglfyU50Wbj5Ae1zV9pWv6yp4/ZLbQSUjcaJPg54W/rJANWjVqbhe5Acz6t/3oBwnHLfHTf8uWLrbBjvrGWwbFTLguo37m3nDGXwMpUVPxoQ3fazP0Xoi/XBdFCKRpNSjjuaZO0+dllM3NvXNUl+p1GFFCbliWLWZG23StP+BT+Gm/tNxC4cZs4cU9jE/B+suxbsfHWjNbAGoSyQuzokP+ev2W6TKvuOYvW9dZsIhvi+bEh3eNTuB3cOG9kNrriJdKLByHRM0f6OZiXPKMDdWAnjDHzRJ6wezRdf6TYIQrttDkMcGNe5jUjNK25HOCM2wogA0wkDAqJMjd1eSaah3WMjRq4QyxL6tm2jI58RFf17TiJcS3dRN8veL/cAz/dnxr06rXstLNWW4alO89/ZPpEn9EFotLDieC9ZVxIzebM2UOrIMgISc0k8V3M5fZBDd8A0vkbVDObLmm9krnDusVqadIsI4YlDivxGxdWtw1EzU1TipZGRZA2h+Lr0h9XcXZsaH4u4dL6NtBRoxhC0wYd5MYYYnJZ19pyj6wYMocWH8p/pIX9xDDB0k+p5fPog9tJzQSUjuFWVGEqEefmGlwAsDBm9Wmz8YDc6SuRAmJxrNjCBK2Do9ZCLraNCjHX6YGz8jGEko4Iffi72K9RYp/rDeNrjEBG6g0qAi/ErYk1lxmEhy/ZYRrvVY/1sH8q+2BVsIZLzSu5s+KDnHlz4znDk0pzW3HwrtRTnwEAEiJgQZIvfsNsWFCLqEyP2LeEav7CMEhUoltJVKbAgCw/nLFl5u1NZ+aM0hCP3CLlMISMz1GizRoAACG8U7anA7HihdKRAIACJO4M6lL8RWdj4soMyoYAHyJFSmpdx/q6UaqSz83E5ysdXi0fWQmEOGSAB/S3i1ewk6apgemVp1/SVmwG+sroTWLR0/5p7PETMMF0UhIdOi5gyzhqFI9rtKYLiWi6WZCFoOuBb7h+vM7JzlILUoIlLqU2uw00jRI+I9QT1MCAMHqNzj+adR0XXO+4uRG9ZXXDZM0w34mDOpx/CVz/QCAJSIvOTSo50lCUnPU6IUAkEM8uKZ9ZFyh0QIRYndiek6DVJGOqTQTag0+ZUNsGMlOfm0rtaCNxBfh8lB/ah62JEa05SQ3Opd6CwA0FR9Ondxgqd+tIUk4i8MIabxwviTsI0bnkIinJYyVSkjbFfOIL63e8akpnKgb46aFITVngNJcipNK1hMd8Rs6CStkhADntF4IACyBpyjnqHDTx7TuaJiUqa+8rji5UdecT3OX5IW8WazIpkoId2sunSzhFNG3TBUpWKtLDxbNtEWfxJ38Rw26Qx2gIdelrTR1aSVuYM9LLCQN+5HgxT4k3nFOsPa/2e5kFwcArK9EWbBb9dM+UroBI5yHRp3gtQhZMJaA0aEy9kOWcJJYy5kqUgDYvjgaf6uql/AXUrsTRnxdyKGv5AryyXEbiXVph3ycFCJQrcPwX7eZ2cZ2fvJe8Y5z/Ht+xeLRhN/S1h4jzaSzBIQZ6VlJaFBQho75RAlZzI3NDoqERC/0EM5IuNjfZynxrNojpdN16ZhKjW+n5OAm96kVKXWyYmmglLTaFT/QCgDVfYT/JvMT5VhiqWDl6+IdhdQuBwBgPVfVuEklsoTqMfzUh2XwI+N3rBElnLNqleqFhEKLiKvKKXXptIT42Cu5CZGkRavuQsJWcTnd+Y2kRg2pLj3bSFB0DYM5Szxs70XCjYf4qS9Qb2mK3sG6pifuSRLCbByRRkIXmgbXXGDFC0kS7kwhjNmbpubx3Ymdy8jj+u4CkoQ0U4ZkCdu6O+QzjYv8upkGzvJQf9IqPIYIVr8pzHyXmm4aoabpGCiYS0ioSFlcEUe6ZPZltAUrzRmShKnBvqSj305VNWsxPb5Tn0NZIsXEC1eE+pNmpkyOKBufLOnqN6WTJr9mBW/Jk4LV+0mJWH+F8QPbk3yEtn6KadRePdELOYHLbSmfTcyuIgVKXZpXUvP3ypnxlNXhgfihOCNkLzSzJIDkiNfvuPg3tYRoSNTlzLOCn/oiS0CYZjFMTP9W2B4UCYeYnlinqz+Bv2T7OH6vtjmoFSmhRUoawAQA0kbys42d+Fr0SbqDxN1xbSIw44VAaZdev9MoxQe08nERZUTYGxiE7RFOuOZP9/+oXohRRk1p0XWc04/fxqdww7NtLt5smd27EABWhQXgO4sAgK/ltiRGUb/DjcG7EAAyo4ITfGd6e7X9w20jY0qtDh+5dVtilAfxB2ED+glCW4njlzr9iSviRmzE39K1fMdk/l1HnO/lBKRzgukDjMwFlHchuSLlUJ8x16aPk0q86U5yYPIuNLIhjuCIV9tlpEM8tyZFg31gfaWkdibHd2aJDTd2Oym/pvJvlg3q2n4kTdlzo2axVNx+Zu2FAPCMmaActLUoMH4XAuV1WNU7+D0uvuPSAGmO+R4hqSqjxaBTqq+8Tkpkey0yfeaGrWcRt17o2gqUBbvNGcRkN1SFzxOsSWJ4CY9aLYkDmXVzBgAyo4LZLJrBhsco3QkjzL1wTUQQPrNsfAofonNbEk0tbUJT9M7EB16qM8/o2n6kzaBrP6sqeBLrLcYn8pKe4Ebdb7pkCSWCZS+SH2zOVxbs1g+RJzKx3mLVuWcNasJZXPzUF2xbtmMV1dk9qgu/MX6eOjLTYyErxMQLAWB7UvQp4npfHxdRoDv9uDDJC3V6vblSuvJ5K0MDzt4Zmukdn8KvaN1qXkJMdlNbfwIAtE2ntU2nAYAtiWFLotmSGNAp9Yohg2oY67pMeoobuk6Y9T4pkbf0GV17ge72RUKZm/N1zfkssS/HJ5EdkI71XNcPVpHEAwBudC4v4TFzhcSjsbjanxOUIX7o2+lstZ+x+K68mK3A5mqrDwvXvaut+gT/OicrNEVskYooLVIjTy9PIklorhYFihcCgFypxo++4lkZNiOhDDdol5sQuTTA7OyPtuEksDhgmImxrJc36+XNAAXmHuFIlwiz/0p7S5D1R0PhC/hdLEYMigHd7QG4fYHeYOBKUc5Rc19nG/zlr+jHO4Hnwl/+iqrwOW7MFm39F5qqT/CObktFCpQOAFiWkBKL0cKa7mycZfxCm1+vTaXLPo0w632XnVf5y56nDpJRYYl8BKt+L95x1twYGNs9TJT7BS+RHCrLCjol80Ues4ArYnH4xg/coAxN+V/Y7sH4gSRbmjNGHkwg9KLizIewpfFCymSFiVVhAab8psnhF1YnWw2uyvaKE2T8p/jRS/z033KkS1hcmkA7bM8o3pKnxDvO8tP2AcdS54TFEwvv+1/xtm+4EZsYvtuwgUrV+ZcUX2Q5VkiWwAO4IuMHlshbP1zHT/sVvkgLcZdv0nvH8cfgBLq7XH/+kTDJLKffDJhe3qIfbdXLW1gib7Yklu0VQxqXYY5+pEk/3mnc4gssLtstmOUWzHYLNmgm1Jdf1XUUkvJzfJN5Sbt4Sbts+7pZseAkrO0fTnrvOD7lvQfW/mrtMnP5FwK6zvPqy6/p5YSjstmSaJefX7Hs6w5hwUV/yisiDEuujQha4PoBADcsy+Xxm4K1bwNn5pUhyPiPu6AfLDQJT1Q2/ulqBT7l/QfvNZd5ocFP/oXrE7d4i3cDAG/J09wIx8eWpWVBVKSy8am2kbGDN6tIJ9wefOi+Pctt2WA2v2DdV1muAWxPSwMRDmQ+JTRFGqPl9OMPkFbrIGhZiMEs46WSwzs2OPDUzv/fLCwJ+Rz2ixkpv8xIsT8w8r8O81mRtgyPVsoGb8kGK2WDfq7i5EDpqvBA6sZghGUWRHMGYQ8Lq1OBsAEkodODJHR6kIROD5LQ6UESOj1IQqcHSej0IAmdHiSh04MkdHqQhE4PktDpQRI6PUhCpwdJ6PQgCZ0eJKHTgyR0epCETg+S0OlBEjo9SEKnB0no9CAJnR4kodPzf/gRyJAxguabAAAAAElFTkSuQmCC;" vertex="1" parent="1">
          <mxGeometry x="800" y="220" width="50" height="50" as="geometry" />
        </mxCell>
        <mxCell id="KUXXl5ssxniQ1RarXrmG-42" value="" style="shape=image;verticalLabelPosition=bottom;labelBackgroundColor=default;verticalAlign=top;aspect=fixed;imageAspect=0;image=data:image/png,iVBORw0KGgoAAAANSUhEUgAABA4AAAQOCAIAAADUvO0XAAAgAElEQVR4AezBb+z3+33Q9cf7/f21sI21bLItg2U4jSQOkAQjYoAQ7nEH1Dv8ucUNExMTzmGaaOINveUNA4kxEhM03nY7S4wJ8U+CASOBtevWqIxRnK5XTwvFdaecnv7beq7f9/3yuj5bBhmsy6lp03N+z8djzYyIiIiIiAi2iIiIiIiIyxYREREREXHZIiIiIiIiLltERERERMRli4iIiIiIuGwRERERERGXLSIiIiIi4rJFRERERERctoiIiIiIiMsWERERERFx2SIiIiIiIi5bRERERETEZYuIiIiIiLhsERERERERly0iIiIiIuKyRUREREREXLaIiIiIiIjLFhERERERcdkiIiIiIiIuW0RERERExGWLiIiIiIi4bBEREREREZctIiIiIiLiskVERERERFy2iIiIiIiIyxYREREREXHZIiIiIiIiLltERERERMRli4iIiIiIuGwRERERERGXLSIiIiIi4rJFRERERERctoiIiIiIiMsWERERERFx2SIiIiIiIi5bRERERETEZYuIiIiIiLhsERERERERly0iIiIiIuKyRUREREREXLaIiIiIiIjLFhERERERcdkiIiIiIiIuW0RERERExGWLiIiIiIi4bBEREREREZctIiIiIiLiskVERERERFy2iIiIiIiIyxYREREREXHZIiIiIiIiLltERERERMRli4iIiIiIuGwRERERERGXLSIiIiIi4rJFRERERERctoiIiIiIiMsWERERERFx2SIiIiIiIi5bRERERETEZYuIiIiIiLhsERERERERly0iIiIiIuKyRUREREREXLaIiIiIiIjLFhERERERcdkiIiIiIiIuW0RERERExGWLiIiIiIi4bBEREREREZctIiIiIiLiskVERERERFy2iIiIiIiIyxYREREREXHZIiIiIiIiLltERERERMRli4iIiIiIuGwRERERERGXLSIiIiIi4rJFRERERERctoiIiIiIiMsWERERERFx2SIiIiIiIi5bRERERETEZYuIiIiIiLhsERERERERly0iIiIiIuKyRUREREREXLaIiIiIiIjLFhERERERcdkiIiIiIiIuW0RERERExGWLiIiIiIi4bBEREREREZctIiIiIiLiskVERERERFy2iIiIiIiIyxYREREREXHZIiIiIiIiLltERERERMRli4iIiIiIuGwRERERERGXLSIiIiIi4rJFRERERERctoiIiIiIiMsWERERERFx2SIiIiIiIi5bRERERETEZYuIiIiIiLhsERERERERly0iIiIiIuKyRUREREREXLaIiIiIiIjLFhERERERcdkiIiIiIiIuW0RERERExGWLiIiIiIi4bBEREREREZctIiIiIiLiskVERERERFy2iIiIiIiIyxYREREREXHZIiIiIiIiLltERERERMRli4iIiIiIuGwRERERERGXLSIiIiIi4rJFRERERERctoiIiIiIiMsWERERERFx2SIiIiIiIi5bRERERETEZYuIiIiIiLhsERERERERly0iIiIiIuKyRUREREREXLaIiIiIiIjLFhERERERcdkiIiIiIiIuW0RERERExGWLiIiIiIi4bBEREREREZctIiIiIiLiskVERERERFy2iIiIiIiIyxYREREREXHZIiIiIiIiLltERERERMRli4iIiIiIuGwRERERERGXLSIiIiIi4rJFRERERERctoiIiIiIiMsWERERERFx2SIiIiIiIi5bRERERETEZYuIiIiIiLhsERERERERly0iIiIiIuKyRUREREREXLaIiIiIiIjLFhERERERcdkiIiIiIiIuW0RERERExGWLiIiIiIi4bBEREREREZctIiIiIiLiskVERERERFy2iIiIiIiIyxYREREREXHZIiIiIiIiLltERERERMRli4iIiIiIuGwRERERERGXLSIiIiIi4rJFRERERERctoiIiIiIiMsWERERERFx2SIiIiIiIi5bRERERETEZYuIiIiIiLhsERERERERly0iIiIiIuKyRUREREREXLaIiIiIiIjLFhERERERcdkiIiIiIiIuW0RERERExGWLiIiIiIi4bBEREREREZctIiIiIiLiskVERERERFy2iIiIiIiIyxYREREREXHZIiIiIiIiLltERERERMRli4iIiIiIuGwRERERERGXLSIiIiIi4rJFRERERERctoiIiIiIiMsWERERERFx2SIiIiIiIi5bRERERETEZYuIiIiIiLhsERERERERly0iIiIiIuKyRUREREREXLaIiIiIiIjLFhERERERcdkiIiIiIiIuW0RERERExGWLiIiIiIi4bBEREREREZctIiIiIiLiskVERERERFy2iIiIiIiIyxYREREREXHZIiIiIiIiLltERERERMRli4iIiIiIuGwRERERERGXLSIiIiIi4rJFRERERERctoiIiIiIiMsWERERERFx2SIiIiIiIi5bRERERETEZYuIiIiIiLhsERERERERly0iIiIiIuKyRUREREREXLaIiIiIiIjLFhERERERcdkiIiIiIiIuW0RERERExGWLiIiIiIi4bBEREREREZctIiIiIiLiskVERERERFy2iIiIiIiIyxYREREREXHZIiIiIiIiLltERERERMRli4iIiIiIuGwRERERERGXLSIiIiIi4rJFRERERERctoiIiIiIiMsWERERERFx2SIiIiIiIi5bRERERETEZYuIiIiIiLhsERERERERly0iIiIiIuKyRUREREREXLaIiIiIiIjLFhERERERcdkiIiIiIiIuW0RERERExGWLiIiIiIi4bBEREREREZctIiIiIiLiskVERERERFy2iIiIiIiIyxYREREREXHZIiIiIiIiLltERERERMRli4iIiIiIuGwRERERERGXLSIiIiIi4rJFRERERERctoiIiIiIiMsWERERERFx2SIiIiIiIi5bRERERETEZYuIiIiIiLhsERERERERly0iIiIiIuKyRUREREREXLaIiIiIiIjLFhERERERcdkiIiIiIiIuW0RERERExGWLiIiIiIi4bBEREREREZctIiIiIiLiskVERERERFy2iIiIiIiIyxYREREREXHZIiIiIiIiLltERERERMRli4iIiIiIuGwRERERERGXLSIiIiIi4rJFRERERERctoiIiIiIiMsWERERERFx2SIiIiIiIi5bRERERETEZYuIiIiIiLhsERERERERly0iIiIiIuKyRUREREREXLaIiIiIiIjLFhERERERcdkiIiIiIiIuW0RERERExGWLiIiIiIi4bBEREREREZctIiIiIiLiskVERERERFy2iIiIiIiIyxYREREREXHZIiIiIiIiLltERERERMRli4iIiIiIuGwRERERERGXLSIiIiIi4rJFRERERERctoiIiIiIiMsWERERERFx2SIiIiIiIi5bRERERETEZYuIiIiIiLhsERERERERly0iIiIiIuKyRUREREREXLaIiIiIiIjLFhERERERcdkiIiIiIiIuW0RERERExGWLiIiIiIi4bBEREREREZctIiIiIiLiskVERERERFy2iIiIiIiIyxYREREREXHZIiIiIiIiLltERERERMRli4iIiIiIuGwRERERERGXLSIiIiIi4rJFRERERERctvh6Gi+NXzGMX3IG46UxGIPBMf6RERERERHxDbFmRnwdDYftpYVhGZbLsBjWGS+NWW6LmbGWGWuWLSIiIiLi627NjPg6mpllYcxa45dtwzIsLx2zLeOl5ZfcuYmIiIiI+IbZ4uvpjLX8krVmFntsjPvMrDFzx7K8sI51nrt7YexhcEREREREfCOsmRFfP2dsjFnW8tKwMGYxLOvM7LWG5YVhYVgctoiIiIiIb4gtvo7GXmONPWtxZ7w0XlpYZ4y1lmMZB2u8MO4c24iIiIiI+MbY4uvqWF6Yxbg5WGPxuAZr9p5lcbaxbGcwWDezDXMXEREREfGN8CC+jn7sM196/cu/+OkvfeX//PwX3vrK+uJX1k+99ebyfi/sX5jz/tvx+7/nN5/9/Dse3vc7v+Nbvu9bf+MPfMv7f9/3fGDP3bphlmWJiIiIiPhGWDMj/gnDMqxhHbaXjtkWHsdeZ8/2wvLIgzmz9lvP7z/2mc996Oe++Nc/++W/++aXZnmHZgbzu3/zt/yB7/7g7//ub/tD3/2bP3C7eWH5x5xhzfbCsJm7dcM4ywtbRERERMQ7tmZG/FrOmb0XjtlnPd/eZ8yyztiLRx7wuef3v/L33/zLn/78X/n7n93zcF/3Pe5mr+UdOYd1s57vs+fw/vH4R7/vO//ob/vgH/ve7/z29691tu2YZa1xX27M3Ne63bmNs2bPskREREREvHNrZsQ/xTjLNqwzNhbDwrAOG69/8Rf/s5/++f/h05/9wttvr9uecWZu1jrn3BbLO3Of84C1j7k5s/Y57Lmd9faf/u3f/af+ue/6177r25dHNtsvGdaZWcuyzNzXuomIiIiIeMfWzIhfbZxlG2fNnjXGuq/zYBvWmOXHPvOFv/DT/+BDn/ni7LsXzsze65x123M/c1vOrLW9EzOzvXTc1+y19vG4PRxn2/PCuv+uD/6mf+d3/LY/8QPfgZn7cptlzX3Wzcxa46UtIiIiIuIdWzMjfrVxlj3Omm0xLIZ13PenfvEXXvmJn/0bn/kF636b233NtmdmW7PM/azbxsxZa3snZs7D7Mc11przfO+9Hm/zMGf2cme9wKxZv+1b97//L33fn/7+7zb3WbeFM7PXGrMsERERERFfgzUz4p9m7tY61libMdt66/n9z3/s//1vPvZzs8/teL7Wct8WjlmzGHvNzJpl3azjnTjOPsvmzM1+XLNua+5zm/ty+8ret7lvexbn4A989wf+vd/9W//gb/lNy8bMfblZIiIiIiK+JmtmxD9hWJyxl+Ps2bP+p0+/+epHfvat5we3dTvnzLIW9z3L2nOcWevhmOWlM/b2TqyZcV8eZo69ztjLmvV8zcN9z8NxBmst922vsx7fd/a/9S98z3/wu37rB95/89IZe4mIiIiI+BqsmRG/2gzrmFnrhs9/Zf783/nEf/3/fNaZs9yYGXv5x8zMWuOsWWtbx8yabXtHZp/1eDNz9ixrmZm19hqzxpm11oyzZ5uZtdaeOQ/n/d/7gfmL//Lv+APf821eOmwREREREe/YmhkZLy0vDeuwOWOv8ckvf+XP/M2P/9Rbb93mYZZvKjPnYdZ9r+Nxu/3b//z3/ie/9/swjrNta1iPM7dlWSIiIiIivqo1M562477ndl9uDGtYhz0s/vZbX/o3/urPfv75L87e6xx7+yZzZj2c+/32sM7j/bZ/zwd+w3//R37wg++7GZYXhuWlcZYtIiIiIuLXtGbGEzYsLxy2XzFmPS4Pr338jVc++syZWWfNNje38c1kuY/thWMts8z9fOA33v7yH/kXf+cHvm0WzpptuRy2iIiIiIhf0/a0rfHCuAwOB+s8/PCzN1756LMz7H07e9ZZa/kmc2bN3O8Lwzrjdrt9/u35Y3/t7/7057+4nDV7Fo4XZouIiIiI+GrWzHjSzrBsHPftZtyXH332xp/7yU8c5zbr3Nd6wJyx1/JNZfZtzuM625oZezljb4z9X/4r3/cn/tnfcmfN3lgiIiIiIr6q7anby3bZswzr/HefeOPP/eTPzowzc/Z6cDuz76y7bzLL/X57vmYdzrZmrbWdeXQeznnlI6//tx//7G32xgxHRERERMRXs2bGUzasY7blGLM+9oVf/Nf/6t/9/NvPZ81ayxmWbax1X27jm8mZ2W7jcVvruO/Btlh75vGs9X5/8ff+9j/5A9/FYYuIiIiI+GrWzHjqzt2+Yc4nf+Erf/ivfOzLb99xvLRm7DUza9baZ9x8M1njmM0xy4O5M7NwlvfPfu6sbf/n/+oP/Knf/h1rtiUiIiIi4te2ZsYTNs6yvXTYf/h/+djH/uEXbSzvZmscZ9a5zcNx1lr/xe/7gT/5/d+x1s0vGbPOmm0dtoiIiIiIl7anbc0enMF/9L//vY/9wy9gjfeG7WHm7HnAD33o2WuffHOYuQ/W8cI6x+KIiIiIiHhpe/LG2Pcf+/kv/6Wf+bnHveZmZrzLzZptmc2yzks3r37k2Y9+/I3lthh72Wa2MVtERERExEvb0zbu2/rS2+vPfvjjez8+nDE3735r1ozxaHt+u9/Wbc/DzLzy0Wc/8vpnZ+5rOKzbMOuIiIiIiHhpe9rWus3c/9Of/gef/IWvjBtu97u9vcvNmrNnz4Pj4ex5weO2j3nlxz/x2qfeGmMZFmu2iIiIiIiXtqfu/J233v5L//en91gzNw/3h3M/x7vewuz7cpsZ63a4r8dtr31e/fDPvPapN8d9MbYlIiIiIuKyPXGz/8P/4/Xl2Ou+5u5xnXlYy7vcOvu29jH3/bhmLXdmzZ6Zh3mwbq986Nlrr3/OWI6IiIiIiF+2PW1/443P//hnvmBua2zL3I7bMd7t9nP3ve1tvTDLtre99uNzj6zZ91d/4uOvPXtjbBERERERv2x7YsYLhzNeOH/hp/7BcR8POO5rn71e8i43brOPl9YsrFlmWed9zPF4mz0zr3z02WuvvzFz9yvGOAZHRERERDw92xNyjOWFPfbhb7/5iz/2xpvWw4P7zFnrNsMZZ7ynbQ8zZ88DfuhDz1775JvDzH2wjhfWORZHRERERDwx25OyvDCscXP+q5/5jPkND8fjOmdz2OuFWct71KzZltks67x08+pHnv3ox99Ybouxl21mG7NFRERExBOzPRljz4wX5o63Hv3o6z+/1/3uzHKbvQZzzn2t5T1qzZoxHm3Pb/fbuu15mJlXPvrsR17/7Mx9DYd1G2YdEREREfHEbE/FWSwLa90sr/3sZ85a9/U4t7VmzYy9sPeeGe9Rs+bs2fPgeDh7XvC47WNe+fFPvPapt8ZYhsWaLSIiIiKemO2JmO1XHJwffv2z65zb3NbdWsvGnDOzFuM9a2H2fbnNjHU73Nfjttc+r374Z1771JvjvhjbEhERERFPzfZkHHfLS8snv/yVn37zy7P3rDXLGnM/a+y9nXmY5T1qnX1b+5j7flyzljuzZs/MwzxYt1c+9Oy11z9nLEdEREREPD3b03Bf9tzmBSx/8+e/dHMzh1kzx1m322Hm3Hhc3rP2c/e97W29MMu2t73243OPrNn3V3/i4689e2NsEREREfH0bE/DdrDWcvkf/94bz9d9rcWy91ob66V93+sF71HjNvt4ac3CmmWWdd7HHI+32TPzykefvfb6GzN3v2KMY3BERERExHvX9jQs2wvDzDgf/syX99nOiH9ke5g5ex7wQx969ton3xxm7oN1vLDOsTgiIiIi4j1qezrW8cJan/7i/fNv329rzhaXWbMts1nWeenm1Y88+9GPv7HcFmMv28w2ZouIiIiI96jtqThm39dZc/9bn//CWu7bGnFZs2aMR9vz2/22bnseZuaVjz77kdc/O3Nfw2HdhllHRERERLxHbU/EbNywbj/15uM6c2aJXzZrzp49D46Hs+cFj9s+5pUf/8Rrn3prjGVYrNkiIiIi4j1qezLu67Dx13/+s+c2a5/bHPFLFmbfl9vMWLfDfT1ue+3z6od/5rVPvTnui7EtEREREfFetT0Ns87tbMzc3+dhzc2Z5SZeWmff1j7mvh/XrOXOrNkz8zAP1u2VDz177fXPGcsREREREe9d29OwbPtgrdvf/Lk3Z7H24xpx2c/d97a39cIs29722o/PPbJm31/9iY+/9uyNsUVERETEe9f2NIwX9njhzHI7Mw5LvDRus4+X1iysWWZZ533M8XibPTOvfPTZa6+/MXP3K8Y4BkdEREREvPttT8Py0mLstfa4r1nbEr++7WHm7HnAD33o2WuffHOYuQ/W8cI6x+KIiIiIiHe57ek4w/lbn/vSzJl128wSX9Ws2ZbZLOu8dPPqR5796MffWG6LsZdtZhuzRURERMS73PZ07DH7i2+ftTZmOCO+mjVrxni0Pb/db+u252FmXvnosx95/bMz9zUc1m2YdURERETEu9z2hGzLmTH7mLXWLPFVzZqzZ8+D4+HsecHjto955cc/8dqn3hpjGRZrtoiIiIh4l9uekmGvM+5jMSN+PQuz78ttZqzb4b4et732efXDP/Pap94c98XYloiIiIh4t9uejGEdv+eDv8nsvRz2jPhq1tm3tY+578c1a7kza/bMPMyDdXvlQ89ee/1zxnJERERExLvf9lQcM7Zv+w17Oay1rLXFV7Wfu+9tb+uFWba97bUfn3tkzb6/+hMff+3ZG2OLiIiIiHe/7YmYvdZw1uxZ1gxL/DrGbfbx0pqFNcssZm9mzZq1Zv3Zn3z2I6+/4YyXzriMmTtHRERERLx7bE/Ewh4O3/+t7z+zj8eZEV+Lmb2OfdZex+y1/Mcf/eRPf+HL48ys5XAOa93MFhERERHvHtuTMazZs3z/t/zG5b7WbdaIr8Va677nbs7MrLeP+dz9/PH/9WMf+4ePay2znTXLvCAiIiIi3k22J2NxX+d2fP+3v98ex1pLfE3O8cKah3n/2O87D876/NuPf/x/+1ufe3zE7LXnvl4SEREREe8i2xNybth+8Du/fe723I4RX4tZ1lr7rOf7EY/r0Xq+PXz+cf7Nv/Z/Wcx9uRkvjCMiIiIi3iW2p2Vzfue3v2/v2yzbEl+b48xa1iysWdttLn/7c1949SOvr7Vm4T4e12wRERER8S6xPRWHPS/Yf/C7Png83uasEV+TtR7sPWdva806Hmed2Wvb5n0//Imf+58//bnlcFseLBERERHxbrE9DWNjzVqO5Qe/49u/skf8/3DOPDwes1647Zm9x/FoHXu9+uFPvP7Fty3jiIiIiIh3j+2pOF7YzJ71+If+mQ8+MDPOcQ7DzJyZM3MY8evZe81trTXLmttaa5Y12+w13np+/3d/8lMz92WPl8YZDOOFGTMjIiIiIr7JbE/Dmu38f+zBDbjedX3n+ffn+78PgiYnBJwWJYnopTwksc50eEiC28sQnpydXTWAdmZb0dpes9sVBKe7U6uCnbm2XadrO9dEUGvdq0QLBNwaH8pj6wkqOVGhgiThoRpCHnimkJwkxOT+fz/7v//JkaAGOYcAd875vV5A0tM5a9YgaSIsWWKUWrYpGA9JKJOa4FuPPnXt+qdqEhsjh8haaWFbQjIFBQUFBQUFBQV9JpgkBIEJQM63vnrK1Fd07FSLUbYpGL+ECMlRpSr0kTvv374rhVBa4Ig6BMikKSgoKCgoKCgo6D/BZCKwQCk4+7VHdCyPAiQBtikYp0CZltVVAtt+Ep/90aNWF4cxSgUkLZmCgoKCgoKCgoK+E0wmJgV2B+L3j31Nl5BEyzagURSMR2L1YIHDUX/unoe2/wQLITeUCAgCUVBQUFBQUFBQ0HeCScJgBBjRM3vaITOnBpmyJQG2KXhBJOxMbInYTR0jtT/3T4+Lro1UyUYIEuOgoKCgoKCgoKCgzwSTQy2SRlhYaVLoD2a/rkK2SUsBAtmQpmBc0oAUAWkp0vblP9q0ZbcCDKhKDAghCgoKCgoKCgoK+k0wOVRk0CMSQgTi37528BWHDnQUFBwYjpBUJSThTmKJkd1cvf5xhEggqAHRSAoKCgoKCgoKCvpMMFkEohVir8FDOhe88dW1Kkm2JdkZrsKiYDxEQ3UgyZFSgIDP3vsIBgLSdDBuEBQUFBQUFBQUFPSZYHL73WOPGnyFEiQsA6lut6opOJAe3vH0XVt20hPGxkiioKCgoKCgoKCg7wST27SBzh+c8KsStju1Gh13pIqCA6lLXLP+YduYwGpQUFBQUFBQUFDQj4LJzfAfjj1q5mGHhTvdykC3qkkKDqhA123agkTDQSNNQUFBQUFBQUFB/wkmN5nGp0+alYFqZ6ZMxxQcUIk37di9aftPLBCQhCgoKCgoKCgoKOg/wSQn5Jj/K4O/96YjXakTnaipKTiwAiW+9bFt9KQtU1BQUFBQUFBQ0I+CSc6gRHxkzoxZh7wiyW5AUHBAKW35O49tlWmoAaagoKCgoKCgoKDvBJOc2GPKQHXF//DGNAPGpuCAyopAm7btRglBw4iCgoKCgoKCgoK+E/QP0zAtY8BAsg+TafZITE8CppE24yYzd/or//vJx9RYttxIZThlp2xqmYLxc7Xy8S0m6ElEQUFBQUFBQUFBH+rQT5Ld4QHURR0BSoiRp3fe9oNHb/vhxoee2Llx45MzZ04/6shD//W/fM38t8x65WGBA9EwISUEY2UQKG39+2P+xfAj25dteNwYiayBkJ1ioNbuisoUjFnHsVPdqvb2nUw5FGwEBlFQUFBQUFBQUNBXZJu+YixkjFP6+tCPvvK1Ndt+4tq7O+5AOqqk7iSHvvKQC87/Vye/ZQY9aQIQ42FSBCQZBP/2ljXfe3i7FEniKpQg2xKWKBgz2QkR/vJvvOmtvzIdECQOREFBQUFBQUFBQT8J+oMB02MLEJIv/+vbvrRszY6dNXUOMEBFHdjdKqOWdz5d/+lnv79i+AEbCBkxbpGmJ2j8zfzZcw+fCoaUsQErMikYn91yINcaEBhIm0AUFBQUFBQUFBT0maA/iB6zizBguOZr93x71SZFtyapIgl360AVAYRV4w7+70tvWzG8HoOSsTOQFhkCAkg87RAvX3Tc8dMPhaiUokpHOnBQMB6VsbDYnQMCgURBQUFBQUFBQUEfCvpF1yAOgbD96BM7rrr+XotuGghnZB0RibuyI7MS1EDgy794xy3fW28wYyZAIqNmNw0TCMdgaPlpc+YOTunKqV2oDmUgCsYjkJ0Sw088hTABmIKCgoKCgoKCgr4T9IuORGJA6Jqvr82oTTeiA1WNCadCJqiiDnUJy5aIGi/5wh3fXrVBjItwUFG5IUw3ZYemh//2jONnTz8sqIXQLncAACAASURBVIJIqlSXgvGwkURii54EREFBQUFBQUFBQd8J+oYhcFKj/N4PHzokO7hS3YW0qLGyBuxuVo6IOnDYFtQ5kEv++vahlRsYs4SUwSGUpNwJC9KqpktfXzhnzrQpdgoHomB8DHLoyM4hkNiAbQoKCgoKCgoKCvpM0DdEI4Jq3aYdO3burnEqMwTINFK0ZLumlrGdShDpWiz54veHVq43jeQZyXMJCAQCUREIhBymdmhqJ5YvOnbOEYdFjYXcSGU4ZadsapmC5yYpSewTpr8CQqoAyYyLAbOXKSgoKCgoKCgoOICCfmIbePrpp22rxRhdtvT2FcPrIGgYjAlIxi6oZGQGO9Xyt80+4YjBqLEghGqUIdswUKsWBb+MJWPRysQ4GAcjQGAMxhQUFBQUFBQUFBw4QT+RBGSmJMYlFZcvvWNoeB0NkbIMBGNUKwErESTTOtXyhW884chDSUcqMQ4ckuhKkRT8ElJFYBvSVqBajJXBApPYQiAJU1BQUFBQUFBQcKAEfcZ2RABuMUYVrtGSpXcODa+ryUCMS+XAkGGyjsRMG6i+unD23MOngiFlbMCKTAqemwWunfGW6dNwSAYqxkxG8Ncbvr9+51MytgGLgoKCgoKCgoKCAyXoG7YZZZvxyzCfuWL1t4bX0xBm7JQIRUIEEGCmdqrli447fvqhEJVSVOlIBw4KnovtjlHk1I4RZpwsMN/duunSNTes3/mkJEAUFBQUFBQUFBQcMEHfkARIsi2JcTFpWXJSL1l659DwOkAkYxaACZFkmKQ1GFp+2py5g1O6cmoXqkMZiILnYlHjU488HMl0lWHAjJXgkd3bHtu5bZv86XXDO7q7MAUFBQUFBQUFBQdQ0E9s88IkVZXqKlMJXL70jqHhdSYYIwNO0QgJEQhTOzQ9/LdnHD97+mFBFURSpboUPBdZFZoxRaaGjgNjxuWJXTtsU+f6HU9eet/NO+pdFBQUFBQUFBQUHDhBP5EESLItifHIVMhUqMI1uuyKH6xYuZ4xElhBTwI1iQlXkFY1Xfr6wjlzpk2xUzgQBc9FUleeO31auJIRBEKMmbnrqQcJhTH8ePsTH7vvJgoKCgoKCgoKCg6coP84Bdg1BOORoBrXGDLFki/ePrRyvWkkz0iek9gjEBWBQMhhaoemdmL5omPnHHFY1FjIjVSGU3bKppaZhGynnXaCwWSSWaWlOPXVr7K6CEiM2T9TA2ZfBsP6nVudcshCVOt3bPn0umFMYsCAaRgwBf0rbRp2TU/ykrAN2GY/7BoSEpKxMAUvTPI82ObZbDPKNs+b+TkGg2nYZtJJ9komENscjMxeBgMJyTglJAazlzlY2AZs8zMMxjbPZpufY5t92AZsfso2YJufMpiGbX5WQkJCMgkEk8NlS29fMbwOgobBmIBk7IJKRmawUy1/2+wTjhiMGgtCqEYZsg0DtWoxydhWi1GWLHWrnFpp7uGvlDskNYEQyf4FIPawDcgg1o48okY6jEVj6PEff/qBlYFsJ1hgGhYFfUzCtlTRE7wkJPGcpAoCAoLnxzYgCl6YsM0ouyaNgTRp0qRtSTybJEZJ4hexzc8RP0cgELYl0bJNTzLKNhNK0rLFXkH/sc3zY5tRtiUBtjm4CEgaAgEBwTgFBALRSsTBQoi0JIN5hpVWIgG2GSWJlm3ANiAJ0q4hAUm2JX5Kkm1J9CSkhcU+EhISsAMCwhaTQDA5pOLypXcMDa+jIVKWgWCMaiVgJYJkWqdavvCNJxx5KOlIJcaBQxJdKZJJyTaj1CL1P844wsKGyIqWg/0R4hmSAOMHnt4ysvsngBrpMEorYujRdUvuv1VSZQQpy4iCPieJUbZ5kdmmJck24BbPZps9DMam4RZgGgnJKEk0TMELI8k2YFuSQwgIpeQQISkxJMY2YNOwTcs2o2zTMiC5BdiGhGQ/DBYm7dq2JHqCUZIA24BtDn62AUn0McmQkLQMBgMJxjYkJCSS2UuSbUCSbQ4yAdjmALFNT9CPkpZt9pEyIUBGZg+DCBHYgCTbkJCAbUASIImWCVRB0JJkm56EBCTRMDhwCDANSbYhICBsS9gGJNlmouswOVS4RkuW3gn8xvxjKoJxqRw0HI7MoMqYNlB9deHsd/7DfWu2bIOUK4NkRaZDTDq2AUmAbVqBFvzqVKUdwmFlQuVA/FKJw0Igrd76sCQLmW5QAVLtDGnF4+tl/vc3nCoIZCGDKOhLtiRsS6InJUC8mCTxcyTxbJJoWRgHAiRhMDJE2JawkdhLFIxTQtCSBEgCiVEh9jCBkBBCJlFs3PTgxo0Pbtyw+YGND0na2LPJdlVVdV1Lsmj5dbNmHH30ayLi6KNfM2PGjGNmvnbmzKMZZTC1kECELYlW0hO0bEsCJAGSOOiFhG1JtiVB0hP0l2AfImk56LFBEIBMj7CtFi1JHEQMwrYQaUL0JARjkxA00pJsS8Ig+kzQkmRbEmA7JNuSEA3bkgU4EJKTFNVdd9+3dcv2tWvveWrLCLB69eqRkW2ZGRGZGRFOoQQOHxycPef4CGzPnn389GlTZsyYMXPm0YAAMSolcBgkMUoSIImWJCa6DpNIhuMzV6wGFs5/A8IgxkgJIaWJIAkwUzvV8kXH/U9Da9Y++XSlTKq0aTiQmUwkMco2LUk1+W9ec7iFDEJEAMFzMGBLCoSwLbRm5BEBaasn0wOK3TbC9oon1mfogmMWyKQIIQr6kyRAEnuFQby4bEuiJcm2JEZlZkTYloRpSAgxylgyAkKSbUnslfQEBQeYbUm0LLaObP3hmvtWrly1ds19mzY+tGbN3V1nRNCT9ASjJLkB2JJWrrpdVJkpyYZIhWcff9ysGUe/ee7xC+ad9GtvnjN1yqtoCTAIWw2TIgBJtiUBtiUxIUhilAmbEP3GtiT2cNCSkhQRgI0EAhJCEmBbEi3bkjh4SLKtkMFGCjE2JmwkFLItib5kW5JttQDbkmwkAbYlIRlt3brjrjX3rFr1vR/etfbutfc+sGmzpDpT4YYkHJKAzIwI2wqTbkjVdTd906mIsA1IMvWsGUfNnDlj9pxjZ848es6cOb92wnHTpk1FCGxLomUjsYdtSUx0sk2fWX3v45f8t1voCUgOhMC16DhspbjgvW9ZOP8NkBCMnUGkM4iUw0LpJ+3FN9+zeus2SIiQyQFHMrmYlm1AEmng7TOmX7HgTVZX2SEwKYeF2C+DaBkLgWHx978USGAQpHCdEWHRCGN74atf/8E3nGpbEgX9KW01ANuSLrnkT+5ae7epeDHJPREBZKYk26eeeipK2xHYnjHjtTNnzbA9c+bMY2a8hpZtSYBtSfQkLVsNwCAKXrCkZRDYlqotW0ZWDn/31uHbVq68bfXd9+AAFG5IToyDX0SSWxEB2JaEDdiWZFutzIyIzJw1a9app/zr+QtOevtZp02b9ioRgI1Ew7YkwLYkJhDbkoBl13zl6mXLrYSKfjI4OPUtb/61dBcScu7s2dOmDc6YMWPWzNcAtiUBtiXxi9iWxEEjIWgZPn7pn6xecy89YmwMzJ1z3H/54z8SP5UQ9Cvbkvg5K4e/f90NN68cvm312vtwoKQn2SsYJck2IMk2YHok1XXd6XScCUlDFbYkwDajRDXjtb8yZ+7xpy44+a0LTpk9+1iR9AQ9aVuSrQYTWofJIamqzG6kEMTlS+8A3jb/DWJsDHJKASEBgTA1UU13/u0Zx7/zm2vueXInKAF1RTCppK0eQBKZtjuK33z9kQhlhYA0lhDPRfys257cGAjbkiBFGCJsYypTV8IMPbHe4oLXn5o4EAX9SYBtSTZ3rbn31u/+wLzIbEk828rv/SMt25JsS2KvPProo4+ZNWPG0UfNnHn0WxecMnPGa2fOPNpgR4iGxB6iYNxsS6JlC8lm68i2G264+fobhv7uxpvFAGBqSSiBTEuyJVe2JaHkZ9iCiLBNw2aUJCAibNd1rYikJnhg4/oNmx646svLQ5pzwpve8+53vP2s02fNPJqWJNtqMVHYVgswbNj08PCq21OYPqO8/uZ/kKNR17UkHDSU8+ad/LqZR82dc9yCeSe9ee5sSHqCUbbV4uBks3rNvStX3Q6YsRF72Uj0M9uSbEuiZXpuuOHvb7hp6Lrrb9oy8jQOhWkobUeEHbRElZmEAduApLQBNWzAmZ2qyrqWBEEjJUXWKQmEklZq9wObH9z04KM33HhLkFOnvmrBqacsmH/S/AUnv3n2cRASkJKY6DpMFpkKua4QuEaXXfEDHAsXHMNYCKwQjYSoycoRVFZa1XT56wvnvPMf7l391IgayEx2HcUrDh14+2uPIO0QtogADOJ5EaJn1VMbBAnBXgYLJFzXBCAJWPHY/ZI++LoFiIK+JGFbkl2jipAJkbyoJPZDEq2IcEsS7mze9MjmzQ/R+n/+4rOSpkyZ8pY5x81fcMqp809aMP9EetK2JAgKxkMSewXimmVfvf6mm6+7cQWtiE5mrQgsM0oy2A51JVpBy7YkRmWmJCAibAO2JQGZGS0aDkCAadhes/bHH7/0U5f88X+dffyb3vOb5/wv737n1KlTJTGxSLItCRICSMKk6DMOQFJd15JsS0lPrlr1ve+uqpZd841KnjL10Pnz55199plvnfeWWbNm0ZLEwSfYK6WgZUIkY2FCJCABCUFP0GdsSwIk0dq46eFly5Zdee31mzZt4qeUaVDK0bAtKW3A1FQpB6OcGRG2sRllWxI/pa5BEWCzl+0gImTXiBq2bN/xdzcMXXfjCpGzZhx19lmnnzr/pLPPXiQmvg6TSIJqTI9TLPni7cDbFhwjEoK9EoL9E3sEoiIQDTlSNVFNDS1fdOw7htbe/cTOrJCdONxJjOpAznBlMVEJatMJlKmQavv33/RqGiEBEnuI52AQPQYZi8Z3n9pokGR6ZBoyrQpB2qFO0oWhx+536oLXz085kEEGYZBBFLycAhACpAqwEcnLxzYt24AkGkqezfbIyMi3V/3jt4ZvDxny1Pknn33WolPnnzxn9rECxKikJyh4FgO2JFo2oiflDZse/vznr7hm2Ve2jDxNQ+xhWxK2+FmSQDybJPYhiZZtWpJoSbLNfpgaYWvN3T+65NJPXnLpJ99z3jvf8+53vnX+iZgesS/bSIAAgzhYSKInRI+Vok/ZlgRIYq8ATI2oYcvI0zfcNHTDTUOGObOP/Q+/+9v/5uwzBqdOESAgIRhlegQYRL8K0ZBBJGMk0jQkGkG/SPYKwCCJvXLDxoc+9eefverar5gQybMJcAC2AdtilIN9SLLNPiTxs4JRYi9JgG1aAuwQYOCBjQ/95V9d+fn/928GX/XKt7990b97z+J5805MqEg7pISgYVBCcJALJrfLlt6+YngdBA2DMQHJ2AWVjMxgp1r+ttknHDEYNRaEUI0yZBsGatViglKkXIVdY6pMev7drF9ljETLCBDO/ME/b9zZ3c1+iL0CdXEH2V7xxLpPP7AykO0EC0zDoqDgBfDuKhIwcevwbR//xCdPO+uck+ad9bFP/N8/XHuvaaQtCEbZZl8GM7HZ5tlMj4ykxKZHSovvrLrtAx+4aN4pZ3z+C1/asm27okZd+ozkZdcuX3zu7yw665yrv7w8ZUgMpmFQgxQ9VlLwchK5du19H7r4EyeefMZF//EjGzZtpicwkLREYgNJwUsl6QlbELRE0pPrN22+4OJLTpx/1pXXfFkN039SEuE62bp9x9XXfu2di3/75HlnfeovLiMl8QwbgoNfMLml4vKldwwNr6MhUpaBYIxqJWAlgmRap1q+8I0nHHko6UglxoFDEl0pkgmqRkSGK2GSgHe/4ciZUwYYH7FHKG785x+ZYD9S9EiZSagbdJDtoUfXLbn/VkmVEaQsIwoKXgCpsoUDwgSSYcODD33uC186/cxzTjz5jM/91VWbNj9k15C0JEEaTEugZOKyLck2+xBdwPQEwrXhO8P/+I7zzl983nu/cf03kzBYmQnu0GeclSQr71x9zwc/9EenzDv76qu/hkAJCOyaDExBHxADNKruU9tGrrzm6yedcvqHPvzRDRsfQgkB2DUOIdsSBS+RoCWJvRLb8Gd//rkzTj/36muXI5lwKkj6jFQBtiWnbcgYuH/jg5/6s08TAmwDtgkxIQSTW4VrtGTpnUPD62oyEONSOTBkmKwjMdMGqq8unD338KlgSBkbsCKTCavKjhxd1YSkTPg/Z88y42HANAyP7tp22z9vttgfmUgDgjCNLu4gpBWPr//0ulstGoEsMAUF42cwKCxSpDNDciZg2PDgQx//xJ/++ilnvP8DH145/I+mkYAdAtyoDSaYuCTZlmSbZ3TsWqKVGzc9vPi89y0+732rVv4AQhVWCuSQhJJ+o25mBlVQhTrrN2760P/x0V+fd+aVy75hGikqAmNABAUvp9Rug1OAgCquXLb8pAVnfuzS/7pl6zbbUoVAqEHByyRNrF7749NOP+fP/vyyrdu34Z6IsLKOpM/YBgQhh2xqRS3ZGqAnpcpGEmAzAQQFGeYzV6z+1vB6GsKMnRKhSIgAAszUTrV80XHHTz8UolKKKh3pwMFEpcy0BF1D9e+PefXMVw2IZKyMAFGDzC2P/dgh2+yHbaqgZZt0RHSDhu0VT6xfsn6lAZNgUVDwgkjKTFqSsibUESlwAwhfd9PNi89936Iz3n3VNV83SEBKlipsJjpJtiXRsg0pVcCWka0XXvyxE+efdevwbThs03AdEg4ckuyaPmOike6iRAmktWHzwxf/wUfede77hlf9AKVdS6JhCl5eDhq2wD1CSvsvv/ClE09edONNQyYhISExBS+RtI3BQJr4s09dfvqZi1ff80+Qdq2Gw5k0HPQlSbjjrMIDrhEo3KAlsYfEBBBMbiYtS07qJUvvHBpeB4hkzAIwIZIMk7QGQ8tPmzN3cEpXTu1CdSgDMUHZ6SplRURm/QdzjpIxYycaNVSA+Icn7le6QuxPKG1sJIca2EpbEAJueXTdZetuRYQtCgpeADmcGRH8VDipTQAhCeQwkaG77ln9oQ9/9OT5Z1x1zVdMQLhOITHxSWKUJByQV1+7/NdPPuOqa7+RNqCwJHqidjepCdeJ4hD6T9qSAO0BFbY1/N3b/+dz3nvBxR/bOvI0YBslBS8ngUBUOCTZFigMPDWy7b0fuPB9H7hwy9YdELZQUvBSsNUwRvnUlu3v/50LP/XfPlML0YWAgERdNRyi7xiQnGKUJLck84xkoggmt6SqUl1lKoHLl94xNLzOBGNkwCkaISECYWqHpof/9ozjZ08/LKiCSKpUlwmqG1TuWE66v3/sa2a88lDGxYwytzz244e725HYPxlnIoVU1RYYkEhXtVMYhp5Yv+T+WyUlpqBg/NSNwK4hDQbbkgC3JAOCzMRhWL/xkQsv/ti7zj3/O6u+TxWISWjjps3vOuf9F1z00ZFtOyDlAOwadQGnKg4BbEu2a/pMSLi20pA1OIDMlJS2IpZd842TTjn9uuv/HskEBX1A3dTutKuqopECDIbrb/jWojMWr15zr5UQFLwUJNlGenJk5+Lz3vt3NwyZMDXuAJItUJW2wvQfAbaVSW0lSruWTE9AMOEEk12mQqZCFa7RZVf8YMXK9YyRwAp6EqhJTLiCtKrp0tcXzpkzbYqdwoGYoDrINmjawCEfnnu0JIQIxkj0VGB81UN3dhLsFPtjoQiLOjNDKURLWYuGJGDFY/d/ev3KsCgoeAEiExMQAkFI2AJJSGmZnpAqIxCpiO8M37b43PMvvPiPtmzdZrpMArZp/dXn//ptZ55763dvrxApbKraSqmCAKLC1FWEQKRI+oxtqVJ25FDYSgNS2jRcO7pPjWx73+9d9P4PfHDr1m0UvLySngiqkDK7kiENktxQbti86V3n/tZNN3ybgpeKkfzUyI5zzvmt1Wv/ibBzV3gAdQFnpezYioi0UUVfCkkgekKHOCv2MK00E0dQkKAa1xgyxZIv3j60cr1pJM9InpPYIxAVgUDIYWqHpnZi+aJj5xxxWNRYyI1UhlN2yqaWOWhUSU+mZdJkdrGobSxD/Z9OmHn4gAwm+aUMxjaj3KDnlifWPbrraaUlsX8yDRlJgIzpEZUaJnGkHRp67P5P/vhbO7q7DKTNM0xBwfOjBr+YQCD2SiEJsC3JxLJrl//6KQs/+/lr3YDEkJiGbfZhmz6WGLAZlewjMSBp69Zt53/gwo/88Z+PjIwAKVCq4ZDDNi3bgG16AoLnzTYkYFsSoyTRkHg2SYybEiUgEAgEohFy0Lr+plsWnnnuyuHbTCPZD9sUvHiCZwlbEALsiJBkYuu2ne/93f/1ymv+jr2SZyQF42XsmoZpGGxjUD659SfvOue3Vq+9j4aNKishaChRisQW4Jr9SBuJUZIA87MksYcDBz/HgGSw0korDeaXsM0oUys8d/axNEQrRDBRBAW/wGVLb18xvA6ChsGYgGTsgkpGZrBTLX/b7BOOGIwaC0KoRhmyDQO1anGQqElwWDIWRFTGGTRC8189+HvH/4sutYwc/DLGFki2aakBhqs330XaVeyWO8n4RLpSOBSmK3/vyY0fve+m7fUuQmKUEQUFLwLbjBLYGhnZfskn/vO7znv/li0jYUFY2EiCZJQk+lggQGJfbtATFnDnmntOO/Md19/4TZEcKBIttQBJEAaktNNGQqozDaa20kokA1JSW8mLQ1Jd15s3b37Hub/9+S98yQ5G2TX7kETByyAiMtO2wLZUfejiD191zVcT24IE7BqCgnEySBWk6RFIQrll685zzv3NtWvvSRtQA2wzRpIyE4lWZkoWaTBIAtyipahRFxJSEqPkcKZADjnkkEMOxmhwcBCwzYQTFPwCqbh86R1Dw+toiJRlIBijWglYiSCZ1qmWL3zjCUceSjpSiXHgkERXiuQgoQoSd2QjQa0AgkAk/9e/fB3QYQBhdXkOxraQDLYk00oM337sx4/t2g5kZpgUYyV6MpQNYXvAsti4fcsn7rlpW70LMGAQBQUvkgQEokcShFTduuq2k045/fob/x4QSNjGYRuwTX+zaaVtegKQxB5m2bKvLj73tx/Y9IgJDhzbkgDbmSnJYBAIBFUENnYVgR1UpOTADglbDjkk2ZbEAWW7qirbaOCjl/zpRR/++FNbRuhJSYBtwDYFLw+7DkkgyT2KOORDH/5Py65ZLokUDVU0TMG4SLhHEj2mYbjw4j9cvfaf0oro2JZkOyTGSI6gEj2SJdmyRavONCjCYEgrLVSZMJG2IW0kszuChiQcblCjriTbknh+JNmWBNhmAgkKfoEK12jJ0juHhtfVZCDGpXJgyDBZR2KmDVRfXTh77uFTwZAyNmBFJgcNOyQyDQ6kSNS1Af/nfzVz7vRDbdckIILnJtEQSBilMZZ30P2bB++wrVaFbDNWEjYgCOMQUNVu3L9jy6X33byju0tgUVDwYpEqwDb7MAi2bN9x/u9e9KlPfYaWZGxJtiXR3yQatho2z3Bt+Ngf/8mFF//hyNaf0JNIHDBhWxIQEXaNUmFD2gaDAanOVERmKsJgSNtgMGRmRGSmbQ4E27RsAzKGK7/8/y0+7/ytI9txQBgk2ZZEwcslaNmOCCBt07nk0j9ZveZeQpACu0YUjJ8aJm32+NwX/ub6G79pOhGdzK4k25JsM1ZKhTNTki1aaoAgpJCwBSGFLMAWCLAFIeEaVWkZ0rYSCclEZkZEZtrmechMSYBtSYDNxBAU7E+G+cwVq781vJ6GMGOnRCgSIoAAM7VTLV903PHTD4WolKJKRzpwcJCI2gkEQXTpguxXgOe9evB/e9NREJKrDMAW+2dMQxiwaYQsJH1t8+rHd+2sjKTEaSMxRoklJUayTRqpG9SVEq8fefLS+27e0d0lekxBwYvANhARttlDAgykgE/+xWXnf+CDT23dYosQIAmwzSjb9CVJNhKtpKHqQxf/0V9+4UpXHZQCgW0OEMmAbcA2hBxOCUISCLCdWUU4MyKciR2SQCAQSMpMICJs88KoZZtRQaJE1V1333PaoneuXn0PIHokAbYZZZuCl5QkwA2QBGzdtvP83/n9J0e2QUBKlSkYNwnb2BKNu1avveTST9LKTEmQtmlIjFlmdqtKSW0wGEzgwAHYpmUbsNJgMCjCYDAhhxwh4TpkbAGpRmYCEWGbX0YSYFsSLYmJISj4BUxalpzUS5beOTS8DhDJmAVgQiQZJmkNhpafNmfu4JSunNqF6lAG4iCRlSzjKvFAVuD07umHVFf8xusBu4YgElIS+ycJG5ARsjDIPL5z2zceuRvIUGYOWCFZjFna4IZArToDVbUr5NC6bU9eet/N2+pdgNIUFBx4DkmZGRG0bEuioaQnr7txxTnn/c7Wke3sQxJgG5BE30lIQKKRmSa2bN226MzF1177VUmZafaSgwPEmZLYw4EDhxySaGWmWnYtuaGWbUCSbUmAWpkJSOIFyEy1GJXKile4TlFtePChxe9+3+o190IyShJgG5BEwUtEEg7btGwDgjpz4+ZHLrroD00jKHhBbEuGgEz5ov/4sbRsiww5ZMCAxDioQlWd4awk0XAtuigVnjblVQtOOXnBvBMXzDtxwbwTF8w7ccG8U+bPO3Fw6qtECgRBJQfqorQd0clEEYb/nz04Abe7ru99//58/wvLkL1D4KoICYk8ypBEz3OuxJDovY+IA9L2gNUEqXr0VsRbtQ6gaB2QQautEoYAXo+iEmovQyBBeyUhSKiV7KCAohnAIcYMUE89hEwEk/X7fu5/rWRDYt1J1iYjXa8XYUBtmQlIYidIos02YJv9X4Mu/oikqjKbkUIQ10z7CfCqCceIzhjklAJCAgJhClENc9762uPPuGvhQ6ueBCWgpgj2B7YFQUlKiUaSlfj6xGMPbTzHLqiCtFWDhGBgkgyyCQEyiCt/M29DJrZFJRXAFqJDIdmuFFVSMFIK2xHRzNIgiliy/vELH7rjwuNfd0j1HNFFQPsHNQAAIABJREFUF7ucMtMRYZs2gW0BkrMZ0cB+cMFDJ7/uL6ZdO3XsmOPoZ1sS+6hgK4pYtfqJSZPftmDhEiTskACD2JUiIjMjwjZKQDIl05XtKsIuw4ePGD58uF0kQSxcuHDt2rWAicyUqjTC9IuIzJTEoEREZtpmG5HeVOmAdBPlY2vWv/FN75xxy9fHjjmBfrYl0cUeVUqpqsqmLauoSmaoBem7s+b+j69dd87Z7xBgI9HFYEiykQS68abbfrbw5xJCtiMi01JUocyMCNt0It0MKkyFeg45aOKEl7/kpSeMP+nEUcOPGj78SEmQgG1JEJAQtNmsXfPEgkULgR/03SdV99wzb/mylSse/bfMjMA2BP0iIjMlsdMkAZLY/zXo4o/KVMilQuCCrr7uxzhOnjiKTgisELWEKGTlCCorrWqY/J2Tx5zxvYcXPL5WNWT2DxKgNOHn2EXispcf88rn9gBShUEhJcggdkCAZJBB3Ltq2aI1/44dktlCkumYQVLazVAQzjRIKm5WqlyrRPHSJ1Z/+uE7Pnfs6w5uPIcuutjVMqKyTT9J2NRsqUpbjiq8YsWK09/8zu/ccu3o0aNpk2RbEvskG4nN1qxZN2ny23664BdWBhUOlLYlGVCKXcO2pMyMCLucdNLLXzJm9IgRR710zItGjBhx1FFHhuiX1BzURG3BwodXr14zb/4Ply9f/tOFSxYtWgRIysyIsE3nJGUmf4yoTJOaGxFevW71GZPe9e3pXxs9ejRtkmxLoos9JiPCNluE7ZBMiCYOSV/60jWTz5w0rOdAEXQxeJIg03HplKkGkSZqtiUBWVDINh0KH9A79OA3vP7Vp5766tNe/xqBbSFEzbYUtqVgi6CfRO/QgydOGAdMnDAO+OiHzzEtfX33/Wb5yoULF/+g74FFixYBkjIzImyzXbYl8azToIuBJKhgWpxi6vX3A6+aOEokBFskBAMTmwWiIhA1OVKFqHpCM0859vS5ixb/ryezQnbicCMxKoGc4cpi75CxDLKzUlBcGsjYBDKZVYnUmSMP/8uRz02VoKIm2gIQwXYZBAiZlH+/qVz96/kGSabFtJhBMkjCGCOJloqq4JCeUyjSJnnlutWf/vn3Ljn2lIMbz6Ff4rAsRBf7IEm2cXz24vPHnHCsJAbFinnz5kGgasGCxY+vWbdgwaK1a9eaLcQWkmyHIwGlAWUgWzhQ0pK0BDUHNWGbrdhmKwKUNhBr16798ze967bp3xw75jhICEnsY2xLxiFhEKxes+6Nb3rnzxYvQQoqakpAEiC2x0occqCkzTUIGQIHIbugxAGIHDv6+Dec+tqJJ504ccI4iYEFNfGUsWOOA14xcRxta9as+8E98/vuvf/2WXOWrfg3E4BIHNSUaUsCBKZFtFhJzSGHSQaiBEQtMRBr1qz58zf9X9++5foxo4+lTRLPFoZXnHTizOnf5BmzLQmwWbnykeXLlxdF37wfLl/26Ly+Hy5b+QgOK2kJkbRZKYlUhQrmjwv+GJHUHMDqdes/9ZnPTp3yuaCLwUoIDIobpt+2bPn/lNKEwDb9FGYHEjdQWolD1LKnZ+h7333Wu971rkOHHkLNICTRTxIgiZ0mWiZOOHHihBPhdEiIeX333dP3o3vm3Tu/74dW0E+SU9SUtInKSlHRkhCQEOz/ZJt9zIKHf3fB5f9CS0CyLwnzvnf815MnHEPN1CxEQtARg8C0iNWbyhlzf7n4sTVZYRFJQiidQcNsqqjM3mEZS2DSpiKMMwhK4YCGS5l8zHOvGjeyEJVBdMy0iJrh73/5/XtXLQvE7iRIISOwjWS7gUYdcuinjn9NT/Unol/aIdHFrmcQm53x5nfOm38fHTKEZPvWm7/5ygknGgRpQnTGIJ5iWxIwr+/eny186GcLHpo3//4VKx4RVbopyUqnQgJElZmSrBRIss0zE86enp677pwx/KgXSLZVY2+zLQmwLcm2JFrSxBvf/I558+8XldkEQUccKCFRZVskBA6UtlVhWw7g6OFHvPvsd7z+1NeMHP4CYxnJEDwjmRhi4eJf3HjDrbfPmrNs5W9FQhgEYRxKyy4h4UApKW0gJNt0QnLvIUNm3DJt7JjjICFsS4ZgH/DFKV/+hylXi8EwvOKkE2dO/ya7iG1JtNlImDRatuKR2bPuuuHGWxcv+kUKSbYhcQNQlHQlkmek+cP5c0cd9QLEvuCMN7/znvn3icEwvOKkE2dO/yZ7VEKQduhlE05Zsfy3tpHEYDkUxdY5f/XfP/rR/7u3p1dsYVsSu0UmFhVw++y7582b/93Zd61YsQKQlFjGVu0VE8bdevO1WDVICNuS2P8FXXQgFddM+8ncviXURMoyEHSoKAErESRDG9XMk190wuEHko5UYhw4JNGUItlrZClt0oQUVmagJH1Ao5SNZ416/lXjXghUxko6Z2FM23f/bfG9q5YFYjczyLhGmy3p9+FfPLHqkofvfLJsoi0xIdHFvkmSbSAwLQkZSjoltiaJtgkTxr/n7HdcdfnnH5h/x319sy+fcuFpp54yZMjBuKEwJGA7KlDaBjJTEg7XwIBEx+Lxdevf8VfvX7NuLYQk9irbgCTbgCRAkgFj6wPnfvwHffchpZuS6FCQonJWmUnNDRyoKSpJpOQ4c9IZt07/xn3z73zP2W8fNfz5uASWjIPBS0iIoAr0khOO/exFH7//3u9d99XLJp40DknUMkNpiwzJNkrAKTlCsk2HlFq9/sm3/9X7V69Zl8ggiS7+CEn0E5DGCjxq+Avec/bb75ozY87sm86c/GfKQksEGaSzQk06ZJstErCrKV+6GrE123Sxk4JaqK/vRyuWP2o71LBN52yLCmXvIUNuvXnaZy8+f2jPwWIL25IA2+x6EVQCwRte93989qLzH5h/x9w7Zl5y4d+ecMJxOFCFRC1tVKMlAEk8KwRddKDCBU2d9uDcviWFDMSgVA4MGSZLJGboAdVtJ48ee2gPGFLGBqzIZK+xExw2IZJaqWSJEKW8ddSRU8aPoCUQIuiQQQYJWLph1T89+rMKYbOb2VYbYNrshlX71bpVn35o9rqy0SBEmi72UbYBSZmmZkFA0LGEpM02/QS2acmjR7zgrMlvvO7aK5c89MMrp1x02uteAyEptSkpQBVASs5MhSOCNlt0yKoEP1348F+8+b/TZmrJXmVbElsRIC677Cs33vTPkmxLzqRTKdLNqAgqAUrCplHclHTmm06/f/6dUy+7+JUnjWOLkCpbthDPQEDwh/K0N7x25vTr7u+bc+akMyxsCwy2I4CEVBhwGx1KgcuKlY++8c1vFRIYcNDFNmwDttlMEKrZgqBmv2Ts6Cu/9IU777hl4kkvA1I4ZDbJQYckAVZCIInqpptnLl3xKG12ASTRRQcMN9w0QxwQEZkZMp1TRGHjmOOPu+vOGa8c/18x0KCfJNuAJHYdk4DNU6SKtjGjj33Pu95+9x233t835yMfes+I4UcQRiUQ/WzzbBF00akM8+XrFny/byk1YTqnRCgSIoAA09OoZp5y3PHDDoSolKJKRzpwsJdUCtKSSAjs5gFNA5GafMxzrxg/siIMJjGYTgkQMus3/f7KJX1PNDfalsTuZ5vNQqilMo0kKy1bv/ozP5+zvmwUEDJd7LMk2a6qis3MYDhIYWqS2IokwA4Iaob0WZPfeN21V97XN/u8D793aE+vHICttFCFZDuzKRDIdKq4CUTETxcu+cCHP0HNZu+RBEjiP/ju7Lu+MOUqHLSZkESnVCHZBSWbuYjmX04+/d6+O6684nMjhh+Bg7Y0kHZRG2CbZ8YukGwRtI0YfsTUyy5+4J7vvXLCiWmHpIiSmLCQZAogic6pFv7pwiUf/PAnbASILrYliaclJCSkZNokARJjRp8wY/p1l1z4MUlpRzQYFAMOUbmmTPHVr15HS0rKTNps08UOuA24fdYctykMQYckYf+XMaNvnfGN4Ue9AAkwYJ4iiV1NhG0JSJ4WbCZqI4Yfcf5577+/787bbvjmaa9/nW3abEvi2SLoogMmLUtOytRpD87tWwKIpGMBmBBJhknaekMzXz1mbO+QppzaiEooA7G3FJnKEiG7WFFUyZ488rCrxo2EpCVFIKwmnTIYxJd/fe/S9Y8FMthmNwvJbYCMa1BEwY2kiZeuXXXhQ3fYBmS62FfZBuy0LQmbQRCEjAGTJpNi0iRgW4BpEQ5hMEePOOr8c//6gXu/99Fz//rQniFAUJEi1VbZhUGpIqzElnTDTf/8TzfdIskE+xLDgoUPf+hDnzBYGVTYDI43YZswOFV7xYSX33nHjCsvu3jU8BdgWkTNdggIqbJNmyRqpnMJaVuqbNHPtNiGGHH082fc9M1vT79uxJEvcGYVASGqZimSGRyHbVIh33Dzt2+6+VaM6eI/si2JloCAsAVh05aQCAmZ95z91jmzp/f2HGIbB4MiybZokfT/3ngrLQFEBGAjiS52QG33zP/R6rUbUOKQZJsOpT10SM8VUz4/rGeIJAsrBYjNbPO0ZNeRZBuCNtuASUjaJGEEEyaMO/vdb5dEmySeRYIuOpBUVaqpTCVwzbSfzO1bYoIOGXCKWkiIQJji0LDwra89fvSwg4IqiKRKNdlLSiMJR8kiy6GsIpqTXvi8qS8/pkngAORgM4vOWdzwyIN9q5cLEqsKsydEhCRAbRaJHSqYENKS9Y9fuXSewZgu9nWSbBNiUGxLAkSICCoRcpCWXGhaaRIQIBAtZmjvkI+c+757f3jXRz58TmgjakZEFlALYAodso0DcEnCn7ngHxYsXMzeZpt+hjVrnvjAhz/++JonJIWcbkaEHJB0LCSLFBzae/DFnzn/1pu/+dLRL8YNQEpIk5CS6CcJsM1monMBIQmQBNjUlKYmUXMgJk448a45t55/3nuDJi62qggGyxQkag7DJz/9hYWLH6KLbdgGJLEtSYBEzRaEwTY1x0tHv/juOTPGjj6WQbENmCIJaOam9es33D7re+ZpEl3stHn3/EgSNWXaEUGHBJdf/tmxJxyLg5YmBOYpkmyzRbBLSaKfJEApHIDBYIGoiWetoIuOZCpkKlThgq6+7sd3z1tKhwRW0JJAITHhCtKqhknfOXnMmKFD7BQOxF4ig+1QZRERykmjjrhq3MhUaRgraTNNu4iKDln8y+9+dfMjP03sUIVcUhK7mQFbYDszgTAVEimpkdgO6fu/W3rlr++RRBf7OFGTGCxJ/EeCEESlhggRtBkMBpSAYFjPweef94H5fXdPPOllZlNUZKYJgyQ6JzAQxn587boPfPiTYq+xC5uZp3zmMxf+bNGvUJKyJbmGEoJOSbiBG2NHv/jO7912ztlvFQmBaAsIEXawRUJC2kWSbXYRKSEzqMlgjGnr7R3y0XP/evas20YdfaSMbQhJJuhQBNgGR1Ow5okN7/3gJ9euWUcXLbYBSbYZmG1JtrElIVACI4YfOX369UN7/4TOSbItuUaqqirbt8+eQ0sAtgG7QNLFjs3v+5Fd6GebDr1i/MtOO/UUoskWDfE024Akdr2EZCu2AYcQNYGMaBN24Vkq6KJTCSq4YMgUU6+/f+68paaWPC3ZLrFZICoCgZDDFId6GjHzlGPHHHZQFCzkWirDKTtlU2R2GRkwYGdAFFsG2wRKbFlm8sjDrzpxZFKCCiGCmhANqUJsX2I2M5jab9Y/PvXX83EECpO2JPYIg0FtgMGAA5CxqNn+198t/cbyB2grgNnMgOlirxJbpAwIMHuAQCBqwVZGjXjejOnXX3Lhx4YOOaSKAEKCpJ9tHDhoSQZgWgSiRdKCRQ/9/WVfhSYGYzDYhT1DFUaSBSRm1qzvfevmWSKpKWkJdshhMJinSbKFmuec/Zbv3TFj5FFHiICwzbYk+gUEhFQBkthlAiIQNYGQxFZeOuZFd86ecdrrXyUJVWmLpiRAEiAJkMTAbAECOajZixcv/vylXzbpBNJgII0x/+lIok0SA5MEqA2wDQEBHNZ7yG23XNfTcxAkDkmAwS44GJhA1AJQmBTwr/MfkKkZJAGioosdMQV+umixLUA1EgcDMLXEYSVtJoDzP/JeUWsgaqJNbCaJ3SUg2IokQGxFPEWqeJYKutgFrp52/919SyCoGYwJSDoXVDIyvY1q5qtGn3BYbxQsCKGCMmQbDigqYhexLFOTlJlFgWU7EKVEVCqe9MLDp44fVUS4okO2CwgBBoTFb9Y9dsHDdyQW2A5DyDZ7j4Xtpiyp4IhI+5//bfG//PuvbFcGYRuQseiii62F4Jyz33HLrdNGH/+ioErbwkpqDkmoaQotwQDENiTZvvTSy5av+J0xIFoksUcIEDVRi9Vr133gQ58QTTpkJbZAJA5ISKcO7XnOFVM+f8lFnxBPk8Q+JyCG9g75xtevvOiCj+Iihy3bQGYCdgFs06Frr/3GPX0PKIAQKSBkLLrYGZJs02/06NGfu/jTUmWlUzVA0aBzK1asWLjwYduin+liJ6xZu6YmCXAbSnZEVLYlQQ4ffsSECePpYm8KutgFUnHNtJ/M7VtCTaQsA0GHihKwEkEytFHNPPlFJxx+IOlIJcaBQxJNKZJdRpbSJk1IYWUGStIHNErZeNao51817oVAZaykQ0Jhy9SMCyx94rFP//yO9WVThWxHxCZZRhJ7UToQktKBijMibF+x9J65jy1JGZBkWkQXXfyhxH7JCcfOvOX6yZP+PCQcOAxW2pYqydQc7BzbEQ2I93/wfCRsQNTCLuwBJk2LsfnguZ9cvXaDJDoniZobqGlCUk/vQTOmf+usyaeLWrI/EPmes99+xZRLhvb+iagA25IiwhZtZkC22YokCIgPfuhjpsUWLSmJLnaKbUls5cxJ/+31rz0ZQuEWCgRKOuVYsGiRJMA2tQCCLrZLLFr0cwhJtEkVOyEzI8K24KzJb6KfbfrZpos9JOhiF6hwQVOnPTi3b0khAzEolQNDhskSiRl6QHXbyaPHHtoDhpSxASsy2WXsBIdNiKRWKlkiRClvHXXklPEjaAmECDolkBC1sH7f3Pj5X35/XbNpOwVSZgZqJDWx14SEDRhCkinOkILq67+5f9mGx0lTsxFddPEHEkIIM7R3yJWXffZdf/UWASlqSkXDKVrSSgZmm63YBvrufeD/u/1OQpiaQaowe0AISKCv74Hv3j7X0XRWDEbiQE0Tgt5Dhsy4ZdrYMcexRbCvS1pC6KzJp0+/+R8PHXogDslWNpvNUIOWZGCS2Ipt2pav/O0XL70KUhItQRc7ZhuQBNimn8hLLvmEyMwmUKlhm86FdE/fj2iTBGmbLnZs1WOPA7ZxsCNu0Wa2IYFXTBhHm21JtmmTRBd7SNDFrpJhvnzdgu/3LaUmTOeUCEVCBBBgehrVzFOOO37YgRCVUlTpSAcOdpFKQVoSCYHdPKBpIFKTj3nuFeNHVoTBJAbTMSO2WMemCx6+43/9fn0DAWGwIwLYJANpsxdJtJVMgaSCDU+WTRcsnv1oc71rAoPpooutBWCMqAk+d9Enp176uUrGxmEX2xAQbJfaMpOtGC686AsGlIBos9ndRM2Wxd986GOEa3ROgBuKYhrAoT1DZtwy7aWjj+M/sM0+KA1hm5qA+C9jj7vlpm8O7TkIkKOKA0yhJdgRSWwrra997R+XLX/UNl3sLEn0kwTYpiVGHvW8j577PqlCKqWEnDYdsr1s+SNsRRJd7NjDD/+CNtvsSEgRYZs2i9qYMcfTJsm2JMA2Xew5QRe7gEnLkpMyddqDc/uWACLpWAAmRJJhkrbe0MxXjxnbO6QppzaiEspA7CpFprJEyC5WFFWyJ4887KpxIyFpSREIq0mnRM2wrmy8cNHsJRtWC5o4pBRIzsSWFGlC7D0WFmpDUvo5KSDt9aV88Zd3P9ncFBYC0UUXf0gSYBdAcOaZf3r55X9XYTmAqNK1FEoGYBuwXVUV21q+4t+/8tVpELbZLMweIfnSy65Z/sijuARVUuhcalNakocecvAtt04bO+Y4TGK2JRmSfY0ESIKkzfZLxh5/yy3XH9rTiytTINkRtdmWxFYCPb523RenfBmJLgbJtiTb1BxnTv4zwJQqDrCtMJ3ru/dHPC3oYqeU4hqkJMA222UbpcA2DmBo7xD6SQJsS6KLPSfoYhdIqirVVKYSuGbaT+b2LTFBhww4RS0kRCBMcWhY+NbXHj962EFBFURSpZrsIqWRhKNkkeVQVhHNSS983tSXH9MkcABysJlFh0zLhubGC34+Z8n6x5U2aLM04JBDrlVhm73EQJrNbCDFpgpsScBvNqyZ+ut7LGqmiy62kfSTKloSGm+Z9N8uvPATigJkEhEKO8UAIsI24Db6CRJfOmXq6jVPSAJsQ7BHPL56/Ve+cj2Src3olEMSyqGHHDxjxrfGHv9iaiIQW7ENAcG+RvQLWlISjpeOOfbaa68ONtESgG1JDCwzJdmmnySUad9488wf9P2QLgZJEiCJtqOHjzhz0hkytgGn6Fxaq9esw3TRCbVZ2FYb2xURttUGiIpt2ZZEF3tU0MUukamQqVCFC7r6uh/fPW8pHRJYQUsChcSEK0irGiZ95+QxY4YOsVM4ELuIDLZDlUVEKCeNOuKqcSNTpWGspM007SIqOiT47cZ1n3nojqVrVxFCclvairDdSBqJJGdWiL1HUhiBJNuqGSQg0qTvXf3IzSsfNMh00cXWAhKSpwU18553v23Sm/9MICrbkJIYQGZGBG2SaDNtaq5Z9+R3Z82BBCSxBySQX5py9ep1a12ICNuic0rckPnGN65+yegXCwHmD0lin2TaDGlaAjCQfuXEl025/HOQuAIk1xiA7Yign23AdjilyjDlS1cDdqGLzthmawJz6qn/J4SVVgYVg7Jw4UK6GKSIsC2JgUkqpUSEbUCSbfrZBiTRxZ4WdLGrJKjggiFTTL3+/rnzlppa8rRku8RmgagIBEIOUxzqacTMU44dc9hBUbCQa6kMp+yUTZEZkAwYsDMgii2DbQIltiwzeeThV504MilBhRBBTYiGVCF2zNTMFks3rD5vwXd/ueHxkEgLJBECbEsqoogWyexlBoNBNVOzLSiVbAP/tPKn961aidisCRgDpov/7AKCPyBkpk75wtjRL7YSCDcYmCTbbEsQBkfal176FRPsNjZmK+LXyx/56te/ZUJRnGKHHJIgqTlw2MXKyjn10r9/5YQTIU0BxH5DtAlC9JNwWOYv33TGOe96G9pES4g/ThLgNtok0daskBH84N4f33PvfVDRRWck8QfEn77udVIRyIGSzgmSCgFpmy52RroNMAUyC9vhVM0uONI1Bbl6zTraJNHF3hF0sRtdPe3+u/uWQFAzGBOQdC6oZGR6G9XMV40+4bDeKFgQQgVlyDYcUFTEACzL1CRlZlFg2Q5EKRGViie98PCp40cVEa7onAFjQZq2pRtWfWrx7A1lU4XSbiBDSEqzn5BkCBMS9nOIq5bc88v1qwyYBiBkLAymiy62ZSw0ffq0YT1DAEfBpkMpapJWrFh2880zIdk9JESLbWrisinX2A6ZmlJUthlQSspMqaKmRClVysbkM0+fNPnPaQmpss3+TwSC0CUXfWLC+BMBSfwxEWGbASjDbAJEfukfpkp08YzZBsaf9HKeAdtsEZLoYmeE2nDQFhEMTOE2AREBCfxs4UO2aUmelrbpYg8JutiNUnHNtJ/M7VtCTaQsA0GHihKwEkEytFHNPPlFJxx+IOlIJcaBQxJNKZIByVLapAkprMxASfqARikbzxr1/KvGvRCojJV0TsaiRRIsXf/YBYvnrC8bAQOhIixKZkSwn7AtWgylUhHrysb/Z2nf+rIRgTFYCAQyXXSxlTRywmG9PVde/ndA4oigcwLbKW648bbEtCS7jSTIx1evnTXrbsAutoDEkhiYKZKoOQDJOEaOeMGFF348lPSTxLOASWxSMO0b1wwdcohttiXJdmYyMDlqtoH59z6wbPlKwDZdDJ4k4JUTTpJkm0GRtHDhYtv0swtd7FACYrMwhYGljVqoubgWmjXrTkm0BE8LSXSxhwRd7EYVLmjqtAfn9i0pZCAGpXJgyDBZIjFDD6huO3n02EN7wJAyNmBFJgOyExw2IZJaqWSJEKW8ddSRU8aPoCUQIuiUsagJEL95YtWnHr5zfdlUIdcEaexGkpUyk/2EJINtQGlq0q+fWDV9xYNAEQKlMS2iiy7+QITAnPr6V71l8uk4bNMh0yJA+te+H65c8Vt2l2Qr/+Nr161eu960iAoSkoFJFW2ZaaXBFmp+49orh/X2QNgGbPPsIAIbA709B11xxeedIkw/t0UEO1KckiU18RenXA0piS6eGTFm9LG2kRis1atXS7JNmyS62IHhw4+kTRI7QRIOlIAkp2bNuottJKRtuthzgi52twzz5esWfL9vKTVhOqdEKBIigADT06hmnnLc8cMOhKiUokpHOnAwgEpBWhIJgd08oGkgUpOPee4V40dWhMEkBtMxobRM7VdPrvrbh+54smwC0m4gGYEimpj9SuIWqIwkQID97d8+fO+qZZVxLYQgbbroYmshkbZpiYsu+tihQ3pERYck2cZhW1Rf+eo0SAh2kzRg4tprv5Vu0hIo2ZEsQAKSUMoBfOTcvxk75sWiRTKkJNs8WwQVIOm017/6T099tVP0k+Q2tk8pKojMlHTjzd9evXYdXTwzxvZhh/bwzEQEIIk223SxAyOOHk5bZkqyzcAEmQlIos1i2cpHbrp5ZlLYiiTbdLGHBF3sRiYtS07K1GkPzu1bAoikYwGYEEmGSdp6QzNfPWZs75CmnNqISigDMZAiU1kiZBcriirZk0cedtW4kZC0pAiE1aRDBocQSzes+vSiO5rNpqTEIRVhUaHMbKBGgsR+IlAN2CRXxUDaSCFd/ev563KjJGOMQ6KLLrZlSwhRG9Yz5OKLP26bDmVmRNBm5axZdyViN7BNTbJ9483ffuzxdapocQAmUDIJsUhXAAAgAElEQVSwiLBNmyTg6OFHnPOut7GNACSz/zPYAdiGAK64/HNDDxkCSKJNEjvJITkzcdxw4210MUi2qdmSThh9HM+M2wDbgCS62C4zduxoSCAibEtiRyTZZosU1Sc+9Xer126AJi0B2JZMF3tI0MVulFRVqqlMJXDNtJ/M7Vtigg4ZcIpaSIhAmOLQsPCtrz1+9LCDgiqIpEo1GUBpJOEoWWQ5lFVEc9ILnzf15cc0CRyAHGxm0SGBYOn6xy5YPGdjaTrULCWQISTSGyuyUop0C/sJC2xJYUqlxCElrq0vm774i7ttB0IoTRddbM22JJRsEW+ZfPrRI55HhySljVK0LFv5yMJFv7TNriZVmaBEuvGmGZIyk605GFi6GdGQBGRBUS668JOHDj0EAhISgi2C/Z9AoiaZtp7eQz72kfdJKqVIYieF5aCtikjKTTfPpItBkkRNSnxobw9tkhiUCRPGSwIk0RJ0sQO9Qw7s7e0FMlOS2R7VwptBhISL7TVP/P4DHzjfNNgiJEHQxR4SdLFbZSpkKlThgq6+7sd3z1tKhwRW0JJAITHhCtKqhknfOXnMmKFD7BQOxABksB2qLCJCOWnUEVeNG5kqDWMlbaZpF1HRuaUbVl3w8J3ryyZD0xm1LBaZWUVUxVWxaZHEfkLGIWwkpSWlfYCFlHjBut9+97cPGQxImC66eJoQJARbJHDeuX9DhwS2aEmB4YYbpktiN4igtnz5yr55P0IZalBT0hKSGJikLNQkBdWE8SeedurJPC0A2zy72AUHYBB697vfetRRR1VVZZudYxuEEiIzo+JnCx9euHAxXTwjQvRLm2fALnSxs4Qmjj8JkOQU2+UUkBRJgFM1ILXpjjn3fOiDfwtpF7rY04IudrcEFVwwZIqp198/d95SU0uelmyX2CwQFYFAyGGKQz2NmHnKsWMOOygKFrKTlLGdJBgsO7HssMBQzhx5+FXjRgJBhRBBTYiGVCF2zNTMFks3rP7U4jlry0aB7QoBpapkkNJGQgIksV+RQaImyUgqwnYgOf5p5U//58Z1AgtEF11sRUDwtBCcNfn0o4cfYcARDoOVkGyXJANuSLI9e/a/sBvF7bPvTtFiiy1EYrNdCtslLVM+eu5fi1rQErRJ4tlFqhA1gajFxz98jlNms8SBw0oGIAcqQNqSSEP+403/TD/zlKSLnSMEy5Y/igMQSecMQSGRKki62AlCMHHi/y7JgFKkGZhSjpDYTAmBUiYpN07/zgc+/ClUQULytEyK2QHbdDFIQRd7wdXT7r+7bwkENYMxAUnngkpGprdRzXzV6BMO641C4iDsRFJWIBtQIFw1q2IzeeSRV44fZcAMggFjQZq2pRtWfWrx7A1lU4XSbiBDSErzLBWSRcFPZnPab+6zLdNFFzvlvHP/RoBSEjUHBA52QmZGxLKVK5YtX8lWbPPM2AbcduNNt5jOOSAhgFdMOHHixJNs85/P5Ml/cfSI59miJVCyXZJsA1WEbQhg9uw5tNkWTwnbdLGT8jfLH1GYQbENTJgwHtFFZ+JP3/CazLQN2JYqOiSHIMVNN337L970jtVrnrQFmDS1CFcyboNkW7YBSXQxSEEXe0Eqrpn2k7l9S6iJlGUg6FBRAlYiSIY2qpknv+iEww9EDbtZIWVSpUsSFCxDZUrjrFH/21UvP8qEDGIQZCxaJMHS9Y9dsHjO+rIRMBAqwqJkRgTPUgbSqsEPVq/4+bp/R5guutgJb5l8+tAhh0huuilVklwT2xeyKRFhG8fts+9kK5J4pgQpacXKRxf87CGUdE5S2jLnnfc+gST+ExIfOe/9gayUBCRFDgZgWxJgWxIgVcuXL1+w8P9nD06g/SzoO/+/P9/nF62S3MC/04Nkc2lFSIIcGyAJOK2CIDhdcEHEqaUqblWogDguAbGiYwdJWIq2ikXw3ykgiHRmlCxATweSsFZLFuBU5kISUM8cQpZLMPk93888v+fmDgmShN8v10lu7vN6PQwpCbBLapJo8GKtXv1EZtIRdEnS+L6xGESDLk2cdNDrpx8CYaVUuEy6J8lQirvuvn/GUb+3+O4H0giwAWNj1SDYhm1JtmnQu6DBHlDgEl1x7U/uWPJoSQaiJ4UDQ4bJMhIzfkxxy5unHjb+pUGrTRBBEqFIwiSuvPvVB1x+1Kup2PTGWFQEiMeeWTvn4UUD5ZYCuSJIY7eSLJSZ7KNshySj9Bhr3qOLMaJBgxdB5Kmnvj0TRWQmtiTb7EzalpSZ1O5afJ9rDAfbEoN+eOtCFWPonqTSGdGaPu133jj7KEwlKRl9Tj3l5MkTD8SRmUAU4OBFsy0Vdy6+23TYlmQbsE2DnUuGrFj+CKQkejJ96uskBtmmwYuUgd71zj8IArAdBT1wTZJhw8Yt73jHn5x9zvmrVj0pCVANsA3YpmZbkm1JNOhd0GBPyTDfuGbZPy/ppyJM95QIRUIEEGDGtYqb33zIBw/+TdgMSDjDlSLHj2ld9IZJVx75GsA2MsI23RJKy1R++uzazz604NlyC5B2C8kIFNHGjA7twPCLX268/amf0qDBi+L40Af/RBSmjEASIJkdE5UAIoLaXUuWqgYJ2GY3SLbBYfKuxfdTcdAlU4rC2f7QGe8TW4mCUcYuBe95z8mhDiBLJLFTtiUBkqgtmH+7ESDJtiTbkmjwopi4866lkrDpyfRph1KzLQmwTYNdsA2897R37t/3MhxItumWA7IIsIPClI7iH2645djj33Xx3G+sW78RkpokSEm2AUm2JdFgtwQN9gCTliUn5RXX/uSOJY8CIulaACZEkmGS2vgxxZcPn/LAH874y8MnfXrqxP80/aBPT5/w1zNe9cAfHv6R1x5opW1JWJiU6ZLBIUT/prXnr1jQbrclJQ6pFBYFyswWaiVI7KtCaQsC2Zb0vdU/oUGDF+mVUyZMn3qwhwAi2RXbmSk6Nm589vFVTwK2AUnsHola3Lrg9qQUXbMtxwF940468VgqSkgx6kgCTj3lZGVJLSJMyU5Jsg3YpiItXnKPEDWpoMGLFNQeW/Wz5Q+thKAnhmNmH2kbkATYlkSDnUupAPrGjjvjjPcKJNmmS1aasAWY0jaSlU9v3PBf5l75uzOPu3ju365bvxHSLnHYlkRNEg12V9BgD0iKItVWphL4+rU/vmPJoybokgGnqISECIQpDaKY/PKXfOS1B35q2oRPTp9w7rRJp77qwHGtAkKEkAlJQNh0SSDoH3jqgpULN5dth9plGcgQEunNBVkoRbqDfVQriQjbQBkIfvHLZ+5du4YGDXZN4DjppDeLIiTbSLbYMdtUJEUACmfm0qV3p5EKhkHYBpYsuZeaJLoUEbZPPPHY/fvGA4lMMBqF7SmTJ771hOMASdhmZ2xL4v+SbKfiriX32aZmI7lCg10xlfnzb4MAbEuiW8pjjp4piZptIds02LmgIyV95EMfGD/uZdgRQZcEQeEUoJptlNiS1m8Y+KtL/nrGrBPO/IvzV63+BUpJNhXbNBgGQYM9IlMhU6ACl+jKa/7lnxb30yWBFXQkUJKYcIFLC4xkoDCDRCWpCJEGhFTQvf5Nay94eNFAucXQdkYlS4vMLCKK0kVp0yGJfVQptpCSEo+x0pa06H//Gw0a7FJSAied+CY5bEdEZoZa7IDtiKBmW5JdIq1atUpiK7M7DJIQdy25x3SE6VbaEfHWtx4H2KUQFTMKSbJ90tuOM5GZ7IqkzKTmGhXHkiV3S6ImUZFEgxcjr7/hprQBSbbp0tSpU/vGjQVMh1RgS6LBLhhMx/i+sed+6iwgbbokivTmKNJ2ZgICZUsStiCk9evXX3/TLUfMPu7kd33ghuu/L2Fbkm0a7K6gwZ6SoBKXGDLFFd+9/47F/aaSPCfZKTEoEAWBQEiFAAFBRQgQtWCrEC+aqZit+jetm7Ny4YZys8B2gYCyKGSQ0kZCAiSxT2tZhkAGSYb7nl79880bSRswBlMzDRo8JygQ06dOGz/uZVamHRSpLeyAJNuAQGAbQnDnkgcgGaRkNwgwJv/n4vsFgjame31jX/62E99sWyoEAsSoY0xKettb31I4CQNiFyRRUwUEKP91+b+ZxFRMJWiwldnKLiEB21SMxZ1LHli24pGQIG2zExIdaTrCCRje964/QFTEkBANdk2kCJvKRz/4vmNmvUEOSIYYTIdtdsCUUmFrEIOUvIBYvPS+j5974W8fOnPOhX/1+KonJVExmBdmBrkChsSAbRpsFTTYi1x57f3/tORRCCoGYwKSPceAsSBNrX/T2jkr528qtxQo7RYyhKQ0DTrue2oVISpCIGqiQYPns33M0bNwMMhBl1Y9vgaC4SKMli9fTq9sH3P0UQJJjGbCGOjrGztr9hEMctC9ZcuWQVAzpsFzBLYBqYCwLYmKEvjaJVcAkmxFBDtmG9JZCKwskW3BW088niG2qdmmwYsiMWjevIvH970Ut+hIQCA6IoLh4nLDhoFvXfVfj5h9/LEnvOO67/3j0+s3WOkaHQnJIDFIFSMTyLYkGmwVNNiLpOLr1/74jiWPUhEpy0Cw58hYdEiC/oGnLli5cKDcDBgIlcKizIwIGnQsfvpxgzEV06DBDkmaffQR1BQWXXts9Sq2Z5vdsHrVExs2bKBXRcSs2TMgbEa5oKB2zNEz5aAntp944on16zdSC0SDbRhJgE1FEjXD//jR7XcvfcA2EGrZZqdUs01FHSeecOzkyRNtA7YlUZNEg12wZZdslVMmveLqv/sGSskmbEMCTqXNMJFkm7DhwRWPnHX2Zw6eNvPPPnDurfNvQwLsgGCISbukYlOTRIPnBA32IgUu0RXX/uSOJY+WZCD2LGNRESAee2btnIcXDZRbCuSKII3dSrJQZtKg45F1P9/oLYGo2cY0aPACbA6bdogApW0cdEkqFi++h60CkMxuWLPmSVtUHHTP9tHHzAQkbNOA2Ucf4RQkIbpn+8EVKxENfpWSmoRrdOTTG5658MKvljgiMhO12SlBuzRKUeCgdtopbwckAZJo0B1JrgEhjpl9xGVzv0SZUkEYAogCWwyfiMAWhGTLtH644Lb3ffAvXjt11pmf/OyK5Q9jKq6QOKTClZDFINs02CposLfJMN+4Ztk/L+mnIsyeI5SWqfz02bWffWjBs+UWIO0WkhEooo1p8JyM4uGnnsRUjCUZ06DBr5KYNfuIArEbpKBmm17ZpvaTB1dEhCQqNl3af9zYw6a+DrCRDNhmdDtm1pGtIDFpuiQJYtXjT9DgBQVDJEsCTHzyk597fM0TroAk2+xKREhGSW3yxANPOunNNOiRJNuq2QJEnvbut1966VfwFtwyAdguIhkm5jm2IwK1UbtFsX79xutu/G9vOvGdb5h13MVzr1y9+gk5pISUBBhTk0SDrYIGexGTliUn5RXX/uSOJY8CItlDDA4h+jetPX/Fgna7LSlxSKWwKFBmtlArQaJBzf63zU8DtpFsS6JBg+cxHYEnTjwIB71auuQe24Ak2xB0TxK1DRsGyszSbUASXZo29XWQgIQt25IYxWwDh059rShQ0pPVq5+gwQ4lBmwBhm9e9d0f3fpPkpBs0xGQONgRB5CJZIHgU+ee5RoNeiQVgI0kOoL0ae/+40svuUikpLQl2WaYCNK2krCVaStbylaqDQhCWrPmyYvnfuPIWW99+7vff/0NPzBBxQ5Eg+cLGuxFkqJItZWpBL5+7Y/vWPKoCfYQgaB/4KkLVi7cXLYdapdlIENIpDcXZKEU6Q4adEh6cN3PAVVAEmCbBg22l7YhJk+aANhGSZcMJZZETZJtdsNddy5RjZ5Mm/46CAwkIImOZPSxDagC06dOBWzTPcOy5SsZYpsG2wlkW5LhuhtuOf/CLwOZbVVAEiDJSnZEiR0RiSuHHXrwe979x6qxDds0eFFsU5MYZJswxHtPfcfl8y5S2S4i7C24xfAJCYdTOKgoUUJQyxLcMmToziX3/sXZFx58yMw5X/jqqtU/oyNpsJ2gwV4lUyFToAKX6Mpr/uWfFvez5/RvWnvBw4sGyi2GtjMqWVpkZhFRlC5Kmw5JNOhIe9UzaxHPMZJo0OB5JGGmTj1UIImerF+/0TaVpCLJNr2Sgt0wadIE0WFbkm1GKyHAdEx55QTbkujJunXrGSKJBkPMIMnADdffcvY5/8m8BCUqbOOwDeksULJDbdHKTBySvvTFOeIFSLJNg12TREdCUpNkwjbmPaecfNP3vzN27MvxS1EyTAy2BS1UGGzAgGQwKIxSgB1SqXx648A3v/3/HzH7uLef8v4bbvjvNNhO0GBvk6ASlxgyxRXfvf/2pY/RkZjEmEpihp2pmK36N62bs3LhhnKzwHaBgLIoZJDSRkICJNHgOQPllo3lZgNmK9OgwXbkoCL2P+Dl9Erkg8tWQtomqCSWRK/+dcVKgRwo6d7h06ZREVIBSKIjGIUEpMBm+iEHh0T3DIIkGJlMUjGDDLZ50WyzU8aYWsyd+zdnnf25kpdYCQgEKOkIlHJIsk3FAUhiqxZYEah90vFvPvro38XY5ldIosGLFxAMESkJUXnjrBm3z795+rTX4IAEJNmWRM2AA5AMCUiyDckOiK1KnEISIMAWiO3YFjXJxOKl933inM/87qy3fHXuN9evX0/NNiQkO2H2YUGDEeBvrn7gtrv/FynjQCljhBg+BowFaWr9m9bOWTl/U7mlQGm3kCEkpWmwMyHZ7t+0VsYYsLBo0OCF9fX1UbNN1wKQCkkMhw0bBqhJsk2X+saPpWabUc82INHX10evbC9dupSabUYUEVSEbSq2JNuQkJCQkGzDNcC2JLZhU0u7pCaEsn/1mpPf9WdfveTrFIG3hNmRzIwI2woDtgFJrihtHzB2/ysu/6oTlJJoMLyCmm3glVMmLJp/83nnfswEZKUoCruEBORACWQCIYoyQYUJhk9ImSkpMyFWr35i7txL3zDz+LPO+fzjq56URAoHYBKSirGpJSRiHxY0GAG2FHnl1cv+91O/RE4cmIrN8JGx6JAE/QNPXbBy4UC5GTAQKoVFmRkRNNiZtIuIKG0hCSMj06DBC5s6daptICLYbULsHkmAbUl0adq0Q20Dkhj1JAG29z+gzzY9iQhJ1CTZZgSSBEgCJEFAQEBAMMS2amzPpEkp6QipoCMtLp77t2854Z13LrmXokxbjAkHOyApMyPCNiS1zFQlLLhs3pf7xu1HAIFp8GtgI4kUZIjzzvnYovk3HnboIZIyExUmANnUIgKwrQ5XGDZpOyTsiKAjINZvGLjuhluOnPmWM//i84+v+RkCUgQEFSWY0SFoMAKEUrHlH374EzkCmQ5JDBdjUREgHntm7ZyHFw2UWwrkiiCN3UqyUGbSYGck2f7xxp/JVIwRFg0aPMc2QxSolpn0yjbDJG3AtiS6JwmwTYMAJE2dekhE2KZ7rlGzLYkRxTbbsM32bDNEEkMk2aYmQgQEJKRh3fpnvnXVd4+c9ZaL5165bt0GSbZRWplKdsRRcUcJ4QogGUh9+IPvPenE4wCRtmkw/GxL2CYEAdg+fOohty38/l9+4dN9fWMzgTBBwSDbVJQinRkSwyZsS2J7AldaXHfTLUfMPu6sT855fNUvMJCALckmISAw+7CgwQigMuS858e/sMB0CNsMF6G0TOWnz6797EMLni23AGm3kIxAEW1Mg12zDYxRICpCgGjQYBuSANuAbUm26YlTDAfD8uUrGSLJNr2SBNimwVaS6J5tSbYBSYBtRg5JbEOyXfIrbAO2AdvUJDHIVGyvW//MP9zw307/wFmvnXrUZ7/wX/pX/dygioOykAnZ7JjSNqRUZKYo5BCgPGbmERd98XN0pC3JiAbDTRKkJGo2klAb+OiH/vT+pYs+esZ/LNy2y7QMBiRIaqEWDoaPJNtsw2CXinAWpCCuu/H7R81+05nnnL9u/bO2JUOIYJDYh7VoMAJkFCKfHWj/rzVrXzPxADlSZahgmBgICfo3rT1/5YJ2u61Q6SykEixaVjuzhTKxRIOdkWRoYwYJ25Jo0GBHbNOrNWvWAJIA20gYRFdsI617egMOlLZVs02XbEsCbEtiVLItiSE2tumJpMxSEkMkMZIkBDW7lISKNEuX3ssQ25KARLYlsY3ly5ev3ziw7MGHVq96ctmyFQ4BBlUocYuKEiwVtsUOSbINYTvUkmRKyMMOPeQ7V/+1bckQEiAa/PqkCUCiYlqQWOP7xl70xU9/5EN/evElf33DDf/oUFp2QgC2QyVi2DhMKQmwzRCpwBZWIRuItnXd926+9UeLPvzhP/nUOR9XGgmbsEEE+6gWDUYAU2Ky8DMDv6QiAtmlVDAcREf/wFMXPLxoc9lWqF2WEWEIqczcXAiUSdqAJBq8OAaBRIMGz2crZFsSYFsS3Vu9ejU125LoiaTEkmwjIsI1uieJmiTbkmxLYjSRxBC7lArbkhgOtiUxYgRDJJn4h+t/MOfCv9qwYQNDJNmmYkuyHRG2AdsRkTZgWyE5bEeEKZ1FFLZLIKJwSgpTsgO2GSRhTBnOSZMPuvnGvx/f9zI6BGmHRIPhZlsShG0JkxCAwA6ESazJkyZcPu8r55195sVzr7zhxhuTFmBQ2JkRYYvhYMqIyExAEkMk2QbSBmwXEbaf3rjh4kv+9vrrb7ls3kVHz56hKGxJ7MOCBiNAK4GwkQpqBjkYPv2b1l7w8KKBcouh7YxKlhaZWUQUpYvSpkMSDXbGNtBKzDZMgwbbk2xLAmxLonuG/frGAbYlsRuEAElA2pDsBtuAJNuSGMUkAZLoie2IYIhtSYw0tgHby5c/cu45nxnYuBFbIBBghySICCAibFOLCNuFUxBSSFYSTkqDwpkpxjgL26htSrMLaVNRQk6afNC3v/2t8X1jeE5INPg1kEzFCAEiqBjbEgIRkmxDTp5y4OWXXnTPkjtOfecfF1gOZUuMscUwkZyZESGJIYK0DZKwBSHZBgRWPrbmiXec+v45F168bv1GCcw+LGiwFykoAKkIE0YqJBWoVBQuWx4z7bd/C9IggjA9MxWzVf+mdXNWLtxQbhbYLhBQFoUMUtpISIAkGuxCSAJCxgjSAkSDBs+xS4TMoIgwPbFfP/UQQBJgm4rogWDS5AlUlHQEvbKRRMVIYjRKM8RhWzLdEyA5C0gqRhIjjV1KBqTi6Q3rSl5il5JsS4IEbAO2AdsMsQ2kgpptgUAgOiSZUmE6AhAQNs9ntlLNMH3qIbct+O+HT3sVtGjw/0BQEYjnCElsQxIEBDBl8oFXXPalh1bcfd65Hxnf91KUZitJDHEFTBgMqMM2uxCSbLM9gcC2JLZhEAhsfeuq/3rs8X/8r8sfQQkJJKUZlOwrggZ7kZKyQHaZCkehdGbaDueWlmYc/u+ItCUGBd0zYCxIU+vftHbOyvmbyi0FSruFDCEpTYNepEi77RTCOETFNGjwHKmwTQiwnZn0JCJsM0QSvbI9efJEwLbYLRJbiQYgyTa7JaiYkUiSLWrjx49HCQGIwqkKJCCJ4VIWopIGgyRADsCA0iWvP/SQm2+8dnzfSyFosHdKCBzj+8aed87HH1l57+XzvvLGmTOo2QYMaUdEYQq3Q8IdZaYi0hYFw0Q8J/HqJ35xwlv/6G+v+nsTkEGBTUdAm31C0GAvIhUlBgpsl6lsKSCAsP7guNfhkARpl/RExqJDEvQPPHXByoUD5WbAQKgUFmVmRNCgJ2lJSEobC1wRDRpsRxI1EUVR2JZElzIzIqjZple2JVFRhlqAbUl0yWzHNqOVGGLftXgpBD2xrTCDRMU2I4qtCh05/dCDXzn5FdSsdIcggMxkmMhbcDgLSbbTxoHSIDIoTjv1D29beOP4vrEQNNhrBRUBCQjec8of3XzTNbfdeuNp7/7DceNeBgRFoVZmOpQK2xEhCCkzIyK1hWFiWxJgiCDtpHX+hX911tlzSsIuhehIaEEy8gUN9iLKEqJAqASkwnaqBI474jXTDj7AwhWQCnpgLCoCxGPPrJ3z8KKBckuBXBGksVtJFspMGvRCdEwYM9YhJNtINGiwI6tWrSnLMiJs06WIsM1uk2SXdKQzqaVNl5YsuZttSGKUCsA2lZDUoldFUWS2AdvUJDFy2JYE2FQEl839quSKJIqSisO2ZIZJFkIpiVRIIpPShMjxY8dd/c15l8/7Ch1JJU2DvVmynZw+7XWXzf3P/3L3bZfPu2jWzMNNGRGugMEuIVUBbFEwTCTZBgSmNKXBcP33fnD88e/aMPCMMWAHHcHIFzTYu0gqcekIE1lKhaU3zX7VR9//emqSBbbpgVBapvLTZ9d+9qEFz5ZbgLRbSEagiDamwW6QbP/mS/dLkJGELRo0eCG216x5UpJtSXTJtiTbgCTb9EoSMG7cfpIyMyLoXlIAtqnZZhSTBNh+bNUaepWZs2fPBCQhRhxJ1CRsQ86efcQHP/DeUIsUJDVJEAwXhwGlwhWgiBB5zMyjbl9089tOegsdCWGXSDTYOyUdYQuwTUcI2e7r63vPKSffctN37l+64IMfeM+kSa8QiEpAOBVqAc42w8e2JECOQLgUHctWPHLy29+/fuMGQOAK+4KgwV7EUSgNSIUgNcb2sTMnfuz0GQVhW1QChySTdMngEKJ/09rzVyxot9uSEodUCosCZWYLtRIkGvTEthjXemkBCNtCNGiwI05RUdqme5MmTZJETRK7Z9r0qTiKoshMurds2QpACLAtiVHJNsY2IGnV6ids06vALhOSkck2NamAEHz5i5+fNvW36QhIU0p2imEiwDaUmaEWbk2eeODVV112843fmTRhgumwA5AKRIO9kwOwLQmQRK0UkjCkcUyaOOErX/z8A0sXXXPVZe9518lhRGFlyWYg9BKGTUZEZuKwDSEVgGRTLlvxyNvf8YGn169DKQmSkS9osBexy5KyQMoSFXL5+7OmfOL0WYVJLJmOREBC0CWBoH/gqQtWLtxcth1ql2UgQ0ikN0guhlEAACAASURBVBdkoRTpDhr0QlKgyS/fn0ESAtOgwQuR7rprMbth0uQJ1Gyzm4wkwDYgiS6tXv1EYmqSIRmVJGEjUbvrriURYZvuCSZPnqgI24xAtiWxPZGXz/tq0JYDQnImUTCMIhAZUt/Y3zjv3I/dtuAf/8OJxwGKFB0Sg0yDvZSwLQmwS0jbQEGHMSFAgKmcdOJxl8370kMr77p07oXHzDqi5TGiSLcZNpE2EspQCwcOgytKlMtWPPLOd52xdsNGuxTByBc02IuEo0C2Um6r/P3ZB33iz2bIoAyEW7YhDGSIpHv9m9Ze8PCigXKLoe2MSpYWmVlEFKWL0qZDEg16YXj1yw8QomIEJSAaNHhhGzYM0LuMCNuAJNvsnlmzjqImyTZdWr5spRANQGLImjVPZKYkejJ5ykRAEiOQJMAVtuGYNu13zjn3TBw4IERhlwwTQyZTJk4675yP3Xv3ovPO+cj4vt8gbWELEmMbEhAN9lqSIAGpgJBExWAkAVamSkTFIGn/ceNPO+XtP7jxO/csnX/GB0+bPHkiw8VBRWmlKVESRmlahcIuUT64YuUXvnAxKiAZ+YIGe0BBAUhFmDBSIalAqUxFqoTiuJmvOvP0WTJWQlARkgABAQS7ZCpmq/5N6+asXLih3CywXSCgLAoZpLSRkABJNNiFkCxsC2xTsQHBgS8ZK1NSMx2mQYPnSWoPrnzIRFBYSZdM6+hZMyRRk2QS0wNbKP+/vv0ISwoH3bvr7vsFCNs4bDNqCRnD+vUbH1/9MyR64LBy0oSD6AhIRiZV2IaQ41PnfHTqtN+RHQa106JmmxfHShw4IFFhMB1vnDnjynn/+d67F5x3zsf3Hz8OAsJCIAkCIQmCBnu/4HkEYpCIoKAmagJRmTL5oC9/8TMPLF1w9VWXve2EY6k4DFZKpuIArLQSkGQbiR1RCuSQg0G2HJC2pALScP33fvDNq/7eVBKwzVbJSBM02ANKygLZZSochdKZaRuiQDZvnj3l46fPgEQpgu4ZMBakqfVvWjtn5fxN5ZYCpd1ChpCUpkEvSiwjSNtiKzvtSfsdYFEYRKUAYxo02JZtYMWKhwCRtumeSLYnwKZ7kmxPmzbNmbbp1bLlKwFJCEmMZkKweMnddAS9mvLKyexzrAx07bevHDt+bIaAkKipZhuwzY7JdKgtybk5KE475Y8WLfje92+65pR3/5HANkMk0WA0+g8nHnf1311+35L5H/nQafuP3S88pmzLQFEalC1lCygzIwKb7tkGbANOfe2SS5cv/zdqkgDbgG1GlKDBHiAVJQYKbJepbCkgoGy7ffzs15z5J78rBgU9kbHokAT9A09dsHLhQLkZMBAqhUWZGRE06EkaG3UEcgUcInTYuFcYAwaEbUk0aLAtSZA/efAhQJJtUdC9qVOn8jwSPYrDph0SEUAq6cnipffbJYMcBtuMYv985930SmE5Zs86kiE2+4oApkw66NPn/jlgwjZDbGsb7IAt1IaYPGHip8/9xCMr/+fl875y2KGHQoqElMRzkgajU2JPmTzxSxd+9r57bpt3yRde/aqDBE5RUZoSiIjMpAd2RABSIcni6fXPzPnClyFsA7Yl22KkCRrsAcoSokCoBKTCdqqE4tijX/3n73sDEmDCNj0wFhUB4rFn1s55eNFAuaVArgjS2K0kC2UmDXoRkqnZ2Bpkwkwf91uBLAS2U8I0aLAdW4a7l97vmiRsujR+7H7jx+/H9ozpWgKS+vrGTjroFZLo1Z133SOJbUhiVLINzF90h20Z04spEycFIGwDEvsAg8AuER8+432zjzocQpJtQBI124BtdkARJiTNu/Si8875+PixfSRSWwQEhG1qtmkwSpmKqJjxfS9/76kn37Nk4WXz/vKVEyeItK0ISc62ZNM1yRUcgG1AFIuX3n/ddT9AAiQBqjGiBA32DEklLh1hIkupsHTsrCmf+NMZhBAVGUn0QCgtU/nps2s/+9CCZ8stQNotJCNQRBvToHdpWwxyyHakBUf+5iTSGJnEkgpj0aDBdiRB3HnXUkkMctClqdNeJ7BNzTaEJLoW1ATTDzvULgHRi/kLb0sHDZD0+GNPPL7qSUko6V6Zedj0QyABSRDsE0QlpQIQXHv13xwwbqxBEpCZkqhJYidcArbP/uScdes3mpJIaFGzkURNki0ajE6B6BAQEILTTjn5vrsX/OUXPndA3zhcZmboJbiFkq6FbcA2SkjCTs299EpjSDqCjmRECRrsAY5CaUAqBKkxto+dOfETp88QCWkqacD0wOAQon/T2vNXLGi325ISh1QKiwJlZgu1EiQa9EJSINtIpAUUsaXgqHETkSwQYdlGNGjwAh5b/eTqJ38miUFKuvT6w6YBkoDMlERPbFOzPX3a6yDola1bF9xOzViMUraBHy28jZpt0bWIOHTqwSLYBwVgGxg/buxl874kybZqmSkJcI0dClyi4vHVPz/r7M+lCts8x4BdUpNEg9FIIDpMmmSQA/joh9577z0LPnzG6ZKSEqWyRfckoQRkUFaioH/Vz2/43i1mW8GIEjTYA+yypCyQskSFXP7+rCmfOH0WphbYEAILTLcEgv6Bpy5YuXBz2XaoXZaBDCGR3lyQhVKkO2jQExubWmEiYkuWY0oOG/cKi/9LEg0avKAF82/LTNs4TC+mTj2Ymu2IoFeSTIfQrNlHApLoniTDj2693aYiCTMK2RYCvnXVNdiog+5l5u+9cSbbsI3ZB5gOIduIk0487qTjf0+SbdVsU5PEDohCKiCT9o/m3/6tb19jCgykbUm2pQKwTYPRygwSIYJBohZ9Y/f70oXn3XTD1a+cOAGHKemVJAg5QspMQl+75AoIRqygwR4QjgLZSrmt8vdnH/SJP5shYyUEIImKkClFD/o3rb3g4UUD5RZD2xmVLC0ys4goShelTYckGvREohJyJbQ53FJMHXfgv/uNsQIZA2KQaNDgVyy+6x7CkPTqsGnTIAFJ7Da7BI6efRRgm+7ZRvnDWxdu2LARMKOVBCxfvvKx1T+LCNv0RNLMmTMwZitJ7BNEJRFCkIbL53113LhxQGYCttmV1BYDLkPCccnFX1+x4mFTQkgCJFGTTIPRSsl20jZDpELEvz/6yNsWfv/Et/57JHogGUzgsA1ISsrHV/98/vzbISEhGWmCBr9GBQUgFWHCSIWkAqUyFakSiuNmvurM02fJWCmC5xEFL4KpmK36N62bs3LhhnKzwHaBgLIoZJDSRkICJNGgdylsUyuSypt+69UMEqJBgyG2IdkqMf2rV/1wwe2ULcCUYhcMknBAmkE5fdrBEAwHGQhEASeecCxhepG4tX7DwA/nLwJEIvZpyXMSkpqMxTe+da3AtlzQkeyAbci0cdCR1N446w2AlaLDNiRiXxFUBIRg/Phx3/27y6GNREWFlYBT7ICMqARg5boNm846+zNPb/wlJFulbUgajGbBdkISv2J839hr/u7KPz/jNDoSsI3DtiR2zhaIRCmJWhjD/7j1DhwmcABmJAka/BqVlAWyy1Q4CqUz0zZEgWzePHvKx0+fAYlSBN0zYCxIU+vftHbOyvmbyi0FSruFDCEpTYNhZQcqUMV0vLwojjhgMg0a/CpJttgqELf+6A5AkRAVdkWQmdRsi+LoWUcxjIRkwPYxbzwqS3oSkIJvXXWtqQQk+y5bbCdsU1u//pmbbvoBg1TSEeyAJNsRYZuOoHbSCccDYitJ7NNmzz7yQx84HduE2KxsGRRmh4Ka5IqkZSse/trXLmerhJBsC4IGDXbENiC48MLPXzrvy/o/7MELtN51fef79+f7e7Bckp3o8UyBQBSwghD01CC5UIskAsGepUK51KkQRKBTCBiI2sIEpOp44xIuWi0Xb+OxiHhbnREIaJ01kkSNTpeQRLSuE0mAmTNrEZJNiE2e3/dz/s+THQnIBvZ2g4T8X6+UbSTUFcWuZjRs33777Ygemx1N0OI5JJWKgYLtmsqOAgJq192jZ+x/3jtfL7YKRkXGokcSrN748KWr7txYNwMGQlVY1MyIoMWYkiwMAklh3vDSfQf0Elq0+G02ktjGcOONX6YnbQNOQfK0tB3bR8x8A2PKNiDp2GOOKhGMihzAPSt+vmTZj23jsM2LlCTANiQEIAmwuP7GL1TLbJWSnGJ4krAVBtJGAuYcd7RoBDsHwfvfe97kSXsrqi2FIaxkeKLQJykzceeGm7747Tu+l1QaBkISYJsWLZ7ENiDJNiB4x0lvO+Xk4yXREyilwqhIemTDo0uWLqchAWJHErR4DikrREGoAlKxnapQZs3c75xT/xgJMGGbUTAWDQHiV4+tW3jfXRvrloLcEKSxO0kWZSYtxphrAgZnJvXESa+jRYunJGHTsA1599LlDzzwkOkJdTJTfTyTdBcQFPnYObMYU5JsGq/YZ69DXvNHkhgh0yMJuPyK65CxJfGiJhmC7Twy+OgNN3wBApBkOzMVZjgOCPrUhz150t6T993LNmDTlxC8mOXA+D0+ee3HXDPKLpndkOXgaSjpCZEK03Dn/PP/9oEHHoJgSNpVEi1aPIkkwLYk24DMNVd/eOb0w+SgJ50SoxTR+f6SHwoQfcmOI2jx3JJUcXWEiaxSsTRr+uR5p00lhGjISGIUhNIyjV/+et1FP1v867oFSLuDZASK6GJaPAfsUgq2hUOzX/6qvXYZR4sWT2B+Q6IhOdGVV32q6y49YWpEoLTFM4mI6pQ0btzuhx78GsZYSAkYn3Ly8bYZBaVtpCXLln9/6XLCvIiZhi0elyZvuPEL6zYMRgRQMyM6othmOErANpCZgO1j57wZUhI9pid4kQtJM6ZNff+C8zMTFdsMT3IDsA0BWGnl4GObzj9/YWLENkGLFr/NNiAJkERDiO61iz46cWCcwQRKRkWS7SVLfwDYpifYcQQtnkOOojQgFUFqF9uzpk2aN3eqSEjTSANmFAwOIVZvWnfJysXdbldS4pCqsCgoMzuokyDRYkxJtVYkmXCestdrq7Bo0WI7omGbPruaWLJs+d1LfxRBw6lGZvK0JNkGMjPUsX3ccbPFc8J2UI47dhYkI2QbUlJmQl555d8n5kXNrpIYkokeGXzsH67/fETUWiWFlBWUkhmetjE9RfWUk99umz5J7Ezed+FfH3Lwq6Vim+HZpiEhuU8kSttLl/3kyqs+Y7ArhCRatNiebUByA7DN42LfffY866y/FI0AwoyUbcDE2jUPAZLY0QQtnkN2rdSClBUVuR45ffK8udMxfYENIbDAjJRAsHrjw5euunNz7TrUrTWQISTSmwtZlCLdQ4uxZBGSwPaRL9//5buOK7Ro8VQkAbYlAVdc8UlRqlMQEbYjwkqGZzsicEhuQM45bjZmDNmmJ+ibvO+k4459MyMkCbBdImwvWbZ86bJ/4UVMSAJsMLaFPnDpRwYHN2VmRGADkugJhmdbUmZGBPbBB7/mtYe8WioMSXYaxsC1V39UtRsRDE8qtoHMjAhJtnAADl9+5ae/v/SHUrFNixZPIsk2hCRAEtvYapx91qkTxu0hgyOVjJAk25Luf2AtO6agxXMoHAXZSrmreuSMveadPlXGSghAEg0hU8UorN607tL77tpYtxi6zmhktcjMElGqS7XpkUSLsaS0Q0rv3nnJKXu/jj6ZFi2ezPRIgrh76fIfLPuJbVGAdBfITFEYniTbbDN+/PjjjpmNGUOSABtkksaxc2YzQgITkA2pGM4//2JIXswCkIAqlbuXLr/llm/iiMApHJAoAUk8LduSMjMiTjn5REi2sc3jkhcr0yNDvvagAz/0oYtqYoblVCPdjQjbgBo0siaE58+/aP2GRyX30KLFE0myzW+RlNSB8QNvecubA9wgGLEE3CBWrFhhmx1N0GIMFAoglTBhpCKpoFSmIlWhzJ72yvPmTpexUgRPIgrPgmmYIas3rV+46s7BullguyCgliKDlDYSEiCJFqNnIRAU07ANqGG6kW/9wwP/3R+MA2wjWrR4nElAPO4Dl320i1GKHkmAJGyGlzYNdVFB+WdzZoskGHMSIgga//6kt02etLeVVrJV2EocDMMgGiEJEKx5cM3HF90ECSRmG9NIdnjJNiaASz/wkapAaQslSgj6bDMMEwxJNVKnnPRWtiMVHhe8WAlIERAEZ7/7nW+c8X/JkTaSwSnArjiQUAJBwWZ77oTcuP+B/33+BRdDCGHzuISkRQtJPBU5BMcdfVQVajBiJkQjBesGH5PEjiZoMQYqtSC7psJRlM5M2xAF2Rw1Y/K5c6dCohTByBkwFqTpW71p3cJVd2yqWwpKu4MMISlNi7EkUDpFxVUkluQGdOUDdn/ZyZNeRyONRIsW2xNhmz7bl1/5Dz+9915GLiRICNtyvOOUP7fFc++UU46XwykajqyIgpJhiCeQZPvKKxetWPmvNoEA2zRcIdjhBUNS8ieu+MyKVfcxGmkbsJDjpJPfOmHCeAh2RsF2rr76igkDf1DUqblFEiFIqaC0zXCUgCS7Lr7jOzfc8J+NJfG4gKBFi6dkW5LtmUdMDxkwO6OgxRiQSsVAwXZNZUcBAbXr7tEz9j/vna8XWwWjImPRIwlWb3z40lV3bqybAQOhKixqZkTQYiwZkMIEsh0IWxLQsf56/5k0DCEZ06LFE0miJ1es/MXli65Du4gRc6phGjF50t7Tpr9eEs+9s888dcK48VJJG2VIzuRZsx3RgThv/t9uGHwUY1sSpFTMjs/8xtJl/+OKqz+ZLmLEREqyUhSU719wDjY7Jdv02YacvM8fvnfBPNudKLYhbTEkeFq2S0Q34xNXfvKeVT9nOzYN24BtWrTYniTbkgYGxmV2FWanFLQYA8oKURCqgFRspyqUWTP3O+fUP0YCTNhmFIxFQ4D41WPrFt5318a6pSA3BGnsTpJFmUmLsSTATiGQhA0IsE+aNOWA3V4GGAPGSYsWT2Qb0sR7LviPSLYajJDCNWnInHXWqYF4XkwY2H3OsbNkJNEnyQTDs812bAP3rPzXy6/8JEKIngDEjk/05foNj512+jmE7cpoiWJr5vSp++6zp5DZGUmCtC0JQnD2mXOPm/MmZxGoQQHsKvN0JGynGo88uvGCCy5ev+FRSNuARENyQxItWjyJJNLAzJnTM5OdUtBibEiquDrCRFapWJo1ffK806YSQjRkJDEKQmmZxi9/ve6iny3+dd0CpN1BMgJFdDEtxl7aipBJ9yA5lPaUgX93yt6vo2GEAKFiWrTYXkqCeM/8hfesXGFbctqMkG1JEBMn7PoXJx/PkOS55njfe+cFCSG5IbnB8NSXmTxBXn/Tl758y9cQfQnJi0HSE6e/a94jg486FYW0GbEAbIl873vn4WDnJok+24Krr/7IhPF70LDpiwiUDC8TSSgVBn5678+uuOpTiRp2ZRtJtGjx1CR2bkGLMeAoSgNSEaR2sT1r2qR5c6eKhDSNNGBGweAQYvWmdZesXNztdiUlDqkKi4Iys4M6CRItxlJEVCcgyaKYMC/fddz7/uhNosfYomGBaNHicSYgv/KVf/rHr36DELYAJaMS6Mx3v3PCwDjANs+Lyfv+4ZnvPk2kRcNWRDAM24DtUgrbEVh52QeuvHfFzwGTEJgdnQnD/PkL7/7BcsICUlEYHZEzpx/2J9On0hAi2UmFbfok2Z44ftzVV38kTI8SRyaQDC8QDkjbUpF8/fVfvO327xok0aLFM1MCtiWxUwpajAG7VmpByoqKXI+cPnne3OmYvsCGEFhgRkogWL3x4UtX3bm5dh3q1hrIEBLpzYUsSpHuocVYysyisA0UVPHuZZeLXvWmPcpLSNOQBIkFmBYtnuC/3vHd+QsujoisSMIhM3IpGBi361+ddQZ9kiB4ronG+947b+LA7lmJCBquDCMibAPuYxtJwMMbBk848fRf3b9WdGiIF4Hrb/zCV279J0gctnGQZuRMI9+/YB42wjY7K9uSAJuGGvCWOUeddPJbJQO2I4Knp5QERIRrAi6d+Rf87er7H4JgSEDSosXTWLr0BzjYKQUtxkA4CrKVclf1yBl7zTt9qoyVEIAkGkKmilFYvWndpffdtbFuMXSd0chqkZklolSXatMjiRZjzJmSgLSR3vfqo/bbbaIxUgWlDWEBVbRo8biVK1ZdMP/SLrZrSDhQQjBCFjjOOvv0CePHQZo0zwcDqQkDu5555rsluZGCZBiZGRH0SaLPYFvZkfzw4Loz3n3+hg2PQpod3i23fP2yy67Y4i4EtigoIRiVY46dPXPGYVAMSDjYKUkCMlNiiBF88IMXT5q0Fw6FGxA8LbPFdDKzyLhT2bx+w78tWPA3tGjx9GxDAmvWPIAKIHZGQYsRKBRAKmHCSEVSQalMRapCmT3tlefNnS5jpQieRBSeBdMwQ1ZvWr9w1Z2DdbPAdkFALUUGKW0kJEASLUbJNiB6LAQWAgs1wLbC5+4//dA9/k9EIEQBQgJEo9BiJ2K2kzRMXxoM965c8dYTz3hkcAM2hG2UPIPEAdgVEodtSNyZOGHXvzrzVJQQIsTzJQS878K/2nefPQFJFg1RcNBnm56UZJsnEhhQCoJyz6qfv/3EU9dv+DfxBLZ5wbMNCWm4+eZvnnfhpRWHBEhCyaiYKM6PXPa3kAiBACU7sYhgGwuSl47f9bqrPqyoOOhJSfSkJBoOepIhIRJIgbK4WPnfl/7kE4s+RcM0EtFijBls+hISsDE7kK4kCBz3rlgl0gKSERKIgrrAoa85CNI2ZgcStBiBSi3IrqlwFKUz0zZEQTZHzZh87typkChFMHIGjAVp+lZvWrdw1R2b6paC0u4gQ0hK02IsSQK2yNgFGcKkKKgbNKw8d7+Zs152ACIxLXZ6YjtBQwnYEnnzLd84/oQzBwcHgYgAJPHMAqVdIwJ3gIiAEHnWmXMHBsZBMCR5/oTgQ5ddJIqVpGgoUUqyLck2BM/IgXTvyvve/uenrN+wCRISsC2JPpO8ICQkJCTbSLYFcfMt35i/4GJGRTINB2BbDXLBgvP23XcSBI8LWvTZBNCZOXP6WWecipKeSJuesA0o3JAKwwhJ5OVX/P33l/0IYTsQLcaYQMI2BIRtKcUOpEOf8e2L/9m2DAQjl5lSmTBujwkTxkNIYocStBgBqVQMFGzXVHYUEFC77h49Y//z3vl6sVUwKjIWPZJg9caHL11158a6GTAQqsKiZkYELcaSoCt3LKTMtEhbptFJ7Pqe/Y6Y9X8cYAwEokUL24AZYgtS0le+8l8vuOCSRx4dtC3JfZLos83Tiuhk0rDStiiT99nzwgvPxeb5JXpMz5/NmX3sMX8KRASkbcCuEdiOCJ4FK22hsmLVvx5/4r+/d+UqE7YlAzYNEfz+JUMCgseFpMuv+vQFF1ySYqRsS8pkK/U5NXmfPc8861TxBLZp0SMEaSN434J5hx5yYFoNwPTYlpSZEWGbYdjGnYh4z/kXr9/wqBAGkhZjKmlIsiukJFuQ7CgMBnLD4MZvf/uuiA5KRkVhUodMOYgdU9BiBJQVoiBUAanYTlUos2bud86pf4wEmLDNKBiLhgDxq8fWLbzvro11S0FuCNLYnSSLMpMWY8nQSRqJDTIhYaddqeftf8SRLz/ANhIN02KnZBuw2UoSIIZIXr/hsfPnLzxvwUWpFCnJfRFhG1AfwzA9WRHFSkluUK9d9LEAyfTZhuB5YZut0tdd/dGB8bu5QaQtCbAtCZDEMGxLAiQBtlC5d+Uvjj/hjHtW/FwShG0JG8wLQEBA2NiYPtOYN/+iK6/+dLUgGKEIaq2i4KDUmolD4WsXfWzi+HGQ9NkGJNGiT0BINCYM7L5o0UdCTpttJGVmRNhmeJJQOnX/g//rvPkXIbBpMdaCrSTZBiTZZkchtrr+pi+tf3SjU3ZFhVFx6tApr+Y3xA4kaDEykiqujjCRVSqWZk2fPO+0qYQQDRlJjIJQWqbxy1+vu+hni39dtwBpd5CMQBFdTIuxZxER2DK7KDLTgKTwefsf8aaXH4CNJPpEi52S5IaEzVa26UnIe1f86/F/fvrNt37dSgjcsQ1EhG36bPMMUhJgKiBpzjFHzpxxmNgqAUk8L2wki0YSmjAw7tpFHzMIgpIVCMDbMIyIyEwadsiQ2MD6wU3HHHPCP97yLYMkQOL3Km2zHQkJge01ax6affTxX7n1n7ZkJRwORshWKcU2ykZQgDPP+MuZMw7DNOwKSKLFsF578IHvXzBPJCCGSLLN00obUhLk7Xd99zM3fJEwBC3GVkICtkTBQCKxw0iU96/5X5+5/nOAwpLsysgZOsGMaYezYwpajICjKA1IRZDaxfasaZPmzZ0qEtI00oAZBYNDiNWb1l2ycnG325WUOKQqLArKzA7qJEi0GEth0naosTlrKQUQnLvfzFkvO8A2kgBjqLTYWYUkQKJhV8mQJj5xxfWz5xx/z6qfoSIHfZIA2/RJAiQxDFsNU1GGOqQmjN/tmms+Dl0nDdv02UDyHJOAgIRIDPlnc2a/5dhZkIAkHBAN2zwNG5AE2BbbKKt4z4KFc884d/2GRzGNVOX3R5JNX0JCmgTuWPzdWce+9Z6VvwRKIEglI+WwrbAk+ibvs+f7F8yDpE+STYunkAwJzIIL/sOUgw8UaZtnT4k7KAW2L7/qUz9d+QtajLmAACShRAkhgh2HiUsu++jg4EYcmV0IRsV2ZveII2bYZgcUtBgBu1ZqQcqKilyPnD553tzpmL7AhhBYYEZKIFi98eFLV925uXYd6tYayBAS6c2FLEqR7qHFWEohIC2Q5L5z9ps562UHINSgx0JQTIsWiYqJ7y/9yWGHH33lNdfVDAjbkDTUZRtJ3g7DkJxJBA3bqPu5z3564rjdbCmAkApgW8IWzxebQPRdu+hjk/fZK+jSUKZNnySGFxGZCUhiO5LS3dsW/7c3H/PnS5YtTywKvye26DFgG8LE+vWbFn7gI6efcd4jg/9GGJsUpBk5JSAp84ajagAAIABJREFUM0VBm2+66boJA+NsSdiCkLAN2KbFbwS/IUReu+jj48fvIZmtJNMjiWHINGxD4s7g4OD8+Rc9sn4jLcbYlVd+6vwLLl699qFEEOxQTFy+6FO33fFdQGGpiGKbEbKrpOPmHD1hYJwk2+xoghYjEI6CbKXcVT1yxl7zTp8qYyUEIImGkKliFFZvWnfpfXdtrFsMXWc0slpkZoko1aXa9EiixVgKk0KSbTVg3v5HHPXy/RCJaZhGAiZlWuyckiGZ6O6ly48/ce5JJ73r/oceSCtkkTRU6An63CcJkMTTUIriLKYRZ58594gZh4kiFUj67CoJkMRzz64mJDB2GCaM3/Wmm25AaSogKW1JthmG+yQh1UyDwWDADopg9dqH3n7S6RdcuHDD+vX8nkgCJAFSMdxx+/eOPuat1994c3UJ5ExJNNwRo5A4AFGC8neXXfzaKX+EkQRdSfRJhpREi+0lfaYRUw551fsWLLANGGxLAmwzjHDHShO4IxJ37lmx6oqrrqPFGEtx81e/efj0o0848fTbbr+LnmQHccst37jyqs+YoCdxJDUkRkgScOyc2fRJxuxYghZPoVAAqYQJIxVJBaUyFakKZfa0V543d7qMlSJ4ElF4FkzDDFm9af3CVXcO1s0C2wUBtRQZpLSRkABJtBglix47MWBbkJhGmoYkOGf/6Ue9fD/RE4iGaBRABKLF75mVOOhJkjFhG7BNn22GJCQNB2D49h3fO+HEd51w0ulLl/1LteQQQwTYbEcST+JwQ2mlbUmAlTIorRT8ybTXf/gDfyPSoi/okwrPI6mIPiEhQPG6Q1559aIrJAPFyEEjzDAksZUdkkAgEENsi7T9j7d86/XT59xw4+fTNGxD0md6bPNkyXAMhjTGNtvYZju2+S0rV/3i+BNPPe3Mc1Y/8L9RKmyqJLZSMjxJBiuthAQMphGomzbKOUf/6V+/+zSBRV+HxwUELZ4k6BNbxX848+Q/mT6NPjlsITG8VApEoqShlMr1N33pttv+GTBb2Mo0TItRM4GKiSXLfjz3zPNfP/2YT1x145o1axiSDMM227HNb7FNn23AffwW2zwV2wwjzY03ffG8Cy+xLRKwhVI8M0k4cLCNiYnjxr/j5LdBspXYsQQtnkKlFmTXVDiK0plpG6Igm6NmTD537lRIlCIYOQPGgjR9qzetW7jqjk11S0Fpd5AhJKVpMZZknBkN5IYw7GK5ISx2K7u8/4A3znrZATRMixcyJWAgsNL8TmxLsqtkSLtKZkhAYH714Np/uPE/H3b4sWecMX/JsuWQqS1WMkKmKsKpoIiSFRxyQNiWY/I+e37us9chIMQLUJxy0v999hmnA12sMI0UoyUJiAhgcHDwP37gqsNnvPnLX/k6Ej0JCAxIttmegydLSLtaWGRgIYltJAG2gcyURE9Cmvx/16w974KFs958/NIf/AuESEbINg1HUCBwiG3cwZ5y8KuvveajCAjRYrTimqv/08Tx49xQSsaGZITes+BvfnX/WrELJA3REC1GLWRnSrINsXbt2iuuunrqjOPefuLpX/7KNzcMbqIn6bPpS0hJ9CRkUiU3AJttUhJ9kgD12abPNn2SeLKElNzgNwwGcv3ghvdcePFFl1zOCJmezESJ0ra2grPPPo2eAGxBskMJWjwFqVQMFGzXVHYUEFC77h49Y//z3vl6sVUwKjIWPZJg9caHL11158a6GTAQqsKiZkYELcaUXUrp1goI1IAqJNkeiM4HDz768JdORggQLV6QwiFHmDAiSESIkTO26ZNkWyoQdkiFnjSsXvvQP9z4/8w69vg3TJtzyWUfX/PgA1VpMBEUMQppOyKyorDCKGk4JE0Yv8fnb7pu4oTxps+8AMl8+IPvP+7Y2UC6R322JfHs2KZPkvskuRHdX639/+Zf+HeHHX709Td9ef2Gx2xjBAJJbE8MMRgMDhyiCLADib4Eg9lKEhARDIklS388/8JLps045uZbv15FWqKEGSnJAjls01DaDom+lw6M//xN100YGGfSNqbFaE3ed69rrvpoSCjdhwojtG79xgveewkNB2AaiWkxWrYl2zUi6AkIyCXLls9fsPCAgw6f++733PzV/7J+w6OQYHoCgiEBERQISbalZEjQZxuwDWlXyZCQkumzzZAEbENAQEiizzbC4vtLfzL76BNuvuVblMoI2QYksZWUdtrh/IuT38Y2kgDb7Dg6tHgKympFwajikIqzphLKrJmTz3nnHyMBJrAlMVLGoiFA/OqxdQvvu2tT3VJQ2oRIAx1rc5FqItFizKTAjgiBpTCmJ+0Ju+x6yUGz99v1pYBtJNHihakqgRSJaASjJIRsSwIkmR6Je+792b0r71uy9Ed3L/3h2rUPspULqpAh2RIlayoYqYiOG5kK2UBKsgUU/I2vff6Qg19Nw0bihUkJcc2iD65Zs+anK+5TI11xRGQmIIlnoj73RURmApKwpJry/Q8+tPDST1x++afe8pZZp5z09pkz3kCfbUk8ifhtkmxLohEMMUOUhkcGH/vKzV+/8cYv3b/2f6KEkJFkZ9oRgc1IuAcpAcm2IiIzJU0c2P1rX/38vvvsScOSTArRYpRizpw/nXPMUbcv/meDJGdKYkSk//795Zdf9en3XfjXpBWGoMXo2ZZkY5uGAyUEfRFx2x3fue2OOyVPmzbtrcceNX36tCmHHsQTJA4aoi9sS2IbSbYlgcAgtrGtPvpMYEuyLQkzREj6/tLlV1z5ySXLlhtUIIMRksSQTEsqkCGfdebcSfv8IUMSAkJiB9KhxVOTVJ04wsgVFavOnjb53NOmso0MEqMglEZC/PLX6y752eLNtQuk3UHVNBTRzQTRYowFsi1IICRjO6TxnT/4wIGz99vtZRiEkGnxgiWQ3AAM2JIgIRiJRx7deM8990gFa8WKVevXD664d9XatQ/8dNXPBWqkU0ASsi0SAsIZKE2NIpuRysyIAAwoJdVKhKR65RUfmnLIH4H4DfGCFMDE8RO+cesXjz/xtHtX/twqomYmEBGZKYlnYps+2xHhPkmZSCHJ5PpHB798y7e+fMu3XjFp7+kz3nDcnFlvmTPbpGgEBqVtqQC2JbGNjSTAtiTAgBJYs+ahb9/+ndtv/96yZcsTUFpERNYqio0CSTUzJEYoImxLTgyyhQp0b/3aFw49+EB6UgpbClr8TuKT13zi9Ycdtf6xDXY0bDMSAocvv+pTR8x4w8wZh4EhUdBilKRiSwyxUgyxTZ8Jm2U/+PGSH/5QZt9Je8+c/oYjZh7+xpnT9pm0NwRiK0m2JTEkIQBJttXHdiTZlgTYloQESAajAAy3Lf7O9Z/5wtIf/Q/AShzUQkPJKIUUgGBg3O4LLjgnKLYlQQC2JbHj6NDiKTiK0hZSkWtqF7nOmj5p3typkIAJkSZkECNlICRYvWndJasWd7tdhaqzSBUsOlY3s4MysUSLseSGQAqDCZOwe9nlktfMfuVuLzMIuriDRIsXLqmmpc4JJ50GIRl3bKNkLMiBsmZGwSkIJUHHVEm2FbZppA2IkZFkm60cNiGwr77qw+84+XgSIm01eEEyKQKDmDAw7htf/dwJJ77rp6t+LpAEZCYgyTbDk2Rbkm3ANiAJEAVTXSPCVBwQv3rgwftv/dYtt35LWWfMnDblkIOmHHrgpEl7vXHGdAnb6rMtiT6Jhg3S+g2PrehZ+d+W/Hjlyp+tWfOAJBpKi4aczk6oY6rkTCSFxIiFUwpqOqKgwBXy2kUfOfQ1r8YgICCloMVoGYSk8eN2/eQ1H5t71rnJqDiIruH8+RfftfhrEyeMp8XvxDbbSLJNw4ESyfSInkhbHci1ax/86tf+yy23/pPtgYGBmTOnv/aQ/WfMnD5p0l6v3HcfyXZKoifYRhJPZFsSfbYlAbYlGx4ZfGzJ3T+4Y/H3bvv24vWPbqTPthSS01UURspWBJCZCrlmKN+7YP7ECXvYSLKrVGxLgoRgB9GhxVOwa+IO4ayoyPXI6ZPnzZ2KQUBgoxBYyCBGRPSs3vjwpffdtbl2FerWGhGGkGrm5iJQJmkDkmgxZkIyyBhsJ+z+kj+47MBj9t9tAlvZHWQhWrxgRQqK0yrFqVQXaoRsRsQEj0vAdkRAAiGRYEdE2qYKbItSuzUKktJdURgh25Jo2KGOqUF30VUff8fJb6MRQEg4USQELzACG4m+nDBhwte/9sXjTzzt3pU/Z5uIyExJDM99gO2IsM1WDsBKIVMBAQYxpHSWLFt+97Ll9EV6YGBgypSDTR0YGD9lysEigUfWD65Yscq2FEuW/VAqtnFYaVsqpkcNm4Y7pqItEJlEhF0hGDlTsUpEWqIG3UVXffwvTnobfbYlQ0BC0GJUxFaS5sx501nvmnvD5z6XLmJkbMugcv8DD85fcMlnb1wUCBKCFiNmOyJsA5Js02elGjYQJkWjCpG2pV1qZoSAwUcfve32xXfcIV/5GUkTxu1x8CEHvXLy5H323XvKaw6aOHH3SZMmTZ68D0+QOAAhQBIgaf36wXtWrVxz/4MrVty3ZOkPV6z6hVOmRoTBViApJWU6IjKrECMREZmpPkiFZ0yfevaZfwkp0ZCKbUn0BDuODi2eQjggbaXSqrOmT5o3d6qMlSIASTSETBWFEVu9ad2l9921sW4BqjMaWWspmVkiVBOwBEiixViqeBerikZIu5ddLjvwmP13nUDDWBAyDoRBtHhBqmxRI4ptECCHnClGRHTpCbaR5EwkhoTATvE4syUKEJkZKoycJPokZeZLJ+7+9a9+acohr8IgTIoAFNghJQQvLCFhUoQtxMDAuG/e+vm3nnjmypUrAUmZGRG2eVqSAEnukwQ4uqQxUiE7QFKlFEPSFog+R5buIxvXf3/pMvXdvvifeQqRmZJQN9jFqpCQUslMSTTUFQECJLlBAGJkDJJs00gmThj3d3930TtOfhsGYVLCDglbUkLQ4neREO9777zbFy9e/cD/lBkRhXEH0vDt2++64cYv/9WZ74CgxWhIyuxKhqBP9Aiw6UthfiOlSHdLRFYUYHdQgiRg/aMbl/7gx3cvWy4JkIOGEhg/fo/XTjnYNn2SbAMJK1asGhzcSJ+ktAHbkkJhWyBV21BsKTqZXckgRsK2KJBAZk4YGHfNostFFzpsIwkSgh1Kh51boVSqVJQVcBTIMFUJARXK7GmT582dirFSBE8iCs+CQRhEz+pN6xeuunNj3VxQ2kUy1FJkkNJGok8SLUbJQgY7RSDbIVUcqGIbwa6dl3zooKNfsdsEthKiR4iGaPFCJRUaNg2lHCgTxEgFv0USj0vEbwn6JPH0wlkJCQdKSAgcqAsB2H7F5D0/e9PfTznkVTREQwTbSEDwgiQCkETfwMDAt2797PEnnHrvz35hkGQbMAFJQynTF5Js80SS6JMDMUQJBGI7YjtKOWiIhm2GIYmeMJUhYVsSQ4InEk/HShykFGY7opEoUJk4sOvXb/3ilENeBYkCEAFINCSBaPE7CmBg/G5XL/rYiSee1i0og1QU3CBESrLNUzFICYg0cflVn5oxY9prD3kldCAhALtKhRbPilQgTIhkGOI3ApBkW8FWKZ4kJLZSss3g4Ma7l/6IZ2Jb9EgCbDMkJPoSIwnEs5ImANshoUTCLsG1iz4yed89MYgnCnY0wc6tUguyayocRenMtA1RkM1RMyafO3cqJEoRjJwBY0GavtWb1i1cdcemuqWgtDvIEJLStBhLMs6MBnJDGHaxsNMuEXt0XvKhg978it1fSiNNixZjL13UwWGllbZoqGs6gFJvnHH4d+78+qGHvArCFju4Cf8/e/AC/fld13f++Xx//xOSmczkAiqSzJAJSK5oJUoyCW1kuCRAPcgebq5CXAt2gWHRQNT2YAwB4p7aCuq2Z7etq/W0W2+I9rQruSC1pwWUtrvbYi5YEAgUV5EYkhBM/t/3a7//32QgIMFm9h8yk//n8dh1/LtveMdLXvRdZuokNovMglBMUFBAEo5+9ppgzawks0qKSkdTux/3mHf8+i+ee86ToKAY2HTNIZqL9n3b61//WmbJXBPdDSQzqe7mAahJ1CTAZz/72R/8oStu/+znoaECyawTA1udyopOglAKxIYCrrj8Nc+99Bks5BGg2Np0mgkwkWRue82Cgnk968/ad/prv/cpclBxWAyRDSp89K7PXHnT9XfN9wABylkic3dVMbCpkmma1ucZEFzALIG1aTpW33TmM/duPzkQmEsGBjZf1jrruC5NKxMbCprUG97w6nf82s+fsHOXLFrlqNdSP/u2t1zx+h8oJWudqKwkIQUkUcPRzyZF1liRbWlxPW3puec84d3X/cY3n/1NSYAw8FDIBhZJSN5w+au+5dwzoZIZBcqEuap4AGFWu7tqDQj1wRtv+cm/+w+ANLIoVpIwsFVpEhapnrk/e43ML37hd77+h15tWIRHgmJrs2eoCXEGdErSzjDtv3Dvq1/2rSgQKgmHIUQWAvKxz932xltuuGu+d8IshA7JWtOT3c3AZmrppKoEtELYIBxXa1efdclp208GBGEKAwObL7YGKnGBzSL1+FMf++vv+Lk3XP4qgUAKCpqjXrHoXHH5q/7JP/rZE4/fWRoWzYqVRVV1txz1kljBlimJlTDLttKXvOi7brj2nSeesIOUCB3CwOZzAwk6aaR/6u9dMyFZs8KGUsNfolzr7iSaxH/4v//iu6791xZJ1GQGVAa2qpaDbGw2NDRg5cUv/M6ffftPkLAizdGv2PLUmcypCtWzTtH9F+w58PLzKJGFQeUwiB3D4sOfv+1v3Xzd5+d7gU7W0CBYtU4Y2HyFSUg6iSySCMetHfOmM5+5d/vJQtiQBBkY2HyyqIBVpEgV66985Uvffd1vPO2Cb5dmIQg0FEe5hA0lqec85+LfvuFXzz3rTOlQgcDcTSWZXeFol8qGuZnVJFUcv/PYn/17b/2Zt72lBApBoAoZ2HSVhA1hQ0F9y7nf9PrXvwpIC60CSXgAxQR0t4vKAg312tf9rY/f+imRoFMgCQNbmqaZrQqE6gi8+IXf+bNv/wlpFYGG4uhXbG2pyQ6gk9BuS7L//FMOXHaeNHRYdIBwGAIpkY/efduP3Xjd+vq62qR0lsiE3b2Gaw3KwGbKQlKWVqiw2D5te8tZz9q7/eSwQTaIDAw8FOwAahb2nt1f/2u/+k/fctWPnrBrOxsKSGY2FDRHOSELQJLsPvWx777+137g+79PEIpJBSKa7uZoN82d4CSQqnDOWU965zt+8UUvep50EiAQBh46KqAm4ZA3XP6qiy54SjEBSVRaHkAStSaSsLDZ0J+963Ov+8EfRZCVVhnYquxkntPlWjemTJX+wCsu+5m3XSNNC4RFER4Biq0tmWfmCe0ZJzNffMGeA5ddQFgpEighQniwBOGjd33mypuuv2deT7k+z4WBUjr3TPRkS2cDA5uptLBCoJN1sv2YR1111iWnHXcShyQhzDIzMPAQSIVFcuLxO3748ld94P03PG3fU6SgWElmlZUkHO3EBSTRCUp4y9U//Ou/+ou7T/l6c69AKm1iVXGUSzsVZAaK9csv/x/ffd07n3z2N6lJqdCCrISBh5LKSqL0T7/9J3btPEYnIIkVHoDa3UmqypQpgaTje3/vP/7kT/39sEE2hIEtS6eptnV34WRO2PWon/6pn3jzVVeQQFHyBfIIUGxtlZowsc2688X7vvHA951niA0FqCzEMMth+Ojdt115yw13zfcG1tO16DnS3VPVNGeaEzaoDGymmUwhbCg9fu2Yq8949unHnsCi00BQkcXUDAxsvrAG/QN/43v/w+++54ofeo0BCggkM6BTUkASnTjKhZVG5H6etu+vvOeGf/WKv/F9gFBVQBKOclNVepJtF15w3nXXv/OK17+azKZCKSsFDSRhYJOF5osamg2twtqe3d/whtcfSBsWzQNLogJpZWLFBd3J333b//rv3vfvoUkBTTOwdXV3MVk568wn/MY7/tl3v/h5djTQCQRZNI8IxdYwMQE6Vaigkzph2221M0zPOP+01152gSG2FF9GJv4bhEW4z0fvvv2NN11/x3yPkGRCYJ4mA9oJigIqA4cpsiFpAiQRmhTOZEFy7LTtzWc+6/TjTkA2lBMgB01AMfCIpnI/SdQsINxH5S9IwkoSHkBYNPejBo7fufN7XnTpf3j/b7/lTT+6c9dxCLLSgk6sKAuVo5+sFMiXSO3a+ai3XP3Dv33trz/tgm+bQijckESmJGxoDkpxP2paUjzEYocv0UkgVCAJNIcE0p6w61E//bY3vfPX/sk3n32GlE6I3F8BKjKwqaT4ooJiQwUSFn/zFS972r6n0OIUmxSHxKbCIsUX2GHmftS5+Z9+6G/f/tnPY0NPFCtJOCQBmoEvaGjDQVlQQBKVlUAA5S9IZmi+JsJXoHYSCItmkQLCBmt+xfd/zzt//Z+ec/aTSFFCQSnISvGIUGwNM/OEydxWarLT3UmgJkx4+r49r7nsPGhsKR68ACFCh5WP3n3bG2+69u753gk7WcNAqR0GNpMh3bXALCSwLZJ0MlXtWDvmzWc+8/HbT2LRYWAr6m6VQ6qqu1UooJNAJ50EwoYkgMqKCrSg0MmcRAVMhbVAIKCe+riv/+HLX/V//+71b3vb3zn11McCKpAESGSrEagk557zxHf82i/81E9dfdrub3CmE6vmrKtJdOIgmxUVmLtd6/ZeHmKmhFChAoFSQVpaDcWGBnbt3HnF6//m7/3e77z0xS+QDUkYePgJSlJQP/fz/8uJu7aTkIqdRAVk6m4WNg9ATWLNn/jEf33dD/5o+BIqhyhQDKx0Ltp3/imnfCOVzmKuAteBqupuIIkgkAQCaBJWdILiIZbEBaiBQCB2IEmpYIqsBVL3BEw9/pTH/fov//xbrrrihF3HJyCPYMXWoNNMgIkkc9trFhTM61l/1r7TX/u9T5GDisNiiGxQ4aN3febKm66/a74HCFDOEpm7q4qBTZVM07Q+z4DgAmYJrE3TsfqmM5+5d/vJgcBcMrAVqVlRgU6s6kSaZKoSSKYqDlFZUQOBQHWRdLTW0E44yHUWyXMv2f8L/+jt/+F3333F5a/ZuXOHIBuSACqgsuWsQ6tQJC998Qt+733X/8zbr9596uPIXAbaqk7UCl/Q3a6kLdd4iFVYSEMDSWQipWlChUWmytpLX/hd77nu1664/DUn7TyWzKyoDBwplMWJO7f/9M9cQ4qFreluoLvLNSCZeWBhlonUu6797X/4j/9Z+Is6CZAwcFC5b99T/uPvXv/z//htz7v0mRPb0pMpdO62KolMSbifJCqg8jVRVd2tAgKJTmRN0ABpsXGdRR514vE7r3j93/zA71530QXfLhMd7dA8cq2xNdhzrIngTEqn9Nw2TPsv3PPq7/1WFAhFovJghchCQD72udveeMsNd8/3TtgJJR1gLd4z6dwoA5umhaSqhGiFsEE4rtbedOYzT9t+MiAbpoAMbFVV1d1qEkAlVZWD1CSm1PZeUkBpEpIJgdkGpqqe0cIOYJ9z1pnf/eIXPOeS/Xt2nwIESDQgK2oSNYnKllNQQBKVlZe8+PkvefELfvmXf/Mnf+rvf+yTf5SeyyTVFrm3aq27y7V5fa6JRbpVHkozEYHSJFWVzCHJJNLs2rnjv3/Jf/eK7/+ex+85lXCQTkCCkkQDxcARQeo5z774OZd+x29d+9tJoRKgNDMWVZXwFTVzMdFiN1x55TX79p3/zec8iUOSaGmDysB9WirwvEue+bxL9t9666d+6Vf/xT//lXd+4tY/mlxLZquS1kqCba+pYQbU7rYqiTy0OkG7WwVUMptCei5Kp5CGOvH4HT/wyu//gVe+bNfO46SpYqGgPJKtsWWoc5pUBTPjFOdnnL/nNS8/j0MMKIdB7KDIhz9/24/dfN098zrQyRrOYWHVejfIwCYrTCI0UBqSlB67dsybznzm3u0nAwEhicrA1pXElQK0u6vS3R7S3VVJQ1QWWYBVcwKU9gIsYH7us5/5nEufftG+faee+lgkEJAm0QnkflS2rBQCrYAckuQlL37+S17y/F/+lXf+0q/+5r997wcU6bht7lkN99bEInHBQ8yqJEJ3q0lIyaL3nPK4V77yZS99yfN3Hb9DJzooGwpIonKfYuBh11AsAqy9/e1v+f1nvvDjn/ijdCw0iVWVBc1XkQozhpR1zA/+4N9+5zt+4YRd25PopLKhoKEYOKgSBGRx6u5vvOLyV11x+av+8003/8ovv/O33vXuj936KTUr5YTrYVFAd1uVhIeemkRNZhVIog1VE8S0u0953Hd/9/Nf8Te+58RdO9lggnZAikVAHqnW2BpSk52ITmZut5l5/wWnHLjsPGgglHQoA/JgBSiFj95924/ddN36+rrlnJ50hshaXO9ew26iDGymLAStQKjQsH3advVZzzrtuJMCgmwQGdii1CSA2t1quks7QQNJBDUJpqwkaner6UaBXTu2n3PuWU+76Kn7zv+2iy58ahKVDQ1lWAS1WATky6hJVLYUWSQuWEmCaBIIL3nx81/yohfceuun/ref+yf//Ffeeccdd6lA4iJJVXUiD63uVgNWJZGean7hC1/43S9+/r593yZNioPKgGxIooFAqQwcSUQ4YefOn3n7Nd/1opeTiVTT0p2Ua+GBZS3MKpHKPPcHb7r5jT9+zc+87RrtZNaJgS+XzDgFBLoUJHDumWc8+aofufqqH7nxxg/9H7/0zmuvfc8nP/mpOQmlZqWqSMisQvGQSoQk1jHdrSIBWU/Yd/5TvvulL3jJi75LvoQmcQHNwuKRa42tIZmbrFHpGSczX3zBngOXnUdAoEiwhIgBeVBkw0fv+syVt9xwz7xuuT7PVRUonbvvmQS76QRQGdg0pQFDIEnD9mMeddUZzz7tuBM4JIk4y2JiYAvKSlUlcQUaYtZYKe2sW8W8rs6sSZL5yee+FXNuAAAgAElEQVScecKuHX/1wn1nnX3Gk88559TdjwWSqIDKSihAoaMSQlD5oiQqoLL1JFHZ0IAW2MxlEYjAqbu//s1v+tE3v+lHf+va3/6t37r+XdfecOcdn58j2YBNiodSKSvV87MvecZzn/OMSy95+gm7dkpxkJ0oAiEioIIckkRl4GGTRCuJCnSvl2sX7nvKK77/ZT/38/80PbGihpkHJm2RkMS2UPuXfuU3n/vsZ11y6dPLZiWJFgOHOIUUEiiSiLIQFM4+64y3Xv0jb7n6b91666eufdcN//b9//69/+79d9xxR2rqbkAnHnpJXDABZSDQ55595kte/IJLn/OsPac8liAkUaHZUKTYMtbYGioFndh2nPdfcMqBy84zxJYCVBZimGXiQfvo3bddecsNd833AnO6Fj3P09TdU5VzA1FAZWAzzWRbnGVRun3adtUZzz792BNYdLqcgsrK1FAMbElqElaOP377OeecUzSEQ3bvPmX3qadWcfbZZ564a8epG05RFrIhCxBUIInKihxSNpHIImwoVlS2rtbiPgUkUStTiBoQZGIRnnvJdzz3kv2dn/jgTbdc+64bfutd7/7gjR+y17B5KJ179pMuvPD8fRd82/MufQaLsKGhWClAWeliIZCgfIHKwMNKk2jAgFXQtFdc8bprr73+1k98mg2ldncViXxl3fNkRSWFnYj1g5f/yPXn/ovdu79eNqhJVAY2GEQECagsAgINKFAke3Z/4ytf+T2vfOX3QP3nD9783vd/4L3v+8AHb7zl1ls/GZCHmAa0dx6/42kXnn/pJU+/aN9T9+w+hYBskIWaRIuDRA4qFgF5pDIJR5gP3vLpK9/+O2woaB6MiWlm1smegdQEXWEmUDDDtP+CPQcuO48QW4oHI2BACJGDDB/9/O1vvOnau+Z7JuykNBAxDGyipGVbvDddVUnUJCqLRH3U2ra3nvmsxx93kgEZGBh4ZLj99jtuuummf/Pe/+t973vfxz9+662f/BQUhySzCpVETaICYUNpEkDtbjWgkpy4c9fZ5zzpaRddcM5ZT7zwwgtO2HU8AwMDD6vbb7/jpptu+jfv+8CtH//krbd+8r3v/wAUkMQqIQmHhPvIX9RAKBZJVXX3hIvzzz//3HNPf/I5Z51zztnnnnMGK0lUBu5jEo4wH7zl01e+/XfYUNA8SBPOBMpFZ2aesK0J17O+/8K9B15+njQbigcrRA4yIEk+9vk/e+NN19893yt0soazlHY3ysCmaTJhJ5R0SjtRWSSB7WvHvPXMZz1++0nADBMDAwNHtyRqEjVBOwlOt99+14033nTrxz/58U9+4vbb7/hPv39z4h133HHjjTeykoTSXrOyePI5Z+zatTOZzz333F0nHL/7lMedtmf32WefuWvX8XJIQAYGBh4WSdQkaoKSoCxu/+ydN9548+23f/aD//nGrunGG2++7bbbqOn22+/4/d+/SSVlzd1UVXe7Ieeffz5Q9J5TT93z+FOPP377k7/57N2P+8ZTdz9OAgXIfZKoSVQGNpiEI8wHb/n0lW//HTYUNA+GTskMTDgTYMLEdk541r7TX/2yb6WEhuIwBKS7q4pF+MO7P/NjN99w13xPIRAxROhMVZ0wsGmmsE5KW+ygrCRRt29bu/pJz9p77EmUQEAGBgaOVklUDkmiJlE5JInKl0qishI2yBclUYFkVllJXDAwMPBwSKJySBKVcB9ZJFH5SpJZTVwkUZOoHJJE5ct1EjWJTgx8ueKRxZ6hJsQZ0ClJO8O0/8K9r37Zt6JAqCQchoSQqrDhD+/+zI/ffMPn1u+ZMAuhQ7LW9GR3M7CZ7k1TtqytRwWSCOqxtfamM5992vaT0SR0ZGBg4Cimcj9qEhVIworK/SQB1CSsSEtDs5JETQKtUyJUUiobmoGBga85lftRkyAhyEEqGxpIwv3ECqUCKqBCQ0MDahJWkrCSqBOUTgx8BWs84qhzmlQFM+MU52ecv+c1Lz+PQwwoh6EEphDyh3ff9uM3X3fn+jpld9ZwDgur1rtBBjZZVaUj9GRLEkvC6ceddOD0fXuOPcmwQRECMjAwcPRKogJJXIFOokJIsZAEZaECSVTuU6wkcQVagQLUJBogUYuBgYGHQxIVSOIKoLKhgSQ6QZFZpUFJKAtZSaKykrjgEJUVNYkr3E8SFRqKgQ1rPLKkJjsRnczcbjPz/gtOOXDZedBAKOlQBuTBChgiH7v7z6686dq7uwUDOkNkLa53r2E3UQY2U5LSQCDJREh2bz/xyrOeuaO2GSJyn4gMDAwcrZKorKhAEi3lPrJIonJIEjWJyv2o3KdYSVA0bChlYGDgYZFEZUUFkgAqGwpQNgSckliyMBDuUyqHqNxPEpUVTdI6cT8qG4qB+xSPLMk8M09ozziZ+eIL9hy47ALCSpFACRHCg2VAPtf3/s+3/Ou70p1MOJNAKZ17JnqypbOBgc2kdgIkUYE9O0665sxLd3pMISIQGggyMDBwFFOBJKwkUQOBQCAQUFlJWKjcTyAQCARChw4NrZ3MUIkMDAw8fFQgCStJ3JBkBpIASaCxATUrUIlQUHxVKitJoHTifpIw8OXWeGSpFHRi23Hef8EpBy47zxBbClBZiGGWiQfJ/tz6+lU3X/cn936uoGGWCVu6e6pybiAKqAxspiQqUEp69/YT33rGJcdO28IGWZGJgYGBRwg1CaAmUTkkQUlQFsohrcWKfJnioLAQCCoDAwMPNzUJoCbRUhZqEjVBBZKoQBKVB0PlL1AZ+HJrHBkCNhSE2DpBgwlf0cQ0M+tkz0Bqgq4w21Aww/SM8/ccuOw8QmwpvoxMPKCAQEDu7+45V95yw0c+fzsSEJOgBrQTlBWVgcOVtGyL96arKomahC/qPTtOuvqsS45zG1+RDAwMPDKorKjcj7JQ/oLiLyUDAwNHGpUVlftRAZUVlRWVgYfKGkeIhJKFlNqBtDMPYGaecM4cy0VnpkWsCdfD/gv3vObl50EjUjxIsiIBOykNd3LvVTdf/5G7PlPKF6gQBjZRy4TrxKnSKe1EBYTAnh0nXfOkS451WxKVgYGBgYGBgYGBTVIcGTSsBNKWAVQegE4zASaSzG2vWVAwr2f9WftOf+33PkUOKg5DOEigBO7se6668dqP3H1baYVOgLChEwY207bYSSkgBFRWYj/+2J1Xn3XJsWvbWCgDAwMDAwMDAwObpziSBGTDnDk1dfNA7BlqQpwBnZK0M0z7L9z76pd9KwqESsJhkLASCHeu//mPf+j6P7zrz1hZJ5SBJkIpA5vp3jRly9p6VCCJIP347Sddfe5zjmdbgCADAwMDAwMDAwObqThSFDQrE/ekHtW9XlU8MHUmc6pC9axTdP8Few68/DxKZGFQOTwJK3fknqs/dMNH7rwNZaXUECkMdMLAZqoqOnZ6sqUJJbBnx0nXPOmS490WmQmyCAMDAwMDAwMDA5umODIkQAnNfNY3PU7WJ0lmHkBqsgPoJLTbkuw//5QDl50nDR0WHSAcJg3cMf/5m2667sN3/WkhYFgEmhimkKSUgc2UpBQNJJlIpXdv33X1WZccu7YNMKwhYSEDAwMDAwMDAwObpjhShJVCqp/65MeqPLBknpkntGeczHzxBXsOXHYBYaVIoIQI4TAY7prvueoPbvjw5/5MpiRAFmyYEJilJ5MwsJnUToAkKrBnx0nXnHnp8W7LApANMjAwMDAwMDAwsLmKI4POSVi0UH/9GWemgeIBVGrCxDbrzhfv+8YD33eeITYUoLIQwyyH4U7uverm6z56x22GhQq4gCRAEmGagzKwmZKoQGmld28/8a1nXHLstA1wwYYwMDAwMDAwMDCw+YojxZoKzBU6Z3/TyU/9K4+LXaHKUDpVmJgqVAq6pe3KtP+puw9cdoENthRfRiYeUIAQvlS4e56vuvH6j9x9e0pKIAkrATWgBlAGDlfSZArdDSQBkvBFvWfHSW8++9Ljpm3yJWRgYGBgYGBgYGDzFUeG0IQkU4qKcuCyb3vi407Ubd0tJHPKZG5J2bIhaxdfsPvA9z3VkGooDoMYFjPQAe7IPT9287UfueszFSpUEFwwsLlaJlwnTpWkNIkHsWHPjpOuedIlx7stCQMDAwMDAwMDAw89k3BEaChYJ2tIEvXOu/uX/+V/uu7dH1mvwFTpGdkwr2Vt5t6//own/Q8v+hYCAt1YyIMSkCQqECD5yT/41+//7H+tUGGdlIYNSVQGNs0U1klpix2UL7Af/6gTrj73Oce7DQjIwMDAwMDAwMDAQ84kHAkCsghtF9Xr9FrWsD/4oU+/532f+L3/51N33X13ZQKOPX769m8+5aXPO+sbTt4e0GZDkXtxG/8/JPkHH/3dd//Jf6Gs0AmlocmEQBjYRN3tVMDaenoykKQUes+Ok64+65Lj2RYxIAMDAwMDAwMDA18DJuGIkcw4sUjE2KZiQ8ta4JZb/uSMM77OrONawMwwYYcSCMiDEhAISOB3Pv3ht3/s/XbUCotAxLBIojKwmZIIaksStcKeHSdc86RLjl3bFpjJGgIBGRgYGBgYGBgYeGiZhCNCh0UZFrFNxRboQpCwQVYCNlRoKGlSETksYfGxu2+7/Pf/TxYJKgSaFE5hnZSGgU2UpDRsaDIRYPf2E9989qXHu41FQAjIwMDAwMDAwMDA10BxpCgoaQRbKmIKOkU7A9JCoAMCBU2URSFk5vDInX3P3/nQ7wARNQs2TAjM0pNJGNhMaidAEhXYs+Oka8689Hi3ZQHIBhkYGBgYGBgYGPjaKI4MAQOpLKgk0ghZE4qJQ4SygbAoNQk0tE4chk7gFz7+H//4z+8UDAEXkARIIkxzUAY2UxIVKK307u0nvvWMS46dtgEu2BAGBgYGBgYGBga+dtY4MgjIQmShIAu5n+I+Bch9VJCvKmDYIIQ2okCg/Pe33fqeT384IiTBlimgBtQAysBhEjqhnObMk4ZFEjUL0XzLjm94wxlPP7a2yZeQgYGBgYGBgYGBr501tgYBuY8UJkGRO/qen7v1A0nUJKVgGNhEnZQ2dElHrbBeGlDhrz1672v3XljIwMDAwMDAwMDAw6rYIsKiCYeorPzqf/1Pf/L5O1Ug0pLIwKYqW6Y5gBpIUiEgvf8xe1932kWFQBPCwMDAwMDAwMDAw6XYImRRSDgobPiTe+76l5+6EScSoZCFMrCZpjmGLpsISbrMwv6rjzn9NXsvRBYBERkYGBgYGBgYGHi4FFtHh0XCimGGX/jYB1RWZrKoMLDZ5skkwISB0izKpz/69NeddlETQkAwEAYGBgYGBgYGBh4uxdZRsiiBJMAf3PHHH7jtk2mToGuNipIwsJkMpUAnQttTsf/k01679yKgMKSBgLRhYGBgYGBgYGDgYVJsEWGRhBVxlhv+9L/MRC1tMk8C6baKgU1WoTpqJxM+7dF7D+y9iIUExII2gUIGBgYGBgYGBgYeJsWWEVBZCfnTP7/zPZ/+MNpkUVihu1POaQY2U5L1IiUJlYtP3vu60y6KhC+yUygQBgYGBgYGBgYGHi7FFiFCElZa/9UffygtUIgCgaoyFDJwOIQspDqRg5K4CIvY+x/zhFeffiEiyAYBoeQgGRgYGBgYGBgYeLgUW0OAoLIIE9zwx3+whgxspk5KgS7pCFOgBCItFz/mCQdOu7CaRRgYGBgYGBgYGDjiFFuDHSQJK7/3mY/fxfq9hoFNVbZMcwA1kKSCLHr/yae9bu9FLMokDAwMDAwMDAwMHHmKLaKkgwZC3v/ZT6w1hoFNNc0xdNlESNJlkma++NGnHzj9oiSsuGBgYGBgYGBgYOCIU2wNM6ACCXrT7X/EwOabJ5MAEwZKsyj3f90TX7f3IkAlNCEMDAwMDAwMDAwcgYqtYQJkof7x5+/4f++5k0XJwGYylAKdCG1Pxf6TT3v1afvohA1tKkbCwMDAwMDAwMDAEafYIsIibLj5rj9R1ws7DGyyCtVRO5nwaY/ee2DvRYWUJEDFyMIwMDAwMDAwMDBwpCm2hshCIHz4rj9NMjUoA5spyXqRkoTKxSfvfd1pF0UWAZWFLAwDAwMDAwMDAwNHoDW2BtkQUD5y920yJVEZOBxJSlvoqEmA0pQVAm1/59ef9f17vh0wIPJFAjIwMDAwMDAwMHAEWmNrCBiUxafvviMiRgwDD14pKy4gpaGTtTjL4of2Pu2vPeZ0AhKRgYGBgYGBgYGBo0OxNQhIgM6n57uTTMEOA4ejpaVCEhYdQZ0F+8Bp5//Vx5zOQgIyMDAwMDAwMDBw1Ci2hiQsEspab2CWMHCYOoZOSlvUQJJmfs3eC5/+dU8kYcWQhIGBgYGBgYGBgaPEGluD2ESdYb2YsBOVgcOhkpS2JCkCKAf2XvQdJz8BMMxSCaAyMDAwMDAwMDBwlCi2jIrCLbf/UVV1opIwcDiyKDsxTKQJ8Kq9+77jMU+IHCRR0SQMDAwMDAwMDAwcJYqtIYIs1E6ELEoGDpOhlJXCA4/f94xHPxEwBCgNGxKUgYGBgYGBgYGBo0SxNch9WirgSoeBw1GaBTQBXrV333d83RPXDQs5yBBADQMDAwMDAwMDA0eLYmtIQqBz9s5vmEISFsrAV5OktIlAIghNOlGTTOTVp1/4jEc/kWQtsiIrpSAgAwMDAwMDAwMDR4tia1BDKIE/n1jIwF9qDdfTE84EDQQqqE2EA3svfPrJp0dSRgYGBgYGBgYGBo52xZahAkIFlYG/3L1mwhaDQNJkwiSVfvUT9l38mCeggB3DwMDAwMDAwMDA0a7YMgIEwtdt2w50NjDw1RR2YpiqkqCF66TMa0+/aP+jn2BHIKFEBgYGBgYGBgYGjnbFVhJC8thH7WyiljLw1SRRpzB3o2GunrFfffqFFz/6dBYlICZhYGBgYGBgYGDg6FdsGQKKPvqY7YVCJwz85VoWzVxVc/GavRfuP/kJKJCEsFAZGBgYGBgYGBg4+q2x1SSPe9SuJBM2A3+JMh2gNHoc02u/6eKnnrCbBLVDmURlEZCBgYGBgYGBgYGj2hpbR1DQM074Bj7l3CkNA19FhQYUeFStvfWMS/fsOCkgslBAZREiMjAwMDAwMDAwcHQrtg5JgjzxUSeROWUYOCgLmUIT2dBkCoFS4Lhta9eccckpO04ibBAB+SKRgYGBgYGBgYGBo16xRYSA2uTYbcd83TE71pqBLyiTzFKYhESdiRA4btp29ZOeddqOk6eAyMDAwMDAwMDAwCNWsaWEwoYn73zs/P+1B2893+h5YZev7+9+1jBrM8CsYabT0IHZsC2QJqalQo102sIYjac1Hro5aAIe29Oy8QU0HhrfQE/VU9vE2GjSGE2sSROpYIMlllIzFMvMuv9f7+c3gwRaCHAymfV8rmvsrnjt1cMxL+zumRceOzPL26+efvZP/+Tn3n5/WSsiIiIiPtSON8QYjOXs/vC3fnp3nRGvfXUW+3iYmTWPnZnlnbde/dz3/9Tnv+XjGMZ4sSIiIiLiw+p4k+zuLDN/7v3vGmbF9WTs7hk87+PxtOv5nbde/dz3/uTn3nl/h2HtePHBrIiIiIj4kDreHI+dGWPWO/Pqz37iu8TXrdfOsvt0zMzbT2/93Pf+5Gfefd+ya+0Yr73aEREREREfUseb48zuWsaYP/9tn7ErXnvYPbOY2d1vmaef/4Evffbd95+WMTPGuFZEREREfIgdb4xlZh6z1vP40Y9/xox47a2deex47d23vuUXvv9Ln3vnfez4uvWBtV58MCsiIiIiPqSON8Syi2OMp/XeefXFT3zWi92Z2V3s7vgw22t4PobdHew+WzN4++mtn/2+n/zsO++v18ZvG6+MYbwyIiIiIuJD6nhDjJnxNesxa/wbn/rCw845z8/P83TsOvPY13x4PZ3z2H318Gxn5tkuZh72nae3fu4H/srn3n5/x6yIiIiIeAO98kYagz/z3qc//ZH3fu23/rmnp31+mJk1M49hfSidmefHY1hmzTjGMI/Pv/v+f/r5n/jUR97bMRgRERER8QY63ijrxdrx2qx/7zt/5IN5/mDWzGBfezI+pD44zoyZ89iZWcZrn3n723/++37qkx9515hlWRERERHxBjreKOO1GevFjp/4ji/8iY9+7Ol5H/YsM2Yeuz6kXj082xePMw9rHo95fPe73/YLP/hvvf30lhnX8zCsiIiIiHjTHG+O9TWD8WK89lc//SPOHvNsXxsfYo/dY84Mzux88Pjcu+//wvf+1LvzljWu8bReGxERERHxpjneGDt+rzXri5/8ns+9/fHdNdey60PqzDzsMizf/W3f8Te+7yfffusjO/5/y44PrBURERERb5rjDbGesX6XYSz/wXf9OYzXBjM+pB67s14sn33n4z//PT/53tNHfM34msHuqx0jIiIiIt40xxtivML4lw0/9LE/8aMf/4wXu4/dYbCLYccwvpmMrxvOjN1hx8zgPPa73/22X/j+L330rY94scbvMjNGRERERLyBjjfevuCnv/Bj7776yFzP9quzZuz6bc92fDMZry2P3T3z2J3HvnhlPvPe+z/3A1/66Hk1y2ONiIiIiIjrCLPeOx/5a5/784vdY97a2bFnvHjs8mR8U/ngGHYXu4uZeVp/6r1v+xs/+Ffe9WpmjOczIiIiIiK+7niz7e7MPGZn/di3f9ePfvw7sS84a9Zj95yzu4/xGN9EzlpmZseTeVrLZz727T/3A1/6mLfMYHeflhURERERcR1vtpnBeTCWn/7cj3/qW957PA2e7Xjt8XicmbPO+mby2BdePHYez89P+4Pf+slf+P4vvTOvnDGWmTEesyIiIiIiXjvCnvHY4b3zkb/+vT/x3nnacczunnntMfaFbxqP3WFmdvfMPh9/6f3P//z3/9RHn94ag90dHhbHiIiIiIh47XizLdZrM7uL73rn4//xd/5Zj/Vi5tmOa8aubxJnZs9gx+7+pU9+z09//i9gsPvMGBxjrYiIiIiIrznebLOex6y1ZozhL37qe/7Dz/7ovhjHLGd9MDszvkksHvu0XnzxU9/zM5/98cGynHny2sNiR0RERETEbzvecOMJY174Hf/Op77vL3/y8x67Y1/w1s5jHq4dw8N6sesbZ3eH8dp4bdixuzPz1dm//InP/fRnf3zxWMP4unEMhhERERER8TWzu+L3Wuaxf/OX/+7f+b//4XDW89jdecFjFzOzu2dmfSPtePXwwfHirN01Myxf/I4v/Mxn/3XDerFjRERERET8AY74Vxic+U+++8f+4nd89jFe7O4rs2N3Z8aZHWfm+fHY8Y3ytDz2cWZ3PRZ7xu6z/eInP/fTn/3za7HjxayIiIiIiD/Q7K74lyzjtfVf/eO//1/8yv901rN9tbO7M4NXD8+HmX08zPhGeNh58Vgz4+uWL37isz/zub+wdozdPfPgSURERETEH2x2V/yrrMfsMR77t//pL/6Xv/z3/vnzV7FjHuvp7O481sywvmF2zHpaX509xz4eP/P5v/DFT3xhXI/dM+N6rDMiIiIiIn5fs7vi99rdmVnG1/3Sb/76f/YP/vavf+U3n8eLhz3LzO7OjG+Q4bHrjMfO2Xfm1X/03T/6E9/xBcza8WK8tswyIiIiIiJ+f7O74vdaZhkvlmH5F89f/c9/8e/+d//PLz89OPP0vI8zGNY30vDYfe/Vq5/9wS999u2PP+x5cMZ6Hk+s12YZERERERG/v9ld8XstwzLLsHbYNfP3fu0f/c1f+u9/44OvOOOxO47xjbO7M/NDH/sTf/17/s13Xn3EY80YyyzDY83geTyJiIiIiPgDzO6KP5ovP77yt/7R//zf/Oo/WL/b7p7BrJl5PB44M48xa3fnBY8x68UHs2/tPHYxM3g+zvPOzHns89PMevG0HuOxe2bmsY8zO85a1vM7rz7y7//JP/Nvf/oH7c6MZURERERE/LHM7oo/tMeaeR5P61d/68t/6//6X//bf/K/Y7z22B2ezGM8dmcG47XFmXnsY/fM7O7MLMMyLHYxM8/2mBf7eDzGzHisMx47M67dnZkf/tgn/9rnf/xPfuS9hz07O0ZERERExB/b7K74w1pmrZ2ZZdY//sqX/9av/C9/+5/8Hw/7ZB67O47B0/N+dXaezlmP4bFnxrWcx+7Tebx4mqeHHfNYM7uLmXnYWeecfTz2zDx2OTOPx2PO+eGPffKvfuef+dPvfcrMLONhj1lmGRERERERf3Szu+IPa5llvPbYxzFmHvtlX/07v/aL//Wv/P1f/cpvnHn1vI9ZL2bGrhczw/Pjcc7ZMY99vDqvvvp4nBkWu2aGZXdnxrW784LHrjPz2D/7iT/1737yB374Y5/eMctYxmvL2rNjRERERET80c3uij+0x+4Zv22WXWcs48Uv/eav/w+//sv/4z/7P//h//vr68WZx8458/x4nHlaH1gvzsxjzWB3Z8aL3fXa0zmPXbt75qwXH31660e+9dM/9q2f+dc+8Z3vnrdmxrUM1o7BMiwjIiIiIuKPbnZX/GEtg2V8ze6awbBem2V8+fGVX/qNf/r3v/yrv/LV3/gnv/XP/7cv/+oyXpv12Hk65/nxmBm7Z3311bx6+Mp5/ugH3nrrrS+8+4lZP/Tupz719sc+8+7HP//2+4O148Vgrd1xdozXll0zO0ZERERExB/D7K74Q1sv1s6Mr1mGZfyOZXzNM2d3zGP2mH/4m//0N5+/iof9wtvv/+K/+HV8+tW7n/joe3bHGL9j2TVjfM3ujsFaM+O19dqw2J0ZERERERF/HLO74o9gGXZ3Zqwdg2Us4/fa3TFrZ8bXLON3rBc7xu/Y3Znxu+2umfEvWS92zHptRERERET8sczuioiIiIiI4IiIiIiIiLiOiIiIiIiI64iIiIiIiLiOiIiIiIiI64iIiIiIiLiOiIiIiIiI64iIiIiIiLiOiIiIiIiI64iIiIiIiLiOiIiIiIiI64iIiIiIiLiOiIiIiGgED4EAAApZSURBVIiI64iIiIiIiLiOiIiIiIiI64iIiIiIiLiOiIiIiIiI64iIiIiIiLiOiIiIiIiI64iIiIiIiLiOiIiIiIiI64iIiIiIiLiOiIiIiIiI64iIiIiIiLiOiIiIiIiI64iIiIiIiLiOiIiIiIiI64iIiIiIiLiOiIiIiIiI64iIiIiIiLiOiIiIiIiI64iIiIiIiLiOiIiIiIiI64iIiIiIiLiOiIiIiIiI64iIiIiIiLiOiIiIiIiI64iIiIiIiLiOiIiIiIiI64iIiIiIiLiOiIiIiIiI64iIiIiIiLiOiIiIiIiI64iIiIiIiLiOiIiIiIiI64iIiIiIiLiOiIiIiIiI64iIiIiIiLiOiIiIiIiI64iIiIiIiLiOiIiIiIiI64iIiIiIiLiOiIiIiIiI64iIiIiIiLiOiIiIiIiI64iIiIiIiLiOiIiIiIiI64iIiIiIiLiOiIiIiIiI64iIiIiIiLiOiIiIiIiI64iIiIiIiLiOiIiIiIiI64iIiIiIiLiOiIiIiIiI64iIiIiIiLiOiIiIiIiI64iIiIiIiLiOiIiIiIiI64iIiIiIiLiOiIiIiIiI64iIiIiIiLiOiIiIiIiI64iIiIiIiLiOiIiIiIiI64iIiIiIiLiOiIiIiIiI64iIiIiIiLiOiIiIiIiI64iIiIiIiLiOiIiIiIiI64iIiIiIiLiOiIiIiIiI64iIiIiIiLiOiIiIiIiI64iIiIiIiLiOiIiIiIiI64iIiIiIiLiOiIiIiIiI64iIiIiIiLiOiIiIiIiI64iIiIiIiLiOiIiIiIiI64iIiIiIiLiOiIiIiIiI64iIiIiIiLiOiIiIiIiI64iIiIiIiLiOiIiIiIiI64iIiIiIiLiOiIiIiIiI64iIiIiIiLiOiIiIiIiI64iIiIiIiLiOiIiIiIiI64iIiIiIiLiOiIiIiIiI64iIiIiIiLiOiIiIiIiI64iIiIiIiLiOiIiIiIiI64iIiIiIiLiOiIiIiIiI64iIiIiIiLiOiIiIiIiI64iIiIiIiLiOiIiIiIiI64iIiIiIiLiOiIiIiIiI64iIiIiIiLiOiIiIiIiI64iIiIiIiLiOiIiIiIiI64iIiIiIiLiOiIiIiIiI64iIiIiIiLiOiIiIiIiI64iIiIiIiLiOiIiIiIiI64iIiIiIiLiOiIiIiIiI64iIiIiIiLiOiIiIiIiI64iIiIiIiLiOiIiIiIiI64iIiIiIiLiOiIiIiIiI64iIiIiIiLiOiIiIiIiI64iIiIiIiLiOiIiIiIiI64iIiIiIiLiOiIiIiIiI64iIiIiIiLiOiIiIiIiI64iIiIiIiLiOiIiIiIiI64iIiIiIiLiOiIiIiIiI64iIiIiIiLiOiIiIiIiI64iIiIiIiLiOiIiIiIiI64iIiIiIiLiOiIiIiIiI64iIiIiIiLiOiIiIiIiI64iIiIiIiLiOiIiIiIiI64iIiIiIiLiOiIiIiIiI64iIiIiIiLiOiIiIiIiI64iIiIiIiLiOiIiIiIiI64iIiIiIiLiOiIiIiIiI64iIiIiIiLiOiIiIiIiI64iIiIiIiLiOiIiIiIiI64iIiIiIiLiOiIiIiIiI64iIiIiIiLiOiIiIiIiI64iIiIiIiLiOiIiIiIiI64iIiIiIiLiOiIiIiIiI64iIiIiIiLiOiIiIiIiI64iIiIiIiLiOiIiIiIiI64iIiIiIiLiOiIiIiIiI64iIiIiIiLiOiIiIiIiI64iIiIiIiLiOiIiIiIiI64iIiIiIiLiOiIiIiIiI64iIiIiIiLiOiIiIiIiI64iIiIiIiLiOiIiIiIiI64iIiIiIiLiOiIiIiIiI64iIiIiIiLiOiIiIiIiI64iIiIiIiLiOiIiIiIiI64iIiIiIiLiOiIiIiIiI64iIiIiIiLiOiIiIiIiI64iIiIiIiLiOiIiIiIiI64iIiIiIiLiOiIiIiIiI64iIiIiIiLiOiIiIiIiI64iIiIiIiLiOiIiIiIiI64iIiIiIiLiOiIiIiIiI64iIiIiIiLiOiIiIiIiI64iIiIiIiLiOiIiIiIiI64iIiIiIiLiOiIiIiIiI64iIiIiIiLiOiIiIiIiI64iIiIiIiLiOiIiIiIiI64iIiIiIiLiOiIiIiIiI64iIiIiIiLiOiIiIiIiI64iIiIiIiLiOiIiIiIiI64iIiIiIiLiOiIiIiIiI64iIiIiIiLiOiIiIiIiI64iIiIiIiLiOiIiIiIiI64iIiIiIiLiOiIiIiIiI64iIiIiIiLiOiIiIiIiI64iIiIiIiLiOiIiIiIiI64iIiIiIiLiOiIiIiIiI64iIiIiIiLiOiIiIiIiI64iIiIiIiLiOiIiIiIiI64iIiIiIiLiOiIiIiIiI64iIiIiIiLiOiIiIiIiI64iIiIiIiLiOiIiIiIiI64iIiIiIiLiOiIiIiIiI64iIiIiIiLiOiIiIiIiI64iIiIiIiLiOiIiIiIiI64iIiIiIiLiOiIiIiIiI64iIiIiIiLiOiIiIiIiI64iIiIiIiLiOiIiIiIiI64iIiIiIiLiOiIiIiIiI64iIiIiIiLiOiIiIiIiI64iIiIiIiLiOiIiIiIiI64iIiIiIiLiOiIiIiIiI64iIiIiIiLiOiIiIiIiI64iIiIiIiLiOiIiIiIiI64iIiIiIiLiOiIiIiIiI64iIiIiIiLiOiIiIiIiI64iIiIiIiLiOiIiIiIiI64iIiIiIiLiOiIiIiIiI64iIiIiIiLiOiIiIiIiI64iIiIiIiLiOiIiIiIiI64iIiIiIiLiOiIiIiIiI64iIiIiIiLiOiIiIiIiI64iIiIiIiLiOiIiIiIiI64iIiIiIiLiOiIiIiIiI64iIiIiIiLiOiIiIiIiI64iIiIiIiLiOiIiIiIiI64iIiIiIiLiOiIiIiIiI64iIiIiIiLiOiIiIiIiI64iIiIiIiLiOiIiIiIiI64iIiIiIiLiOiIiIiIiI64iIiIiIiLiOiIiIiIiI64iIiIiIiLiOiIiIiIiI64iIiIiIiLiOiIiIiIiI64iIiIiIiLiOiIiIiIiI64iIiIiIiLiOiIiIiIiI64iIiIiIiLiOiIiIiIiI64iIiIiIiLiOiIiIiIiI64iIiIiIiLiOiIiIiIiI64iIiIiIiLiOiIiIiIiI64iIiIiIiLiOiIiIiIiI64iIiIiIiLiOiIiIiIiI64iIiIiIiLiOiIiIiIiI64iIiIiIiLiOiIiIiIiI64iIiIiIiLiOiIiIiIiI64iIiIiIiLiOiIiIiIiI64iIiIiIiLiOiIiIiIiI64iIiIiIiLiOiIiIiIiI64iIiIiIiLiOiIiIiIiI64iIiIiIiLiOiIiIiIiI64iIiIiIiLiOiIiIiIiI64iIiIiIiLiOiIiIiIiI64iIiIiIiLiOiIiIiIiI64iIiIiIiLiOiIiIiIiI64iIiIiIiLiOiIiIiIiI64iIiIiIiLiOiIiIiIiI64iIiIiIiLiOiIiIiIiI64iIiIiIiLiOiIiIiIiI6/8DKSyJLDOzYFsAAAAASUVORK5CYII=;" vertex="1" parent="1">
          <mxGeometry x="800" y="305" width="50" height="50" as="geometry" />
        </mxCell>
        <mxCell id="KUXXl5ssxniQ1RarXrmG-43" value="" style="shape=image;verticalLabelPosition=bottom;labelBackgroundColor=default;verticalAlign=top;aspect=fixed;imageAspect=0;image=data:image/jpeg,/9j/4AAQSkZJRgABAQEAAAAAAAD/4QAuRXhpZgAATU0AKgAAAAgAAkAAAAMAAAABACAAAEABAAEAAAABAAAAAAAAAAD/2wBDAAoHBwkHBgoJCAkLCwoMDxkQDw4ODx4WFxIZJCAmJSMgIyIoLTkwKCo2KyIjMkQyNjs9QEBAJjBGS0U+Sjk/QD3/2wBDAQsLCw8NDx0QEB09KSMpPT09PT09PT09PT09PT09PT09PT09PT09PT09PT09PT09PT09PT09PT09PT09PT09PT3/wAARCAFjAdoDASIAAhEBAxEB/8QAHwAAAQUBAQEBAQEAAAAAAAAAAAECAwQFBgcICQoL/8QAtRAAAgEDAwIEAwUFBAQAAAF9AQIDAAQRBRIhMUEGE1FhByJxFDKBkaEII0KxwRVS0fAkM2JyggkKFhcYGRolJicoKSo0NTY3ODk6Q0RFRkdISUpTVFVWV1hZWmNkZWZnaGlqc3R1dnd4eXqDhIWGh4iJipKTlJWWl5iZmqKjpKWmp6ipqrKztLW2t7i5usLDxMXGx8jJytLT1NXW19jZ2uHi4+Tl5ufo6erx8vP09fb3+Pn6/8QAHwEAAwEBAQEBAQEBAQAAAAAAAAECAwQFBgcICQoL/8QAtREAAgECBAQDBAcFBAQAAQJ3AAECAxEEBSExBhJBUQdhcRMiMoEIFEKRobHBCSMzUvAVYnLRChYkNOEl8RcYGRomJygpKjU2Nzg5OkNERUZHSElKU1RVVldYWVpjZGVmZ2hpanN0dXZ3eHl6goOEhYaHiImKkpOUlZaXmJmaoqOkpaanqKmqsrO0tba3uLm6wsPExcbHyMnK0tPU1dbX2Nna4uPk5ebn6Onq8vP09fb3+Pn6/9oADAMBAAIRAxEAPwD2WiiigAooooAKKKKACiiigAooooAKKKKACiiigAooooAKKKKACiiigAooooAKKKKACiis3Xr+TStFurq3iM1wF2wRAZMkjfKi/ixH4UAYHiPx9DpOrJomkWUura1J0tomwsf++3bjnHpySKbceKD4VtReeM9WtUupFzFYWcecfTOWY9txIWub1G6tvhL4baZ2S88U6rl5Zn5JY8s3+6pPTjcf0qeCPhpca7cjxF40MtxJOfMjtpScv6M/oPReOOvHFAG1p3jPxT43kP8AwjWlw6bp2cG/vgXP/AVGAT7cj1Irq9F8LxaZdtf3V1Nf6nIMSXMgVM/RFAUD65PvW1FGkUSxxIqRqNqqowAPan0AFFUtT1ew0a1Nxqd3Dawj+KRgM/T1PsK8z8Q/Haxt90WgWTXbjgTz5SP8F+8fxxQB6zXPaz488OaBuXUNVtxKvWKM+Y//AHyucfjivnrXfiD4j8RblvtSkWFv+WEJ8tPyHX8c1zagsQACSewoA9x1T49afESulaXcXB7PO4jH5DJ/lXK33xx8S3JP2WKxtF7bIi5/Njj9K5zSfh94l1oBrXSZ1jPSWceUuPq2M/hmussfgfqDgHUdVtYM/wAMKNKf12isKuJo0dakkhqLeyOXvPiT4ovzm41MNnsLeIf+y1TTxnrkb7lvsN6+TH/8TXp0HwS0hAPP1G9kPcoET+hq1/wpnw5jHnajn181f/ia82Wf4GL+L8GX7KR5/Y/FzxbY4UX8UqD+CS2jx+gBrp9L+Pl5GQuraTBMvd7ZyhH4HOfzFXLn4I6Y4P2XU7uI/wDTRVf+WK5vVPgzrVopewuLe9Ufwg+W5/A8frWtLOcFVdlOz89BOnJdD1fQPih4a18rHFffZbhukN0PLP4HofwNdeCCAR0NfImpaPf6NP5Oo2c1u/YSIRn6Hv8AhW94X+I+u+FWSOC5NzZrx9mnJZQP9k9V/Dj2NemmpK8Xcg+nqK5Hwf8AEbR/FyLFC/2W/wAZa1lb5v8AgJ6MPpz6gV11MAooooAKKKKACiiigAooooAKKKKACiiigAooooAKKKKACiiigAooooAKKKKACiiigAooooAKKKKACiiigAooooAKKKKACiiigAooooAKKKKACo5zEkZlm2hIsuWbouB1/LNSVznjVbi90ZNIs2KXGqyi2Lj/AJZxHmRvwQEfUgUAcT4T0R/iB4wuvGGrxltOil8vToHHDBTgEj0HX3Yn0r1mq1hYW+l6fBZ2kYjt4EEaL6Af560+7vILC0luruVIYIlLvI5wFAoAkd1jQu7BVUZJJ6CvKfGnxotrBpLLw0EurgcNdtzEv+6P4j79PrXG/EP4n3fiiaSw05nttIU4x0e4929B/s/nntxuj6Lf6/qCWWmWzz3D9FUcAepPQD3NGwBqus6hrl4brVLyW6mP8Uhzj2A6Aew4qfRPDOr+IpvL0mwmuOcFwMIv1Y8D8a9g8J/BfT9OCXPiFxfXPXyFyIk+vdvxwPY16Xb28NpAkNtFHDEgwqRqFVfoBWE66Wi1GkeQ6B8CT8sviDUMetvaf1c/0H416HpXhXQfDSgaZpkEco/5asN0n/fR5/Kt6R9iE+1UCSSSeSa8DOM0nQShB6v8Ea04J6sc8rSfeP4UyiivjqlSVR803dnQkkFFFFZDCiiigCC8srbULdoL2COeFuqSKGFeZeKvg9FKHuvDjeW45NrI3yn/AHWPT6HP1FeqUV34TMK+ElenL5dCZQUtz5Wuba70m+MU6S21zC3IIKspH+etes+AvjGwMem+KZcjhY74j9JP/ivz9a6/xV4P0/xTalbqILcKMRzKMOv49x7GvCPEnha/8MXvlXaboiSI5lHyv/gfY/qK+4y7NqWNjy7S7f5HNODj6H1ZHIkqK8bBkYZVlOQQe9Pr50+HvxPufC0sdhqJkudIJ4Xq8HuvqP8AZ/EYPX6Csb621Oyiu7KZJreUbkkQ5BH+e1eqZlmiiigAooooAKKKKACiiigAooooAKKKKACiiigAooooAKKKKACiiigAooooAKKKKACiiigAooooAKKKKACiiigAooooAKKKKACiiigAqIwRm5Wdhl1UopPYHBP8h+VS0UAMllSKNpJGVEUFmZjgADqTXzt8TfiHJ4qvmsNPkZNIgb5exnYfxn29B+J56dF8YvH/AJsknhvSpf3anF7Kh+8f+eY9h39+Oxry/RNGu/EGqwadYRmSeZsD0Ud2PoAOaL2AueFPCl94u1ZbGxXaow00zD5Yl9T/AEHevo/wz4V07wnpi2emxAEjMszD55W9Sf6dBSeFPC9l4S0WOws13Nw00xHzSv3J9uwHYVuVx1Krk7LYpIKKKKxGQ3P+pP4VSq7cDMRqlXyOfJ/WE/I3pbBRRRXhmoUUUUAFFFFABRRRQAVl65ottrNjJBcwLMjD5kI+9+PYjsa1KK0p1JU5KUXZoTVz528W+Crjw7I1xb7p9PY/LJjmP2b/AB6H2PFO8EePtQ8G337tjPp8h/fWzHg/7S+jfz7+3uGrWcbKSyK8UoKujDIOfb0NeQ+Lvh5JZeZf6KjS23V7fq0f0/vD9R79a+5yvOY10oVnZ9+5zTp21R7voPiDTvE2mpfaXcCWE8MP4oz/AHWHY/5GRWrXyZ4d8T6n4W1EXmlzmN+A6HlJB6MO4/UdiK+gPBXxK0rxfGkJYWepgDdbSNw3uh/iHt1HpXvmR2dFFFABRRRQAUUUUAFFFFABRRRQAUUUUAFFFFABRRRQAUUUUAFFFFABRRRQAUUUUAFFFFABRRRQAUUUUAFFFFABRRRQAVFc3MNlbSXF1KkMMa7nkc4Cj1JqvquqWei6bLfahOsFtCMs7H8gB3PsOtfO3j74jXvjK5MEW630qNsxwZ5f/af1Pt0HueaAOx8W/HArI9r4XiUgHH2yZc590Q/zb8q80v8Axj4h1Ry15rN7Jn+ETFV/75GBS+F/Cmo+LdSFnpsWQuDLM3CRL6sf6Dk17ZoXww8P6BEvnW66jeY+ea5XKg/7KdB+OT71yYvG0sJBzqP5FRi5PQ+fYoJ7uQiKKSZzzhVLGu08IW/jTQTNJoekSJJcAKZprUZwOcAv0B6++BXu0MEVugSCJI0HRUUKB+VSV81U4ok9IU/vZsqPdnntqPind486/sbMHrvSIkf98qa2LXQvFkmDqPjCbB6pbWka/wDjxH9K6qjFedVz7Fz+Gy9F/nctUoozLTRmt+ZtU1S7buZrogfku0VsRTtGoXqoHAqKiuL+0cTzc3O7/wBdCuSJeSRZVx+lU2UqxB7UgJUgg4IpzsJBuPDDrXTicYsZSXPpOP4olR5XpsMoooryDQKKKKACiiigAooooAKKKKAKV5DPdEIgCovO4nqazrzRtSkTFleW1u3954TIf5j+tb1FdFOvKm1y/wBfeJq54/r3wm1e8uJLsX9nLK/LBYPKBP0XP5153qWlahoV75N5DJbyqcqexx3Vh1+or6krI1zQbTWLN4rm2jmRuSjD9R6H3FfQYLiGrCSjXV15aMxlRXQ828EfGS604x2PiUvd2n3VuhzLH/vf3h+v1r3CzvLfULSO6s5UmglXckiHIYV82+MfA8ugZvbEtLp5ODn70RPY+o9/wNT/AA4+IU/hHUFtrp2fSJ2/ep1MRP8AGv8AUdx74r66jWhXgp03dMwaaep9JUVFBPFcwRzQSLJFIodHU5DA8gipa2EFFFQ3l5BYWct1dyrFBCpeR2PCgdTQBNRXzx4w+LmsazfSR6Pcy2GnqcRiI7ZHH95m6g+w6e9czaeOfE1jKJIddv8AIOcSTtIPybIoA+raK8Z8J/HFmkjtfFEChScC8gXGPdl/qPyr2C2uYbu2juLaVJYZVDJIhyGB7g0ATUUUUAFFFFABRRRQAUUUUAFFFFABRRRQAUUUUAFFFFABRRRQAUUVh6v408P6Hkajq1rE69Yw+9/++VyaANyivMNT+O+h22V06xu7xh0ZsRKfxOT+lclqHx3124yLGysrRT0LAyN+ZIH6UAe+VR1bVrPQ9Omv9RnENtCuWY9/YepPoK+a7/4leLNRz5ut3KKe0GIsf98gVz11fXd8+67up7hs/elkLn9aAOk8deO73xpqW5i0Onwk/Z7bPQf3m9WP6dB71PCHhC+8X6utpZrsiTDTzsPliX19yew7/TJqDwt4YvvFesx2FgnJ+aWVh8sSd2P+Hc8V9I6BoNj4T0WKw06PAXl3I+aVu7N7/wAunSufE4mGHpucnsNJt2QaPoen+F9Ki07TIgiKMux+87d2Y9yf07YFWc0pJJJPJNcd8QPGqeE9NEdsUbUbgHyVPIQf3yP5Dufoa+CrVa2aYlRivT07nUkoLU3NW8S6RoWBql/DbuRkITlv++RzXPT/ABb8LRZ2XNxNj+5A3P54rxSe31DULa41i8LvG0m1p5j/AKxz2HqcZPHQCrnhHwzJ4k1VYzlLSLDTyeg9B7np+Zr3o8P4SlTc6027b9EZ+1k3ZI9OuPjToqZFvY38p7bgqj+Zqez+IWs6sAdM8LS+Wf8AlrcXGxcfivP4VbsPD2k6Xg2WnW8TDo23c3/fR5robbTjJh7gkD+73NeRWqYCH8Olf1b/ACRaUnuyppt/rM5zeR2ef+eduGOPqx/wFbMXmnmUqPZRUiIsahUUKo7ClryK1RTldRS9DRKwUUUVgMKKKKAGswRSzEBR1JPSuRvviJZHUP7N0G2l1e/JxthOIl9cv6e4yPeuM8beJ7/xd4hPhvQ3K2iuY5GU480j7xY/3Rg/XGeeK9A8IeFbPw3pypbpmRhl5SPmc+p9vQdh717jwVLB0VVxGsntH/Mz5nJ2W3c0tMi1NgJtVnhEh6QWy4RPqx5Y+/A9q0aKK8ipU9pLmsl6FrQKKKKyGFFFFABRRRQAUUUUAY2rWMb71kjDwTqVkQjIOeo/GvA/F3h1/DmsvCMtayfPA57r6H3HSvo2+j8y0cdwNw/CuI8W+H18RaHLbqo+1R/vLdj2YdvoRx+Rr6LJce6E0pP3Xo/8zKpC60Mv4L+OTHKvhrUZSY3ybJ2P3T1Mf0PJHvkdxXtVfHUUs1ldpLGzRTwuGVhwVYHg/gRX1H4T8VW/iDwhbaxPLFD8m25LsFWN14bOeg7/AEIr7o5Toq8O+Mvjj7ddHw7p0ubeBs3bqfvuOifRe/v9K1PHnxit4beXTvDEvnTuCr3o4WP12ep9+g7ZryHSdKvNe1WKyskaS4mbufzJPp3zSbUU5SdkgNHwj4Uu/Fuqrawfu4Ew08xHEa/1J6Af0zXpuofDPwpa2SwYuluGZY1kWXcxdjgcHjqemBXS6Jotr4P0KOwswGmI3SSkYMj92PsOw7AVi6Bd/wDCUeLXuIDv0zSchX6ia4YYz7hVJ/PPevkcRmVbEVJVKUnGnD8f+HOhQSVnq2eSeKfC954V1Jre4xJCc+VMo4cD+RHp/MV3PwV8XSWmqnw/dyk2tyC1sCf9XIOSB6Bhk/UepNdX4/0NdZ0e7twgMoTzoTjkOv8AiAR+NeC2V3Np19Bd27FJreRZI2HZgcj+Ve7leO+uUOaXxLcynHlZ9h0VR0XU49a0az1GD/V3UKyAZ6ZHI+oOR+FXq9IgKKKKACiiigAooooAKKKKACiiigAooooAKKiubqGytpLi6mSGGMbnkkYKqj3JryPxf8bkhL2nhaMSMOGvZl+X/gCnr9T+RoA9S1XWtO0O1Nzql5DaxDo0jYz7AdSfYV5h4h+O9vFvh8PWDTsOBcXPyr+CDkj6kfSvH9T1W+1m7a61G7muZ26vK2SPp6D2FXtB8Ia14lk26VYyTIDhpSNsa/Vjx+HWlotwLGueP/EfiAsL7VJxEf8AljCfLT8h1/HNc5Xs2hfAlFCya9qJY9TDaDj/AL7b+g/Gu/0jwD4b0TabPSLcyDpLMvmP+bZx+GKzdaKHY+bNN8Oavq5H9n6Zd3IP8UcTFfz6V1Nh8HPFd6AZLWC0U955h/JcmvosAKAAAAOgFcj8QfHMHg3SD5RWTU7gEW8R7ert7D9Tx6kZqtKTskFjw7xf4QXwfJFa3Op291fuNzwQISIl7Ese59MdOeOM5Gi6Pe6/qkGn6fEZbiY4A7KO5J7AetRk32vatk+bdX13J/vNI5NfRXw98CQ+DdJDTBZNTuADcSj+Ef3F9h+p59MaznyR13BK5f8ACHhSy8G6ItpbYeZsNcTkYMr/AOA6AdvqTWjJIXYsfwFS3EuTtHQdagr4TOse69T2UXot/U6acLK5FPPFa28txM4SKJS7sewAyT+VeE2ltcfEjxtc3tzuWyRtz8/djHCoPc4/ma774ta01h4ZTTrdj9o1F/LwOuwct+uB+JpfCuhr4f0KG1IH2hx5k5H989vwGB+Fb4B/U8K8R9qei9OrFP3nbscF8RJGudfsdCsIgsVsipHDGON7/wD1sD869C8O6HD4e0eKyhwZAN0zgffc9T9B0HsKwoNHE/xVvL2Vcpb26Srn+8VCj8sE/hXe6dbebKZGHyJ09z/9atMxxXLQp0YvSyb82xQjq2WbGxEYEso+c9Af4f8A69XqKK+ZnNyd2bhRRRUgFFFFABVHXLprLQdQukOHhtpJFI7EKTV6qer2hv8ARr20XAaeB4wT2LKR/WtqHKqseba6uJ7HnHwm8Pqli2pTLmW6YhSR0jU/1b+Qr1Osfw1YLp+kwQKOIo1iH/AR/jmtiurMsS8RiJTe3T0JhGysFFFFeeWFFQ3N5bWcfmXVxDAn96Rwo/WsOfx7oEUwggvftlwxwsVohlZvpjj8zXRTw1ar8EW/kJtI6KiobWWSe3SWWFoWYZ8tiCV+uOM/TNTVjKLi7MYUUUVICMQoLE4AGSa5XWPiFp2mxSmC1v7x4wS3lwMqLj1ZgAB7jNdXXI+N9In1TTBpti3lveyxREnooLjJ+gHOK9HL4UalaMKqvd97ImbaWh5jr/xV13V2ZbWUafB2SA/Mfqx5/LH0rKsPHev2EgZb+Sde6T/vB+vI/DFei6/8E9PtPDs8+mX1019bxNJ++KlJcDJAAHyng45Pv614vX6BSwmGUOSMFb0ORydzc8Rsl7LDq0ZgAvwzSRxZHlSjhhg/UHPfNZX2mc232fzZPI3b/L3Hbu6Zx0zgDn2pkcbTSLGgLMxCqPc17jo3hWw8FWcUkui3Go3m0GS6SMS7W7hVzkAeoGT61nicZDBQjFq7eyGouTPLtC8B674hdTb2TxQHrPONiAfjyfwzXsfhnwzpvgbT2COs18y5muG+Xj0/2V//AFn2ytT+J8EOYrey1CWY8CIQFPzJ5/IVgHRfGPjyQLdxnStMJyVkBXP/AAH7zn64H0rxMRUxOLX+0NU6frq/8zRJR21Y/wAReKrzxZqY0Hw1ulM52zXA4BXvj0Udz36D39J8N6Fb+GtEg0+15EYy7kcyOerH/PAAFV/DHhLTfClmYbCMtK4Hmzv9+T/Aew/U81u14mOxlOcVQw6tBfe33ZpGL3e5n6qnEUg/hOP8/lXzt4v00aT4ovrZRiPzN6f7rcj+ePwr6Q1BN1m/qvzCvFvizY7NQsb5R/rYjEx91Of5N+lehw5X5a3s3s1+WpNZaXO/+B2sG+8ITae7ZewnIUZ6I/zD/wAe3V6VXgHwL1M2vi+4sWPyXlscD1dDkfpur3+vtTmCiiigAorB13xRBpNzDp1rGb3V7n/j3s0bBP8AtOf4VHqfTgGtOwhuYbYfbZxNct80jIu1AfRR2A98nuTmgC3RRXIeLPiXofhPdDNKbq+H/LtAQSp/2j0X8efagDr6K+eNW+M/ifU5imnGLT4ycKkKB3/76bOT9AK920G2u7PQbKHUZ3uLxYh50rnJZzyfwBJH0FAGjRRRQAVgeK/GGl+EdPNzqMv7xgfKt0OXlPsPT3PA+tZnj34h2fgy18tQtxqcq/urfP3R/ef0Ht1PbuR866xrN9r+pS32pXDT3Eh5Y9h2AHYD0FAGz4w8e6t4yus3cnk2anMVrGfkX3P94+5/ACsrQ/D+peIr4WulWr3Ep6kD5UHqx6AfWum8CfDO+8Vut3dl7TSgeZtvzS+yA/8AoR4HvXvujaHp/h7T1stLtkt4V64HLH1J6k+5rKdVR0W40rnCeE/gzpulhLnXmXULsc+UOIUP06v+OB7V6PFFHbwrFDGkcaDCqgwoHsB0qWiuSU3J6soKKKoavq9poWlz6hqEoit4Rlm7n0A9STxiklfRAUfFnimz8JaLJf3h3PysMIPMr9gPbuT2FfM+s6zfeI9Xmv7+Qy3Ex4A6KOyqOwHYVe8Y+LbvxhrT3tz8kK/LbwA8RJ/iepPc+2BXpHwn+HPkmLxDrUP7w4ezt2H3f+mjD19B269cV1xSpxu9ydzY+F3w8/4Ry1Gq6rGP7UnX5EYc26Ht/vHv6dPWvQp5PLQnv2qQnFUZpN8hPYdK8PNsb7Ck9feeiNIRuyOiiqupXsem6ZdXsv3LeJpD74Gf6V8RCLnJRW7OrY87vV/4Sf4ozSv81loiLGoPQy9fzDE/98iuwgt5LgkRrnHUk4rA8J6c+n6GklwD9ru2N1cEjks3IH5Y/HNdtaQ+TbquPmIy31r18wrKLVOG0VZfLd/NmcVfV9TAew+y30srKBLKiKxHOQu7H/oRrobWLybdE745+tVbqLzNRgGOCOfw5q/XnVqrmlctKwUUUVzDKl5fJZz2cTY3XU3lKM/7DN/Jf1q3XDeNdT+z+N/CdsDgee8jfjhR/M13Nddeh7OlTn/Mm/xZKd20FFFFchQUUUUAQWS+XaqvfJz+dT0gAHApaqT5ncAryjx38U5IbmTTfDsqjZlZbsDPPon/AMV+XrVn4o+OzZRSaFpUv+kOuLqRT/q1P8A9yOvoOOvTxqvrskydNLEYhX7J/mznqVOiJrq8ub6YzXc8s8rdXkcsT+JrpfBvjAeG5jDPbRSW0h+eREAlX6N3Hsf0rk6K+oq0YVYOnJaMxTadz6h0jUo72CMpIJUdQ0UgP3lNadeJ+A/GsOk6OLKaK6uLmOYm3igj3Eqeo/PP516Zpuq69qhDto0Wn256Nc3G6Qj/AHFXj8SK+Ax+WVKFSVrJd20jqjNNHQUUDOOetFeMaBVDU4ryRYn09YDPG25WnYhR+Qyf0+tX643xR8S9J8Nzvaxq17epw0UbYVD6M3Y+wyfXFduCo1qtVexjdomTSWousaF4y1uKWKbxLa2sMqlWhtbYqMHgjcTu/WuIufgve26FxqluyjjJjIq+3jfxzrETTabpMVlaqNxmkjwoHqXkIXFYdt8WNetZ3i1E29/DkqwCqn4qyj+YNfV0lmv2Zxflp/kYPk7M5GWCXQ9eMU2DJaT4OOh2t/8AWr6hjkWWNXU5VgGB9jXzB4g1Vda1q41BYPI88hvL3bsHAB5/DNfR3hub7T4Y0uYnJe0iYn/gIrn4khJ0qVSW/X5jovVo06KKK+Pu2dAUUUUANkTfGy/3gRXlvxPtPtHhQTfxW06t+ByD+pFeqVw/jO1E/hrV4cZIiZgP907v6V6uVVHTxEX5oiorxZ5L8P7/APs3x7o1xnA+0rGx9n+Q/o1fVNfHNtM1tdRTp9+Nw4+oOa+sP+Elsf7/AOtfo5xlfxX4ptfCtgksqPcXVw/lWtrH9+aQnoPTqOf5kgVzHizxvd+CfD0aXksdz4iv8usKj93b59B/dXoM8scnpwEtrZde+LWo6peN/oOg20aQhvuh3Tfu/AFj/wB81yvge1k+IfxMvfEd+pazsnDxI3TPSJfwA3fUe9AHefDzwlNotpJquss8+u6iN9zLIctGDyE/DjOO/HQCuwmmjgieWV1jjQFmZmwFA6knsKkrwL4rfEZ9cu5dE0qTGmwNiaRT/wAfDj/2UH8yM+lAFvx98YJr15dN8MyNDaj5XvBw8n+5/dHv1Pt388t9DvrvSrnVnQpZw/enlOA7E42r/eOT26dTiuq+Hvw9bxG66jqYZNNQ4VRwZyOw9FHc/gPbW+Mt7HZwaVodoiw26KZjEgwo/hXj2+b8682eYxeJjhaWr6vsv8y+TTmOJ8ES6dB4y0ubWJPLs4pg7MRkBhyufbdjJ9K+qlIZcggg96+XfFvhy30e2025sZVmguIQHKuHAlUDdgj1znHbmvcvhVq0mr+ALB5m3S2+63Yk/wB04H/juK76dSNWPPHYh3R2Ncl8QPHNv4M0jeCsuozgrbQE9+7t/sj9Tx7jb17W7Tw7o1zqV8+2GBc47seyj3JwK+XPEXiC78T61canftmWU/Kg5Eajoo9h/iasCpqOoXWqX015fStNcTNud2OST/nt2r0j4bfC06uItY1+MrY/egt24M/+03ovt3+nWD4VfDsa9OmtatFnTYm/dRMP9ew9f9kH8zx0zXvQAUAAAAcACsKtW2iGkMjjSKNY41VEUAKqjAAHYVJRSMwAySAK5G0ldlBQcVXkugOEGfeq7Su/3mP0ryMTnNCjdR95/gaKm3uW3uI4wSWHFfPXxR8cv4o1f7HZvjS7RiIwD/rW6Fz/ACHtz3rufiv4q/sbRRplo+Ly+UhiDykXQn8en0zXmfgDwlJ4w8Rx2zbhZwgSXTjjCf3QfUnj8z2r0srqVa1N16qsnsv1ImknZHVfCj4dDVZY9e1iLNlG3+jwsOJmHG4/7IPbuR6dfdKigt4rWCOC3jWOKNQiIowFA4AFPZgikn0rerU3k3ZISRDcybV2jqaqU6Ri77jTa+CzDFvE1nLotjphGyCsTxVD9s06KxPMdxMolHrGp3EfjtA/GtusjUpfMuQg5CDHHqf8iscM3GopLoVLYZYw+fcAkfIvzGtqq9nb/ZoAp+8eWqxUVp80gSsMZMzo/wDdB/XFPoorK9xhRRRSA8e+I96U+KGj8/LAsOfbMhP8iK9ctn8yCNu+Oa8K+Ksxj+IcrjrGkRH4AGva9ImE1qceu4fQ8ivos1p2weHku3+RlB+8y/RRRXzpqFFFFABWRr0+pC0Nvo8Q+1TDb57j5IB/e/2j6AfU8Vr0VrSqck1K1/UT1POB4EtrDR7+1AabUbyFg91Ny7MeR9AWx7+pNWPhJ4K06LQBq2oWkc99NK6gTIG8kKSuAD0OQTnr0Fdpf2puIwyf6xenvXNat4ofwlpkqWdsJr68kK20AHJlPVseg4J9Tj1zX1OVZnOpJ06jbcvw/wCAYzgkrowPjNZ+Gbezi8mOGDXCwKpAgG5O/mAdB6E85GOma5Twr8M7/Wik+oBrW1PIXH7xx9P4R7n8jXaeE/AkjXr6vr8n2zU5W3uzncsZ9vVh69B0HrXocUSQptQYHf3rTMM99lelh3d9X/kKFK+rMfQfCumeH4Allaxo2OXxlm+pPJ/zwK26KK+Tq1Z1Zc03dm6SWwUUUViM5nx9r0ugeGZHsy3225YW9uFHIZu49wAfxxWd4J+HlpoVrHealElzqsg3szjcIj6Lnv8A7Xr04rQntBrvjqKSQbrTRY8gHo1w/P47VwfYkV0zMEQseABkmvXlXeHw8aFN2ctZP12X3a/Mi13dnjfxI1y+8R+KF8M6ZveKKQIY1P8ArZepz7L79ME12XhL4b6X4ftklvIor6/PLSyLuVD6KD0+p5+lc58J9OOqa5q3iO5XczSMkRP95juY/XBA/E16tXbmeLlhorB0HZRSvbqyYRv7zPF/jTYxW2sabNDEkayQMhCADO1s9v8Aer07waCPBmjg9fscf/oIrgPjgoZ9FAGWPncD/gFenaVamx0iytT1ggSM/goH9KnHVefLKClu2/wuEF77LdFFFfOmoUUUUAFc5q8ImS+hI4kR1/Nf/r10dYd3zeyD1bFdWEbU7oUj5nPU103/AAl1x/fP51z95H5V5On92Rl/I1DX6lHVXOE+l/Etn/wjngTxNcq4Mt3GzFh2JjWIfy/Wm/CTRhpHgGzcriW9JuXP+9wv/joH51b+KCNJ8OtWRBlmWNQPXMi10dharY6fbWkf3IIljX6KMf0oA5D4seJH8O+DpVtn2Xd832eMg8qCMs3/AHzkZ7EivDPBfhx/FHiOCyORAv7ydh/Cg6/icgfjXof7QBk8zQ158vEx/H5P6VV+CcccdrrV3gGVfLUfT5j+px+VcOY4iWHws6kd+nz0KgrtI9Ilmi023jtLKNY0jUIqqOEA6CvEPinM0vi87mJK28YyT9T/AFr15iWJJOSTkn1rxPx/dC78ZXxUgrEViyP9lQD+ua+eyCm/rDlvpq/mjaq9DBf7RFCkcnmLFJ+8VWzhu24fkRn2r6C+CMTR/D9WPSS6kYfTgfzBrF1D4dHXvhVorWsYXVrO0EsQxjzFb5zGff5sj39MmoL3xgvw8+HOl6JZ4GuTWwkdCP8Aj13/ADEsP73zYCn6njg/XnOYPxk8XnWtd/si0k/0KwYh8HiSboT/AMB5H13VzngPwjL4w8Qx2nKWkX7y5kH8KegPqeg/E9q5z555P4nkc/Ukn+Zr6Z+HvhNfCfhmK3kUfbZ8S3Tf7R6L9FHH1ye9Z1J8kRpXOjtLWCxtYrW1jWK3hUJGijAUDgCpqWq88+35V615eJxMMPB1Kj/4JaTbsh0s6x8dTVR5Gc5Y/hSZzyaSvjcZmNXEu17R7HRGCiFRXNzFZ2stxcOEhiQu7HsoGSalrzf4xeIvsOkRaPA+Jbz55cHkRg9Pxb9AaywOFeKrxpLrv6dRylZXPLPE+uS+I/EFzqEuQJWxGh52oOFH5frmvoD4beFR4W8KQxyptvrrE1ySOQT0X8Bx9c1478KfDP8AwkPi6KWZN1nYYnlyOCwPyL+J5+gNfR9folS1OKpQ0SRyLV3Fqpcy5OwdO9TTybFPqelUa+YzrG8kfYQer3Nqcb6sKKKK+VNyOeUQQtIew6etZ+n25lkNxJyAeM9z61Pcqbu4ECnCJ8zsP5VcVQiBVGFAwBW9+SNurF1FooorAYUUUUAFFFFAHgfxdjKePJm/vwRt+mP6V6r4MvPtOjafKT/rrVM/UDH9DXnXxrttnieynxxLaAZ91Zv6EV03wzvvN8KWRJybeRoj7Ddn+TV9fjo+1yulJdLfkc8Xaoz0aiiivkDoCiiigAooooAK59tJW88Sy30p3yIoijYjiFO+P9piTk+mB0roKighEKnuzEsx9c1vRrSpJ8vVWE1ceiCNAigBQOAKdRRWFxhRRRQAUhzg4xntmlooArWVmllAUTlncySORguxOST/AJ4AAqLW5xa6DqExOBHbSPn6KTV6s7XbRtR0qSxGQLoiJyOyE/P/AOO5H4100pKVaMpvS6uJ7aGX8P8ASv7I8FafCy4klTz3+r/MP0IH4V0tNVVQBVACgYAHanVOIrOtVlUfVtglZWPNfHtuNW+I/hnTsblH71x/s7sn9ENelGuGsbf+0/i/qN2RlNMtEhU+juM/yLV3Nd2YTtCjRX2Yp/N6kxWrYUUUV5RYUUUUAFYVwc3rn/brdrAY77kn1f8ArXTht7ikfO2rjGs3o9J3/wDQjVOreqNv1W8b1mc/qaqV+pU/hXocLPrvXNP/ALV0mW0IBDshIPs6t/StCiimBxHxW8LS+JvCZNohe8sm8+JQMlxjDKPcjn3IArxr4feKF8O6vLFc5FpeKIpD/cYH5W/Akj6E19OV81/FvRho/j66MUYSG7VblABgc8N/48pP41lWpRrU3TnsxptO53njDxIPDWleckZe5mJSHjKq3qT7dcd/pXl3hTw9N4r8QLHM+y1VvOvblzhY485JLHueg9z6Zr0VbdPG3w+hUlTcPENrH+GZOP1wR9DXkr6ffw3L2TW9wsu7DRBDkke3evKyeNOlCcNpJ2f6GlS7afQ9o8ZfGGw0q2On+FylzcBdn2gDMUQxj5f75/T3NeI3V1Pe3MlzdSvNPKxZ5HOSxPcmut0L4banqDrJqI+w23U7x+8b6L2/H9azPGSWVprTadp0YS3sgIs5yXf+Ik9znj8K9KGKpVKnsoO7W9uhm4tK50Xwe8MDW/FP2+4Tda6aBJz0aU/cH4YJ/AV9CVyXw18PDw74Ms4ZE23NyPtE+RzuboPwXA+oNdTLJ5a5rnxNZRvOTskUl0GTzbBtXqap0pO4knkmkr4LHY2WKqcz2WyOqMeVBRRRXAUFfNvjvVzrXjHULncTGkhij/3V+UfnjP419JV8p38TwX9xFKCHSRlYH1Br6vhinFzqTe6svvMKz0SPoX4R6EukeB7edlAnvybhz/snhR9NoB/E13OcZ9KwvBF3Fe+CNFmgI2fZI0OOxVdpH4FSK17l9qYHU17eLr+xhKpLoZxV2kV5pN7k9h0qOiivz+tWlVm5y3Z1JWVgpGztO3G7tS1A9yi3KW+cysC20fwqO59s8e/51nGLewySKIRJtHJJySe5p9FFJu+rAKKKKQBRRRQAUUUUAeXfG+z36Zpd6B/q5XiJ/wB4Aj/0E1l/CW73WepWZ/hdJR+IIP8AIV2HxZtftPgK5fGTBLHJ9Pm2/wDs1ebfCu5MXiaWHPyzW7DHqQQf6V9jg37bKJR/lv8Ag7nPLSoe828nm28b+q1LVLS5N9sV/utV2vkaitJo6EFFFFQAUUUUAFFFFABRRRQAUUUUAFFFFABRRRQAUUUUAYvhrTWs4r27uEK3GoXL3Dg9VUnCL+CgfiTW1RRW1aq6snN9RJWQUUUViMKKKKAGyNtjdv7oJrm5JBFDJK3RFLn8Bmt3UH2Wb+rfLXHeLLwWPhTUps4PklFPu3y/1r0MDTdSaiurSIk7anhEjl5Xc9SSam+wXH/PNvyqGKJ55kiQZd2Cge54r6W/4VvYf7P5V+mWscZ2VFFFABXmXxs8Mvqvh2LVraMtNpxJkAHJibGT/wABIB+hY16bTXRZEKSKGRhgqRkEUAfNngDxfBoTS2Oosy2kzblcDPlN05HoRjOPSvTV17SnjEqapZFfXz1H9a57xn8FJvtMl54WKNE5LGzkbaUP+wx4I9jjHqa89m8C+KLaTy30LUd3+xAzA/iOK8rFZTSxE/aXab38y41GlY9M1P4gaHpqN5d19qmA+VIBuBPu3TH515z4M0pvFXjqyt7gb0lnM05PdR8zfnjH41jalpV9o9yLfUrWW1mKhxHKu1sHPOPwNen/AAF00PqOq6ky/wCqiSBD/vHJ/wDQR+dbYbBU8HB8m73bE5OT1PaqpXEm+TA6DpVqZ9kZbvVCvm89xLSVFPfVm1KPUKKKK+WNwooooAK8L+LPhltJ8QtqUKH7LfksSB92T+Ifj1/E+le6Vj+KtKt9a0Gexul+STGGAyUbsw9x/wDWr1coxrwmIUuj0ZFSPMjzr4M+NFsLs+Hr+TbBcvutWP8ADIeqfRu3v9a9jumzJj0FfKuraZdaDqktpcApNC3DDoR1DA+h617h8OvGw8U6Z9mvZB/adsoEmf8AlqvQP9egPvz3r6bPoSnhOelqtG/TuYUtJWZ2lFFVdRv7fStPmvL2UR28K7nY+n9T2x3NfDwg5yUYq7Z1FTxBr9t4d0try5y7E7IYV+9K56KB/nFN8P2Fxa2j3WpMH1K7IkuCOif3Y1/2VHHucnvXF+FGuPHviqTxJqCFNPsG8uxgPID+vuQMEn1I7DFel16OLprCQVBfE9Zfov8AP/gERd9QoooryywooooAKKKKACiiigDA8dQfaPBGrpjOLZn/AO+fm/pXh/gCUxeNdPweHZkP4qRXv3iJBJ4Z1RT0a0lH/jhr548Gkr4w0s/9PC/zr7DIvewNaHr+Rz1fiTPoTSXxLInqM/l/+utSsTT223qe+RW3Xy2IVpG8dgooorAYUUUUAFFFFABRRRQAUUUUAFFFFABRRRQAUUUUAFFFFABRRRQAUUUEgAk9BQBmarLzHEO3zH+n9a81+KuoiDRrWxVvnuJPMYf7K9P1I/Ku/nlNxcO/qcD6V4f4+1b+1vFNwY23Q2/7iM+uOp/E5r6fIsM5103tHX59DGq9A+HWl/2v490m327kScTP6YT5/wBdoH419S14n8BdEL3eo61IvyxqLaInoScM34gBfzr2yvtTmCiiigAooooAKKKKAPmj4uXRuviRqfpF5cY/BF/qTXpXwOtRD4KuJ8fNPeNz7BVA/XNeTfERzJ8QdbP/AE9MPy4/pXtPwdQL8ObM/wB6WU/+Pkf0rKt8A1udfdt90fjVapbk5mPtUVfnGZ1HUxU320+464K0UFFFFeeWFFFFABUF5GZbV1HXGR+FT0U4uzTA838beF18RaZvgUfbrcExEfxjqUP8x7/WvJNH1W68P6xDfWrFJ4G6Hv2Kn2IyK+iL63+z3HH3W+ZfavIPiZ4eFhqSanbIBBdkiQAcLJ/9cc/XNfZ5LjVUTw1TVNafqjnqRtqj2vRdXt9c0a21G1P7qdN2CfunoQfcEEfhXkXjbxLceOfEtvoOisXs1lCKQeJX7uf9kDP4Amub0vxjfaV4Uv8ARLclUunDCTJyikYcD64A/Ou8+DXhny4JdfuU+aTMVtkdB/E358fgalYGnlXtMVPW2kV6hzudor5no2i6Tb6HpFtp1qP3cCbc4+8e7H3Jyfxq9RRXyNScqknOTu2dCVgooorMAooooAKKKKACiiigDO8RSCLwzqjngLZyn/xw188+C18zxjpg9Jwfy5/pXufxDuxZeBdWcnBeLyh/wIhf6mvGfhvbGfxlbN2hR5D/AN8kD9SK+wyRcmArTfn+Rz1NZI9phbZMjejCuhrm66NG3IreozXzOIWzN0LRRRXKMKKKKACiiigAorN1vXLHw7pzXuoSmOIHaAOWdj2A79/yrkLL4j6jr8xj8P8Ah6SSPOPtFzNsQfXA6+wJNd1DAV60PaRXu920l+JLkk7HoNFZ2lx6ps83VbiBnI4ht4yqL+JJJ/T6Vo1y1YckrJp+g1qFFFFZjCiiigAooooAKKKKACiiigAqlqNz5cXlqfncc/SrE8628ZdvwHrWDc3I/eXE7qiKCzMTgKB/QCuihTcpXE2YXjHXRoHh+aZWAuZR5UA/2j1P4DJ+uK8OVXkkCqCzMcADqTW/4x8SHxHrDyoSLSH5IFPp/ePuev5Cum+DnhA614gGrXUebLTmDLkcPN1Ufh97/vn1r9CyzB/VaPvfE9Wck5XZ7H4H8PDwx4SstOIAnCb5z6yNy35dPoBXQUUV6RAUUUUAFFFFABRRRQB8r/EEY+IGtj/p7evavg4+74c2Y/uyyj/x8n+teO/E+LyviPrK+sob80U/1r1f4IziXwLImeYryRcemVU/1rGv8A1udpMcyt9abTn++31ptfmGId6sn5s7VsgooorAYUUUUAFFFFAFe8g+0QED7w5WuJ8Z2kN54T1FLlgixx+YrH+Fl5H5nj8a76vMPjLefY9KtrWJgDeylnA9E5P5lh+VetlKlPEwgnbW/wBxFTSLZ5Voekza5rVrp9v9+4kC7sZ2jufwGT+FfTlhZQ6bYQWlqu2GBAiD2HH515F8FNLWbVb/AFF1B+zxiKMnsX6n8lx+Ney16HEmLc6yoLaP5sijGyuFFFFfMmwUUUUAFFFFABRRRQAUVXu7+00+PzL25ht0/vSuEH61zl58TfC1kSp1MSsO0MbP+uMV00sLXrfw4N+iJckt2c78atWEGkWWlo3z3EhmceirwPzJ/Suc+E1gWu7+9I4SNYlPuxyf0X9a5vxn4iPifxJcXwyIP9XArdkHT8+T9TXpfw/0z+zfCdszLiW5Jnb6Hhf/AB0A/jX19Wn9RyxUn8Uvzer/AMjBPmnc6Wugtjm2iP8AsiufroYBtgjHoor5LEbI3Q+ioxNGZjEHHmKAxXPOPWpK5WmtygooopAFFFFAHnXj+xbxD4w0TRiWNvHG91OFP8OcfmduPxrrHjj8O6DPdQ2yt9khLiGP5QFUZIHpwDS2el/8VHqGqTDLOqQQ5HRFGT+bMfyq9qcYl0m8jb7rQOp/FTXrVMSpKlQXwxtfzb1f52Itu+pR8P8AirS/E1r5um3IZgPnibiRPqP6jI962K+U7W8uLG6W4tJ5IJkOVeNipH4iu80b4x6xYhY9Shhv4x/F9yT8xwfy/GvUxnDc0+bDO67PczjWXU9woriNJ+LHh/UtqzySWUh/hmHH/fQ4/PFdZbapZXkYkt7mORD0ZTkfnXgV8FiKGlSDRqpJ7Mt0UiurfdYH6GlrksUFFFFABRSEgckgD3NV5b+CLPzhj6LzVKLeyAs1Bc3cdsPmOW7KOtUJtTkkyIhsHr3rG1XWrHRoDPqV0kQPIBOXf6Dqa6qOFlNpJXfZEuVjQuLhp3MkjAADPXAUV5P498bjUy2maXJm0U/vpR/y2I7D/ZH6/SqXivx7da4r2lkrW1geCM/PL/vEdvYfjmsHRNCv/EWpxWOmQNNPJ6dFHdmPYD1/rX2WWZR7FqrWWvRdv+Cc86l9ESeHfD954m1mDTLBMyyn5mPRF7sfYf8A1utfUPh7QbXw3oltpliuIoV5bvI3dj7k8/p0rL8DeCLPwZpfkxbZryXBuLjbgsfQeij0/Guor3jIKKKKACiiigAooooAKKKKAPnD4z23kfES5fGBPDFJ/wCO7f8A2Wux+Al2G0rV7TPMc0coH+8pH/slYfx5MB8U2HlsDcC0xIo7De23+ZqH4HaiLbxhcWbHC3dsQB6spDD9N1Z1VeDGtz2uT77fWm0+fiVqZX5fiVy1przZ2x2QUUUVzjCiiigAooooAK8Q+NF353iq1tgeILUZHoWJP8gK9vrhviJ4DTxNam+sFVdUhXAHaZR/Cff0P4H29nJMRToYpSqOyta/mZ1E3HQx/glc2/8AZuo2vmL9p80SGPPJTGM/TOfzr1Gvlywv77w7qyXNsz295buQQRggjgqR+hBr3/wf4xs/F2nB4iIryMfv7cnlT6j1X3/A1359l9SNV4mOsXv5E0pq1jpKKKK+XNgooooAKKx9f8VaT4ag8zUrpUcj5YV+aR/ov9Tge9eQ+J/ivqusb7fTM6faHj5D+8Ye7dvoMfU16uByjEYt3StHuyJVFE9T8ReOdF8MqyXdyJbkf8u8PzP+PZfxry/Xvi9rOpFo9NVNPgPQr80h/wCBHp+AFcxo/hvVfEUubSB2Qn5p5DhB9WPU+wya9B0X4Y6bZbZNTka9lHVBlYx/U/jj6V9DHCZdly/ee9L7/wANl8zHmnPbRHmYXU9duyQLq+uG6n5pGNb1n8NNfugGkhitVP8Az2kAP5DJr1+2toLOIQ20McEY/gjUKP0qWs6ufT2oxSXmNUl1Z5nb/CW4DobjUoAuRuVEY8fU16UkaxRrHGoVEAVVHYDj9KfTa8vFY2tire0d7FxilsSwRmWZEHc81v1m6XB1mI/2VrSryK8ru3Y0RheJdMa+jilgne1uos+Tcx/ejb+qnoVPBFc9pnxGOn3/APZfi6AWV2v3bmMEwyjs3sD68j6V3U0SzQtG3Qjr6VyGu+H7PXLVrPUYslc7JF+/GfUH+nQ16GDq0akPZYhXj3W69P8AIiSad0dfDPFcwpNBKksTjKuhBDfQipK8Km0zxV4BmefSLqaWyzktGNyf8DQ9D7/rW/onxqjYLHrdiyHvNbHI/wC+T0/A/hW9XI6jXtMNJTj+P3CVRddD1aiszRfEWmeIYGm0u6SdUwHABDL9QeRWnXjVKUqcnGas10ZomnsFY/i2/XTPCeqXTHGy3YL/ALzDaP1IrYrzr4z6ibbw1a2SnBu58sPVUGf5lfyrqy6j7fFQh5/lqKbtFs8QPWiiiv004gqzaXt1YyeZaXE0Dj+KNyp/Sq1em/CnTIzZ6hfSorGRhAoZc8D5j+eR+Vc2MxEcPRdSSv5FRV3ZHO2PxI1+ywHuI7lR2njBP5jBrorL4wMMC709x6tBMR+h/wAa5jx+9r/wldxDZW8MEcAEbCJQoZupPHucfhVnTPhj4k1jRbfU9PtI5YJwWRfOVWwCR0OPSuf6hhMTBTlTSur9vyHztPc7aD4taTKB5kl/Cf8AaQHH5GrQ+Jmgv11Ocexif/CvN5vhv4tt/v6Fdn/cAf8AkTVY+BvE4P8AyL+p/wDgM/8AhXPLIcI3pdfMftZHpknxI8OjJ+2TSH2hb+tZt18VtLiBFrZ3U7erlUH9a4mL4feKpjhdBvx/vxFf51rWXwe8XXeN9hFbKf4pp0H6Ak1UMkwkd7v1f+Qe0kR6n8T9YvAUs1hskPeMbn/76P8AQCuRurqe8maa5mkmkbq7sST+NeuaX8A5mIbWNYRV7x2sZJP/AAJsY/I16BoHw58OeHCslnp6y3C9J7g+Y/1GeB+AFejRw9KirU4pENt7ni/hD4Va14maOe4jOn6eeTNMp3OP9hep+pwPrXvHhvwrpfhXTxaaXBsBwZJW5eQjux/p0HYCtmithBRRRQAUUUUAFFFFABRRRQAUjEIpZiAoGST2pa86+Kvjy10LSLjR7VvM1O7iKFVP+oRhyze5B4Hvnp1APFvGOuHxH4sv9SzmOWUiL2ReF/QCmeENW/sPxdpmoE4SGdfMP+wflb/x0msyztZL28htoRmSZwij3JxWx4y0NdA8QSWkWfJMaPGSeoIwf/HgazlUipqm3q02Oz3Ppq5/1xPqKirD8E60Nf8ABemXjNumSPyJu53pxk+5GD+NblfnGaU3Txc4+Z103eKCiiivOLCiiigAooooAKKKKAOG8e/DqHxIj32nBIdUUc54Wf2Pof8Aa/A8cjxZW1Lw1q+VM1lfW7f7rKf6g/kR6ivqI1h+JPCWl+KLbZqEA81RhJ04dPx7j2PFfSZZnboL2OIXNH8v80ZTp31W5wWg/GlRGsWv2bMw48+2xz9VP9D+FdbbfE7wrcoD/aYiP92WJwf5YrzvV/hDf2krfYbyKZP4VmBQn8eQf0rBl+H3iOIkDTy49UkQ/wBa9GWAyrFe/CfLfs7fgyFOa0aPX7v4peFrRCV1Brhv7sMTE/qAP1rh/EXxjvb1Gg0OD7HGf+W0mGkP0HRf1+tc5bfDnxFcMA1okA/vSyqP5Emup0f4V2luVk1e5Nyw/wCWUWVT8W6n8MURwmVYP32+Zrzv+C0+8OactNjgbPTdW8Tagxgjmu53OZJXOQPdmPT8a9E8P/DOysds+sOLycc+UvES/wBW/Qexrs7W1gsrdYLWGOCFeiRjA/8A11aitpZvuRsR6ngVy4vOqlRctL3Y/iONNLV6kEcaxRrHGipGowqqMAfQCndeByfQVpRaUODK+f8AZWrsUEUP+rQL714M669TWxkxWE8uDt2D1bircelRj/WOWPoOKv0VhKtJ7aDsQrZwJ0iX8Rmn+RF/zyT/AL5FPorNzk+oxAAoAUAAdgKWiipAKytVVROjD7xXmtWsbUpN92w7Lha3oL3hPYq8ivFPiCYv+EyvFhjSNUCqQihcttBJ49zXtYxnk4Hc+lfP2uXv9pa5e3eciaZmB9s8fpivrOH4N1ZS6JfmYVXokLo2tXugajHe6dMYpk/EMO4I7g+le+eDfG9j4tssoRBfRjM1uTyP9pfVf5d/fzjw74Ls/G/gEyaSqw69prskiluLlWJZc+hwSAf9nB45HDxTX+g6pujMtpe20hByNrIw6g/4GvWzLLKeNjrpJbP+uhnCbi/I+pq8e+OEjHUdJT+ARSMPqSM/yFdX4G+Idr4lhSzvmSDVFHK5ws3uvv8A7P5ZHSL4qeF7jXtHgu7GIy3VizHywMl0OM4HcjAOPr3r5XLqcsDmEY4hW3/FaG83zQdjwalruLPSvCeuWyt9uk0e9AxJDK2UDdypbt7ZyKmT4d6UGDSeJ7QoTwFC5P8A4/1r7F4+lG6mmn6P9NDn5WzhI0eR1SNSzscAAZJNe3eHbIeFPB6C8wrwRtcTj0Y84+uMD60eH/B2kaGVntI2nuCOJ5eWHuB0X+fvXHfEPxhHfKdI02QPArfv5VPDkfwj1APOe5rya+IeZVFQpJ8qd2zRLkV3ucVi41jVwFG+5vJ8Aeru3+Jr600qwj0rSrSwh/1dtCsS+4UY/pXhXwX8JvqviD+2rmM/Y7A/uyRw83Yf8BBz9dtfQFfQ2SVkYhRRRTAKKKKACiiigAooooAKKKKACiiigAooooAKKK4D4m/EVfCVsLDTtr6rOm5SRlYFPG4+p64Htk8cEAPiP8SYPCds1hpzJNq8i8DqtuD/ABN7+i/ieOvz1cXE97dyXFzK808rFndzlmJ6k0lxPNeXMk9xI8s0rFndzksT1Jr174b/AA5+xeVrOtw/6QcNb27D/V/7TD+96Dt169OTG4yng6bqTfourKjFydkR+A/h2+m2o1nVkK3eN0EB/wCWQ/vN/tY7dvr0qfFTSvtGlW2pIvz2z+XIR/cbp+TcfjXr5AYEHoRzXLavpkd7aXen3H+rmQx59M9D+HB/CvjqGaVKmLVeo9nt2R0OmlGyOH+C2veRe3miythJx58IP99Rhh9SuD/wGvYa+YLK5uvDHiKOZQVubGflT3IOCPoRkfQ19LaffQ6lp8F5btuhnQSIfYjP51vxHhrVY147S/MVGWlizRRRXzBsFFFFABRRRQAUUUUAFFISBjPc0tACOqyKVdQynsRVOTS4n5RmT2HIq7RVxnKOzCxnf2R/02/8dpyaVGPvSM30GKv0VTrTfUVkQx2cEXKxjPqeamoorNyb3GFFMkkWJCzHAFOXJQFhgnt6UW0uAtFFFIAooooAKKKKAAkAEnoK52RzJKznuSa276Ty7Rz3I2j8aw668OtGyWZPivUv7L8MX9yDh/KMaH/ab5R+Wc/hXhUdvLLBLKiFkhAMjD+HJwP1NejfFfVMRWWmI3LZnkAP4L/Wm+CfDYvvA+qFlHmagCkZP+xyv/j38q+xy6UcHg1Vn9pr/L/NnPP3pWXQo/B/xAdG8bw28r4t9QX7OwJ4DdUP13cf8CNep/Eb4b2/i62a9sVSDV4lwrkYWcD+Fvf0bt0PHT51SSW1uVeMtHLE4ZSOqsDx+tfWHhfXI/Efhqw1SPGbiIFwP4XHDD8GBFfQGR8rXdpeaRqD291HLbXVu3Kt8rKR/nqPrXoXhf4w3VlGttr0TXcY4FxGf3g+o6N9eD9a9Z8W+B9I8YW4W/iKXKD91cxDEiex9R7H8MGvGtd+DPiPS5Gawjj1K3HRoWCvj3U/0zXNicJRxUeWrG/9dylJxd0dlceJfh34g/fX/wBkMp5YzW7I/wCLAc/mazbnxR4C0FRJo0CSXA7wQEn/AL6fp+FecSeDPEcT7JNB1Pd7Wrn+QrS034Y+K9TcCPSJoFPV7nEQH/fXP5A1wRyalHT2kmu19CnUb6Id4j+IWoa2j29uBZ2rcMqNl3H+03p7DH403wT4B1HxlfL5atBp6N++umHA/wBlf7zfy716L4Z+BtpaMlx4iuvtcg5+zQZWPPu3Vvwx+Nep2tpBZW0dvawxwwRjakcahVUewFenRo06MeWmrIhtvcr6PpFnoWlwafp8QitoF2qvc+pPqSec1eoorUQUUUUAFFFFABRRRQAUUUUAFFFFABRRRQAUUUUAFfNXxfSRPiTqRckhliK59PLX+oNfSteF/HnSmh13T9UVf3dzAYWI/vIc/wAmH5UAYfwk0201LxeTeIJPs0DTRKwyN4ZQD+G4n64Ne8185/DvWF0XxnYzSNthlYwyE9AG4/Q4P4V9GV8RxLGaxEW9raHTRasFZ2qQfdmA/wBlq0abIiyxlGGVYc187CXLK5q9Twz4o6GbbUIdWhX93cjZLjs4HB/EfyNdJ8G/Eons5tCuH/eQZlt8nqhPzL+BOfxNdF4h0RNW0y60y4wPMX5GP8LDlW/P9M14fYXt54W8RR3CKY7qylwynjOOCp9iMj8a+0w3LmWAeHl8Udv0/wAjnfuSufT9FU9K1K31jS7bULRt0M6B19vUH3ByPqKuV8ZUhKnJxkrNHTuFFFFZgFFFFABRRRQBR1S7jskhllOIxIu4+mTt/mwq93rk/iLIU8K3u0kMsO4EdjuX/Cuj067F/plrdrjE8SyDH+0M/wBa650bYeNXu2vyJT1aLNFFFchQUUUUAFBIAJPAHeo5J44hmR1X2JrOvL8TJ5UQYKepPetIU3JibsOS5W81RIs/KoLqPXGBn8yK064fwlqQ1XxtrRQ5hsYY7ZCDwTuYsfxYH8hXcV0Yyi6E1T8k/v1FF3VwooorjKCiiigAooooAzNWl+ZIh2+Y/wCfzrPHLAVLcS+dcu/YnA+lYnirVBo/hq9ug22TyzHF67m4H5ZJ/CvUw9JzlGmt3oRJ21PIvFN++v8Ai25khy4eUQwgd1Hyj8+v417RpdgulaXa2MfSCMJkdyOp/E5P415J8OtM/tHxVDIy5jtFM7ZHGRwv/jxH5V7PXu53UUOTDw2iv+GMqavds8X+IWkDS/FMzRriG6HnpgcZP3h/30DXoPwG1tpLPUdGkbPlMLmIH0Pyt+AIX8zWL8WrUNp2n3WPmSVoyfYjI/kazPgxdm2+IlvGDgXEEsTe427v5qK93La3tsLCT3/y0MpqzZ9G0UUV3EhRRRQAUUUUAFFFFABRRRQAUUUUAFFFFABRRRQAUUUUAFFFFABRRRQAVyfxK8Mt4n8HXNtAm66gP2i3AHJdf4fxUkfUiusooA+NRlT6EV9BfDjxeniTQlguJM6jaKElBPLr0D/j0Pv9RXE/F3wK2jak+u6dEf7Pu3zMqj/UyHr9Ax59jkccVwej6xd6FqcN/YSGOeM8dww7gjuDXnZngI42jyfaWz8y4T5Xc+o6K47w148h8SWgeHy47lBmWA9V9x6j3/Otw6rIUI8sBiOCD0r8/q4OrRk4TVmdakmroZqMu+6IHRBtJryv4oeHcMmt2ycNiO5AHforfj0/AV6Vyck8k85NQ3VtFeWsttcIHhlUo6nuDXpYDEPCVVNbbP0M5LmVjgPhF4tFlfNod5JiC5bdbkn7sn938f5j3r2evl7WLE6Hr11aRTbzay4WRTg8dPof6ivoPwVq9xrvhKxv7tQs8ilWI/iKsV3fjjNdnEGDirYuntLf9GKlJ/Cb1FFFfLGwUUUUAFFFFAHG/ER93hrVB/dgA/8AHgaz/AvjfTE8J6faXV3BHcwIY2SSUIcAnHX2xVjxxJ5vhbV29Yjj/voV4LX2OWYCGMwbp1NLO/4HPObjK6Pp+PXoJgDD5cgPQpKG/lTzqkh+7APxOa+XwxU5BIPqKmTULuP7l1Mv0kIq3wzD7M/w/wCCHtn2PpZ9RuT0VV+gzUMl1cNnfIwHtxXzl/at/wD8/tz/AN/W/wAaie7uJf8AWTyv/vOTQuHEvt/h/wAEPbeR9CT39nbAtcXlvFjqXlUH9TWLqXjjQ7K3lMWoRTTBD5aRAtlsccjjrivEKtafp11ql2lrYwSTTuflRFyT/h9a6YZDRh71SbdvkT7VvZHq3wSJkg1qZjl3kiyT3++f616nXl/wet59Lvtd0y8iMVxC0W5D1GNwP17c16hXzWef77P5fkjan8KCiiivHNAooooAKrX83k2xAPzP8oqwSACSQAOpNYl7c/aZiR9xeFFbUoczuJlevKvibr4vNSTSoGzDaHMhB+9If8Bx9Sa77xVr6+HdDlusg3Dfu4F9XPf6Dr+leQ+G9Hl8S+IIrd2Yq7GSeQ9Qo5Y/Xt9TX1mTYdRviqm0dv1ZhUl9lHo3w10Y6d4fN5IuJr47xkdIx93+p/EV2FNRFjRY41CxqAqqOwHGPwp9ePiq7xFWVR9WaRVlY4r4prnwvCf7t0v/AKC1ch8KW2fEnRz6vIP/ACG1dp8TxnwiD6XKH9Grh/hi2z4jaMf+mxH5qwr6zJHfCL1ZhU+I+oaKKK9YzCiiigAooooAKKKKACiiigAooooAKKKKACiiigAooooAKKKKACiiigAooooAhvLOC/tJbW7iWaCVSkkbDIYHtXzz8Qvhjd+Fp3vtOR7nSGOQ3VoPZ/b/AGvzwev0ZTXRZIykihkYYZSMgigD49tLuexuUuLWV4pkOVdDgivSfD3xOhlRLfXE8qQcC4jX5W/3lHQ+4z9BXR+MvgtbXxe88NMlrOeWtHOI2/3T/Cfbp9K8d1bQ9S0K6NvqtlPayjoJFwG+h6Ee4zXNisHRxUbVF8+pSk1se9Wl5bX8Yls7iG4Q9DG4P8qp67r1p4esZLm7kXeB+7iz80jdgB6e/avA0leNt0bsh9VOKHkeQlnZmY9ycmvIhkEFNNzuu1i/au2xJdXMl5eS3Ep3SSuXY+pJya+lPCFl/Z/hDSrcjBW2RmHuRuP6k184aTZNqWrWlkgO64mSMY9zj+tfUyoI0CKMKowAOwrl4nqpU6dJeb+4qitWx1FFFfGnQFFFFABVa/m8q1bB+ZvlFTySLEhdyAo6msW6uTcybjwo4VfT/wCvW1KDk79EJs5zxowj8GamT3iAH4sBXlvgCYQ+PdFLKrK90sZDDI+b5f612XxR1pbfS4tKjYGW4YSSAfwoOn5tz+Fcp8NdMk1Tx/pMcakiGcXDn0VPm/mAPxr7/I6UoYa76u5y1Hdn0bP4X0O6z9o0bTpCe7WyH+lUpPAXhY5LaBpwHqIFH8q6GuY+JF7Lp/w+1ieElZPJEYI/22Cn9GNeuZnjnjTxT4eS6msPC+g6YkSEo168Acuf9gHgD3Oc+1efdaWvbfhp4J02HRLXWL23Se8uB5iGQZWJc8YHrxnPvxiuPHY2GCpe0mr9kVCLk7HEeFPhlqviEpcXSmxsTz5ki/M4/wBlf6nA+tey+H/DGmeGrTyNNtwhI+eVuXk+p/p09q2KK+Fx+b18Y7N2j2X6nVGmolEaXbprLami7bh4fJkI6OoORn3HIz6Gr1FFebOcp25ne2hYUUUVmAUhIAJJAA7mhnVELMQFHUmse7vTcEquVjHb1rSnTc2Juwt9fGcmNMiMHk/3v/rVTLqqFmYKqjJYnAAH9BS1598SfFQhhbRbJz5jj/SmU/dH9z6nv7cetevgsI8RUVKHz9CJSsrnJeNPEZ8Ra0zxk/ZIMxwL7d2+pPP0wO1ejeAvDv8AYeiCadMXl2A8mRyi/wAK/wBT7n2rivh54X/tfUf7Qu482Vq2QCOJH6gfQdT+A7167Xs5viY0oLB0tlv/AJfqZ04tvmYUUUV86anKfEtd3g2U+k0Z/mP615z4Fu4rHxxo89xII4luV3MegB459ua9o1Kxi1HTLm0uFBjmjKn29D9QcH8K+eWGGI9DX1uQ1FKhKHVP8zCqtbn2TRWB4H1KTVvBWkXk7bpZLdQ7HqxX5SfxIz+Nb9e6ZBRRRQAUUUUAFFFFABRRRQAUUUUAFFFFABRRRQAUUUUAFFFFABRRRQAUUUUAFFFFABUF3ZW1/AYLy3huIm6pKgdT+BqeigDjL74S+Eb5y/8AZfkMf+eErIPyzivE/iPpej6J4qk0zRInWO2RVmZ5C+6Q8nk+gIH1Br6R1vU49F0S91GUZS1haUj1wM4/E4H418k3t3Nf3s93cuXmnkaSRvVicn9TQB2Xwl0r+0PGkU7LmOyjaYk+v3R+OTn8K97rz34O6MLHwxJqDj95fSZB/wBhMqP13fpXoVfn2fYj22LaW0dP8/xOukrRCiiivENAqGe6jth85y3ZR1pL1mW0dkYqwHUVhsSWJJJJ6k85relSUtWJuxNc3L3L5bhR0Udv/r1n6pqMGj6ZPe3RxFCu7A4LHso9ycCrdeWfE/XWuNQj0eFiIrbDy/7Tkcfkp/U17GXYT6zWVPpu/Qzm7K5x2r6pPrOpz3ty2ZJWyR2UdgPYDAr3v4S+Cj4a0M6hept1G+UFgRzFH1C/U9T+A7V5f8KPCo8SeLY5biPdZWGJ5cjhm/gX8Tzj0Br6Sr7xJRSilZI5QrD8aaY2seDdWsoxuklt2KKO7D5h+oFblFMD40r6F+F2prqPgazUHMlqWgcfQ5H/AI6RXlHxK8NN4Z8YXUUabbW5JuLcgcBWPK/gcj6AVofCbxIujeITYXD7ba/wgJPCyD7p/HJH4ivJzrCvEYVqO8dUaUnaR7tRRRX5ydYUUjMI0LMcKBkmsOW5kknaQMVyeAD0rWnTcxN2N2op50t03SH6AdTWQL24Ax5zfjULuzkszFmPcmtVh9dWFyW5unuXy3Cjoo7f/XqGorm5hs7d7i6lWKGMZZ2PAryrxf4/m1jfZaYXgsTwzdHmHv6D2/OvWwWX1MVLlgrJbszlNI3/ABX8RorHfZaKyzXA+Vrjqif7v94+/T61xHh7w9e+KdVKgt5ed09w3IXPv3Y+nesCtHTNd1LRyf7PvJrcN95VPyn6joa+upYJYai4Yeyk+rOdyu7s94sLCDTLGK0tIxHBCu1R6+pPqSec1YrxqL4leIogA1zFJ7vCuf0FTr8UteHUWZ+sP/168CeSYqUnJtNvzZqqiPX6K8h/4Wnrn/POyP8A2yP+NL/wtTW/+eNj/wB+j/8AFVH9hYnuvvH7VHqGr3iafo95dOcLFCzc9zjj8zgfjXz2eprd1vxjq2vwiG9nUQA7vKjXapPbPr+NJ4T8MXfizXoNPtkbyywaeUDiKPPLH37D1OK97LMDLCU3zvVsynJSZ9F/D63Nr4B0WNgQTao+D/tfN/WujqOCGO2gjgiULFGoRQOwHAqSvSICiiigAooooAKKKKACiiigAooooAKKKKACiiigAooooAKKKKACiiigAooooAKKKKACiiigDlvibDJcfDrWUhBLCEPx/dVlY/oDXy7X2PLEk8LxSoro6lWUjgg8Yr538f8AwxvvDF1LeadFJc6QxLB1GWgH91/Yf3unrg0AdX8J/F1nPo8WhXMixXduzCEMceapOeD6gk8emOvNelV8mhirAgkEdxXYaL8UfEOjqsb3C3sI42XI3Ef8C6/ma+YzLIJVqjq0Hq9Wmbwq2VmfQVFeX6f8a7OXC6hp8lu3dozvX+h/nXS2Xj7StTUC0v7Teeiu2xvybFfOVsqxdL44O33/AJGqqRfU6LUGCWbgnluBWLUkk8lzh2YuOxHSo6iFPkVmNu4V4p8Q8f8ACa32P9j/ANAWvaiQiF3ZVRRlmY4Cj1PtXgfiTUBqniK/vEOY5ZmKH/ZHA/QCvo8gpydWU+iVjGq9Ej1D9n1z5mup/DiA/wDodez15R8BNPMWganfEYE9wsa59EXP83/SvV6+qMAooooA4z4n+EP+Es8Mv9nTdqFnmW3wOW/vJ+IH5gV80/Mj91ZT+VfZNeCfGPwR/ZOpnXtPjxZXj/v1UcRSnv8ARuv1z6igDq/APjRtb0VRcN5lzbgRzAnk+jfj/MGut/tSDGcPn0xXzd4b12fw/rEV5DlkHyyx5++h6j+v1Ar3OxvoNTsoryzkEkEq7lYdfofQjpiviM3yyNCrzxXuv8H2OmnO6t1NC6vXuPlxtTPQd/rVaiivLSSVkaC1ma3r1loFmbi+lxkfJEv35D7D+vQUuu6zBoOkzX1xghBhEz99z0X+v0BrwvU9TutWvZLu8laSWQ8kngD0HoPavZyzLPrXvz0ivxMpz5dFuafiTxZe+JLjMx8q2Q/u4EPyr7n1PufwxU3g/wAEal4zvzHZr5Vsh/fXLj5I/wDE+w/QVveAPhZeeKDFf6lvtNK6g4+ef2X0H+0fwz29803TLPR7COy0+3S3t4hhUQcD/E+55NfX04QpxUYKyRg229TG0fwDoOkaD/ZQsIrmGTHnPOgZpW9Sfbtjp2rDvvgn4Wu3LQreWZPaGfIH/fQNeg0VYjyiX4BaUT+51i9Uf7aI38sVF/wz/ZdtcuP+/C/4165RQB5F/wAM/wBn/wBB24/8Bx/8VS/8M/2XfXLj/vwv+NeuUUAeYWXwI0GBw13e39yB/CGVAfyGf1rvdG0DTfD1n9l0mzitou+zqx9STyT9a0qKACiiigAooooAKKKKACiiigAooooAKKKKACiiigAooooAKKKKACiiigAooooAKKKKACiiigAooooAKDg5B6UUUAcb4g+FfhrxAzSNZmzuG5MtodhJ91+6fyz7159q/wABtSh3PpGpW90vUJMpjb8xkH9K9zooA+VtW8BeJdEBN7pF0Ix1kiXzFH4rnH41zxBUkEEEdq+yqy9T8M6LrOf7S0u0uGP8bxAt/wB9daAPlK21K9siPst3PDj/AJ5yFf5Vpx+NfEMQwurXWP8Aabd/Ovb7/wCC3hS8JMMN3aE/88ZyQP8AvrNYsvwB00t+51m7QejxKx/TFZypU5/FFP1Q02jyC/8AEWq6omy91C4mT+4znb+XSqllZXGoXkVrZxPNcSttSNRyxr2y2+AelI4N1q95Ko7RoqfzzXc+HfBWieFlJ0qyVJSMNO53yN/wI9PoMD2q4xjBWirIV77i+DPD48L+FbLTCQ0sSbpWHd2OW/DJx9AK3aKKYBRRRQAVU1PT7bV9NuLC9iWS2nQpIp9P6H37GrdFAHyz428H3XgzW2tJ8yWz5a2nxxIn+I6Ef0IpPCnjC68N3JX/AF1nIf3kJOP+BL6H+fevpHxD4d0/xRpUmn6nFvjblWHDRt2ZT2P/AOo5HFfPnjD4Z6z4VmkkELXmng5W5iXOB/tr/Cf096zqUoVYOE1dMabTPRNN8YaJqcIeHUIomI5jnYRsPz6/hmk1LxloelxlpdQimcDiOA+Yx/LgfiRXhVKAWIABJPYV4/8AYNDmvzO3Y09q7G94r8U3Pia9EjjyraPIihB+6PU+pPrVjwF4Tk8X+JYbPaRaR4kuXH8MYPIz6noPrntV7wv8LPEHiRkkkt20+zJ5nuVIJH+ynVv0HvXvXhbwrp3hHSlstOjOT80srcvK3qT/AE6CvZp04UoKEFZIzbbdzYhhjt4UihRUjjUKqqOFA4AFSUUVYgooooAKKKKACiiigAooooAKKKKACiiigAooooAKKKKACiiigAooooAKKKKACiiigAooooAKKKKAFooooAKKKKACiiigAooooAKKKKACiiigAooooAKKKKACiiigAooooAKKKKACiiigAooooA43xX4d0ZwkzaTYNK5+ZzbIWP44rR8M6FpNnZpPa6ZZQzZ/1kduit+YGaKKAOhooooAKKKKACiiigAooooAKKKKACiiigAooooAKKKKACiiigAooooAKKKKACiiigAooooAKKKKACiiigAooooA/9k=;" vertex="1" parent="1">
          <mxGeometry x="791.62" y="424" width="66.76" height="50" as="geometry" />
        </mxCell>
      </root>
    </mxGraphModel>
  </diagram>
</mxfile>
